<?xml version="1.0" encoding="UTF-8"?>
<svg width="20px" height="20px" viewBox="0 0 20 20" version="1.1" xmlns="http://www.w3.org/2000/svg" xmlns:xlink="http://www.w3.org/1999/xlink">
    <!-- Generator: sketchtool 52.5 (67469) - http://www.bohemiancoding.com/sketch -->
    <title>B56BD0F9-AFB4-4A2A-8480-F1768DB4B584</title>
    <desc>Created with sketchtool.</desc>
    <g id="Symbols" stroke="none" stroke-width="1" fill="none" fill-rule="evenodd" opacity="0.6">
        <g id="Footer" transform="translate(-1129.000000, -364.000000)" fill="#FFFFFF" fill-rule="nonzero">
            <g id="span2">
                <g transform="translate(1020.000000, 118.000000)">
                    <g id="social-media" transform="translate(0.000000, 207.000000)">
                        <g id="github" transform="translate(109.000000, 39.000000)">
                            <path d="M6.68951613,16.0909091 C6.68951613,16.1735537 6.59677419,16.2396694 6.47983871,16.2396694 C6.34677419,16.2520661 6.25403226,16.1859504 6.25403226,16.0909091 C6.25403226,16.0082645 6.34677419,15.9421488 6.46370968,15.9421488 C6.58467742,15.9297521 6.68951613,15.9958678 6.68951613,16.0909091 Z M5.43548387,15.9049587 C5.40725806,15.9876033 5.48790323,16.0826446 5.60887097,16.107438 C5.71370968,16.1487603 5.83467742,16.107438 5.85887097,16.0247934 C5.88306452,15.9421488 5.80645161,15.8471074 5.68548387,15.8099174 C5.58064516,15.7809917 5.46370968,15.822314 5.43548387,15.9049587 Z M7.21774194,15.8347107 C7.10080645,15.8636364 7.02016129,15.9421488 7.03225806,16.0371901 C7.04435484,16.1198347 7.14919355,16.1735537 7.27016129,16.1446281 C7.38709677,16.1157025 7.46774194,16.0371901 7.45564516,15.9545455 C7.44354839,15.8760331 7.33467742,15.822314 7.21774194,15.8347107 Z M9.87096774,0 C4.27822581,0 0,4.35123967 0,10.0826446 C0,14.6652893 2.81451613,18.5867769 6.83467742,19.9669421 C7.35080645,20.0619835 7.53225806,19.7355372 7.53225806,19.4669421 C7.53225806,19.2107438 7.52016129,17.7975207 7.52016129,16.9297521 C7.52016129,16.9297521 4.69758065,17.5495868 4.10483871,15.6983471 C4.10483871,15.6983471 3.64516129,14.4958678 2.98387097,14.1859504 C2.98387097,14.1859504 2.06048387,13.5371901 3.0483871,13.5495868 C3.0483871,13.5495868 4.05241935,13.6322314 4.60483871,14.6157025 C5.48790323,16.2107438 6.96774194,15.7520661 7.54435484,15.4793388 C7.63709677,14.8181818 7.89919355,14.3595041 8.18951613,14.0867769 C5.93548387,13.8305785 3.66129032,13.4958678 3.66129032,9.52066116 C3.66129032,8.38429752 3.96774194,7.81404959 4.61290323,7.08677686 C4.50806452,6.81818182 4.16532258,5.7107438 4.71774194,4.28099174 C5.56048387,4.01239669 7.5,5.39669421 7.5,5.39669421 C8.30645161,5.16528926 9.1733871,5.04545455 10.0322581,5.04545455 C10.891129,5.04545455 11.7580645,5.16528926 12.5645161,5.39669421 C12.5645161,5.39669421 14.5040323,4.00826446 15.3467742,4.28099174 C15.8991935,5.71487603 15.5564516,6.81818182 15.4516129,7.08677686 C16.0967742,7.81818182 16.4919355,8.38842975 16.4919355,9.52066116 C16.4919355,13.5082645 14.1169355,13.8264463 11.8629032,14.0867769 C12.233871,14.4132231 12.5483871,15.0330579 12.5483871,16.0041322 C12.5483871,17.3966942 12.5362903,19.1198347 12.5362903,19.4586777 C12.5362903,19.7272727 12.7217742,20.053719 13.233871,19.9586777 C17.266129,18.5867769 20,14.6652893 20,10.0826446 C20,4.35123967 15.4637097,0 9.87096774,0 Z M3.91935484,14.2520661 C3.86693548,14.2933884 3.87903226,14.3884298 3.94758065,14.4669421 C4.01209677,14.5330579 4.10483871,14.5619835 4.15725806,14.5082645 C4.20967742,14.4669421 4.19758065,14.3719008 4.12903226,14.2933884 C4.06451613,14.2272727 3.97177419,14.1983471 3.91935484,14.2520661 Z M3.48387097,13.9173554 C3.45564516,13.9710744 3.49596774,14.0371901 3.5766129,14.0785124 C3.64112903,14.1198347 3.72177419,14.107438 3.75,14.0495868 C3.77822581,13.9958678 3.73790323,13.9297521 3.65725806,13.8884298 C3.5766129,13.8636364 3.51209677,13.8760331 3.48387097,13.9173554 Z M4.79032258,15.3884298 C4.72580645,15.4421488 4.75,15.5661157 4.84274194,15.6446281 C4.93548387,15.7396694 5.05241935,15.7520661 5.10483871,15.6859504 C5.15725806,15.6322314 5.13306452,15.5082645 5.05241935,15.4297521 C4.96370968,15.3347107 4.84274194,15.322314 4.79032258,15.3884298 Z M4.33064516,14.7809917 C4.26612903,14.822314 4.26612903,14.9297521 4.33064516,15.0247934 C4.39516129,15.1198347 4.50403226,15.161157 4.55645161,15.1198347 C4.62096774,15.0661157 4.62096774,14.9586777 4.55645161,14.8636364 C4.5,14.768595 4.39516129,14.7272727 4.33064516,14.7809917 Z" id="Shape"></path>
                        </g>
                    </g>
                </g>
            </g>
        </g>
    </g>
</svg>