<?xml version="1.0" encoding="utf-8"?>
<!-- Generator: Adobe Illustrator 17.1.0, SVG Export Plug-In . SVG Version: 6.00 Build 0)  -->
<!DOCTYPE svg PUBLIC "-//W3C//DTD SVG 1.1//EN" "http://www.w3.org/Graphics/SVG/1.1/DTD/svg11.dtd">
<svg version="1.1" id="Layer_1" xmlns="http://www.w3.org/2000/svg" xmlns:xlink="http://www.w3.org/1999/xlink" x="0px" y="0px"
	 viewBox="0 0 147.5 203.5" enable-background="new 0 0 147.5 203.5" xml:space="preserve">
<g>
	<g>
		<path fill="#FFFFFF" d="M30.7,121.5h3.5c2.3,0,3.9,0.8,3.9,3.2c0,2.3-1.7,3.4-3.9,3.4h-1.7v3.8h-1.8V121.5z M34,126.6
			c1.6,0,2.3-0.6,2.3-1.9c0-1.3-0.8-1.7-2.3-1.7h-1.5v3.6H34z"/>
		<path fill="#FFFFFF" d="M39.5,126.7c0-3.3,1.9-5.3,4.6-5.3c2.7,0,4.6,2,4.6,5.3c0,3.4-1.9,5.4-4.6,5.4
			C41.4,132.1,39.5,130,39.5,126.7z M46.8,126.7c0-2.3-1.1-3.7-2.7-3.7c-1.6,0-2.7,1.4-2.7,3.7c0,2.3,1.1,3.8,2.7,3.8
			C45.7,130.5,46.8,129,46.8,126.7z"/>
		<path fill="#FFFFFF" d="M49.6,121.5h1.9l0.9,5.2c0.2,1.1,0.3,2.2,0.5,3.3H53c0.2-1.1,0.4-2.2,0.7-3.3l1.3-5.2h1.6l1.3,5.2
			c0.2,1.1,0.5,2.2,0.7,3.3h0.1c0.2-1.1,0.3-2.2,0.5-3.3l0.9-5.2h1.8l-2,10.4h-2.3l-1.3-5.5c-0.2-0.8-0.3-1.6-0.5-2.4h-0.1
			c-0.1,0.8-0.3,1.6-0.5,2.4l-1.3,5.5h-2.3L49.6,121.5z"/>
		<path fill="#FFFFFF" d="M63.3,121.5h6.2v1.6h-4.4v2.7h3.7v1.6h-3.7v3.1h4.6v1.6h-6.4V121.5z"/>
		<path fill="#FFFFFF" d="M77.4,131.9l-2.2-4.1h-1.6v4.1h-1.8v-10.4h3.5c2.2,0,3.8,0.8,3.8,3.1c0,1.6-0.8,2.5-2.1,3l2.5,4.3H77.4z
			 M73.6,126.4H75c1.4,0,2.2-0.6,2.2-1.8c0-1.2-0.8-1.6-2.2-1.6h-1.5V126.4z"/>
		<path fill="#FFFFFF" d="M81.2,121.5h6.2v1.6H83v2.7h3.7v1.6H83v3.1h4.6v1.6h-6.4V121.5z"/>
		<path fill="#FFFFFF" d="M89.7,121.5h2.8c3.2,0,5.1,1.7,5.1,5.1c0,3.4-1.9,5.2-5,5.2h-2.9V121.5z M92.3,130.4
			c2.1,0,3.3-1.2,3.3-3.7c0-2.5-1.2-3.7-3.3-3.7h-0.8v7.4H92.3z"/>
		<path fill="#FFFFFF" d="M102.8,121.5h3.3c2.1,0,3.7,0.7,3.7,2.6c0,1-0.6,1.9-1.8,2.3v0.1c1.5,0.3,2.3,1.1,2.3,2.5c0,2.1-1.7,3-4,3
			h-3.6V121.5z M106,125.8c1.5,0,2.1-0.6,2.1-1.5c0-1-0.7-1.3-2-1.3h-1.3v2.9H106z M106.2,130.5c1.5,0,2.4-0.6,2.4-1.7
			c0-1.1-0.8-1.6-2.4-1.6h-1.6v3.3H106.2z"/>
		<path fill="#FFFFFF" d="M113.7,128l-3.1-6.5h2l1.1,2.6c0.3,0.8,0.6,1.5,0.9,2.3h0.1c0.3-0.8,0.7-1.5,1-2.3l1.1-2.6h1.9l-3.1,6.5
			v3.9h-1.8V128z"/>
	</g>
	<g>
		<path fill="#FFFFFF" d="M75.6,168.7c-2.5,0-3.5,2.3-3.5,6s1,6,3.5,6c2.5,0,3.5-2.3,3.5-6S78.1,168.7,75.6,168.7z"/>
		<path fill="#FFFFFF" d="M134.1,0H13.4C6,0,0,6,0,13.4v176.7c0,7.4,6,13.4,13.4,13.4h120.7c7.4,0,13.4-6,13.4-13.4V13.4
			C147.5,6,141.5,0,134.1,0z M56.6,186.7h-8.3v-24.3h-8.3v-6.9h24.8v6.9h-8.3V186.7z M75.6,187.2c-6.1,0-11.9-4.6-11.9-12.6
			s5.8-12.6,11.9-12.6s11.9,4.6,11.9,12.6S81.7,187.2,75.6,187.2z M107.7,169.7c-0.9-0.2-1.6-0.4-2.7-0.4c-1.7,0-3.8,1.1-5,4v13.3
			h-8.3v-24h6.7l0.6,4.1h0.2c1.8-3.3,4.5-4.7,6.8-4.7c1.5,0,2.3,0.2,3,0.5L107.7,169.7z M137.5,142.4H10v-129c0-1.9,1.5-3.4,3.4-3.4
			h120.7c1.9,0,3.4,1.5,3.4,3.4V142.4z"/>
	</g>
	<g>
		<path fill="none" d="M68.7,114.5c-1.7-0.7-3.3-1.5-4.5-2.3c-0.7-0.5-1.3-0.9-1.8-1.4c-0.9-0.2-1.7-0.5-2.5-0.7
			C61.7,112.2,62.8,113.1,68.7,114.5z"/>
		<path fill="none" d="M70.9,114c-0.6-0.5-1.3-1.1-1.8-2c-1.4-0.1-2.8-0.4-4.2-0.6C66.5,112.6,68.7,113.4,70.9,114z"/>
		<path fill="none" d="M72.5,113.7c0.2-0.4,0.4-0.9,0.6-1.4c-0.8,0-1.6-0.1-2.4-0.1C71.2,112.8,71.6,113.3,72.5,113.7z"/>
		<path fill="none" d="M73.3,114c0.6-0.5,1.2-1.1,1.7-1.7c-0.2,0-0.4,0-0.7,0C74.1,112.8,73.7,113.4,73.3,114z"/>
		<path fill="none" d="M58.7,111.8c1.6,0.8,3.4,1.4,5.1,1.9c-2-0.9-3.8-2-5.1-3.5c0-0.1-0.5-0.6-0.5-0.6c0-0.1-0.1-0.1-0.1-0.2
			c-2.4-0.9-4.6-1.9-6.8-3.1C53.3,108.5,55.8,110.5,58.7,111.8z"/>
		<path fill="none" d="M76.4,112.2c-0.1,0.1-0.1,0.2-0.2,0.3C76.3,112.4,76.4,112.3,76.4,112.2C76.5,112.2,76.5,112.2,76.4,112.2z"
			/>
		<path fill="#FFFFFF" d="M96.9,25.1c-2.1-1.2-4.4-2.3-6.7-3.1c-4.3,5.1-8.2,10.2-10.7,15.4C84,31,90.1,27.5,96.9,25.1z"/>
		<path fill="#FFFFFF" d="M79.6,105.4c1.4-6.5,2.5-13.3,1.6-17.4c-0.2-0.9-0.5-4.1-1.8-7.5c-1.8-4.9-4.5-9-4.8-9.9
			c-1-2.7-1.3-9.6-1.4-13.3c0.1,4.4,1,10.9,1.6,12.4c0.4,0.9,3.2,5.5,5.2,10.2c1.4,3.1,1.7,6,1.8,6.9c1.1,8.8,0.1,12.5-2.1,20.5
			c-0.3,1.1-0.8,2.1-1.3,3.1c1.5-1.8,2.6-3.8,3-5.4c2.3-9.9,3.1-22.6-0.1-32.2c-1.6-5.1-5.6-9.5-6.4-12.5c-0.7-2.8-0.7-5.8-0.5-9.6
			l-8-3.5c0.5,0.7,1.8,3.9,2.1,4.8c0.6,2.6,0.4,5.2-0.2,6.3c-2.9,5.3-7.9,6.7-11.5,9.7c-6.4,5.3-13.4,9.5-12.6,23.9
			c0.2,4.7,2.7,10.1,6.8,14.3c2.2,1.2,4.4,2.3,6.8,3.1c-3-3.4-6.5-9-7.8-14.3c-0.5-2.1-0.9-3.8-0.4-6c2.4-8.7,7.7-12.1,13-15.7
			c1.2-0.8,2.6-1.5,3.8-2.4c2.2-1.6,3.4-6.6,4.6-10.7c-0.6,3.3-1.4,9.2-4.2,11.4c-1.2,0.9-2.4,1.7-3.7,2.6
			c-5.1,3.5-10.2,6.8-12.6,15.2c-0.5,1.8-0.1,3.7,0.4,5.5c1.3,5.1,4.9,10.7,7.8,13.9c0,0.1,0.6,0.5,0.6,0.6c0.2,0.2,0.3,0.4,0.5,0.5
			c0.8,0.3,1.7,0.5,2.5,0.7c-3.8-3.2-5.8-7.2-6.2-12.8C56,93,59,87.8,65,84.7c4.1-2.1,5.3-5.5,6.6-9.5c-0.9,4.6-1.9,7.4-6.2,9.9
			c-5.1,2.9-8.7,8.7-8.3,12.6c0.4,4.8,3.8,10.2,7.5,13.5c0.1,0.1,0.2,0.1,0.3,0.2c1.4,0.3,2.8,0.5,4.2,0.6c0,0,0,0,0,0
			c-0.8-1.1-1.3-2.5-1.8-3.9c-0.5-1.4-1-2.8-1-4.1c0-3.1,0.4-6.8,2.6-9.4c2-2.3,2.6-2.6,3.5-5.4c-0.6,3.1-1.1,3.3-2.9,6
			c-2.4,3.4-2.5,6.8-2.2,8.9c0.2,1.4,0.7,2.6,1.1,3.7c0.6,1.4,1.1,2.6,2,3.8c0.1,0.2,0.2,0.3,0.3,0.4c0.8,0.1,1.6,0.1,2.4,0.1
			c0.8-2.3,1.4-5.6,1.4-7.6c0.1-2.1,0.2-4.6-0.1-7c-0.4-3.3-1.4-6.5-1.5-9c0.5,2.3,1.7,5.5,2.4,8.7c0.5,2.6,0.7,5.1,0.4,6.9
			c-0.2,2.2-0.3,4.1-0.7,5.9c-0.1,0.7-0.4,1.4-0.7,2c0.2,0,0.5,0,0.7,0c1.3-1.7,2.2-3.8,2.7-6.1c0.9-4.3,1.1-8.3,1.1-10.4
			c0.1-1.8-0.8-4.9-1.6-7.7c-0.6-2.1-2.5-4.2-3.1-5.8c-0.9-2.6-0.6-4.5-0.6-8.2c0.4,3.4,0.4,6.3,1.3,7.7c0.8,1.4,2,3.3,2.8,5.2
			c1.4,3.5,2.2,7.3,2.3,9.1c0.1,3.1-0.3,7.9-1.4,11.7c-0.5,1.7-1.2,3.2-2,4.5c0,0,0,0,0,0C78,110.2,79.1,107.7,79.6,105.4z"/>
		<path fill="#FFFFFF" d="M49.8,70.7c3.3-3.5,10.1-7.5,14.7-10.7c2.3-1.6,4.7-6,0.1-14.3l0.9-0.7l5.3,2.2c1-6.5,3.5-13.1,7.1-19.5
			l-2.6,10.2c3.3-6.5,8.4-11.6,14.2-16c-4.9-1.8-10.2-2.7-15.7-2.7c-25.7,0-46.6,20.9-46.6,46.6c0,14.8,6.9,28,17.7,36.5
			c-1.7-3.1-2.8-6.5-3-10.2C41.5,83.7,43.4,77.3,49.8,70.7z"/>
		<path fill="#FFFFFF" d="M120.6,65.7c0-17.4-9.5-32.5-23.6-40.5C88.4,32.9,81.4,41.1,76,49.4l3.4,1.4c-1.8,6.1,3.6,10.4,5.4,11.4
			c4,2.2,7.8,4.5,10.9,7.3c5.8,5.3,9,12.7,9,20.5c0,5-1.5,9.9-4.1,14.1C112.7,95.5,120.6,81.5,120.6,65.7z"/>
	</g>
</g>
</svg>
