<?xml version="1.0" encoding="utf-8"?>
<!-- Generator: Adobe Illustrator 17.1.0, SVG Export Plug-In . SVG Version: 6.00 Build 0)  -->
<!DOCTYPE svg PUBLIC "-//W3C//DTD SVG 1.1//EN" "http://www.w3.org/Graphics/SVG/1.1/DTD/svg11.dtd">
<svg version="1.1" id="Layer_1" xmlns="http://www.w3.org/2000/svg" xmlns:xlink="http://www.w3.org/1999/xlink" x="0px" y="0px"
	 viewBox="0 0 338.8 72.7" enable-background="new 0 0 338.8 72.7" xml:space="preserve">
<g>
	<g>
		<polygon fill="#494949" points="44.9,72.7 0,72.7 22.4,41.4 0,10 44.9,10 		"/>
	</g>
	<g>
		<polygon fill="#494949" points="293.9,10 338.8,10 316.3,41.4 338.8,72.7 293.9,72.7 		"/>
	</g>
	<g>
		<rect x="54.9" y="0" fill="#494949" width="229" height="62.7"/>
	</g>
	<g>
		<g>
			<g>
				<path fill="#FFFFFF" d="M234.7,40.1c0-0.7-0.3-1.8-0.6-2.9c-0.2-0.8-0.9-1.6-1.1-2.1c-0.3-1-0.2-1.7-0.2-3.1
					c0.2,1.3,0.2,2.4,0.5,2.9c0.3,0.5,0.7,1.2,1,1.9c0.5,1.3,0.8,2.7,0.9,3.4c0,1.1-0.1,2.9-0.5,4.3c-0.2,0.5-0.4,1-0.6,1.4
					c0.5-0.7,0.9-1.6,1-2.3c0.5-2.4,0.9-5,0.6-6.5c-0.1-0.3-0.2-1.5-0.7-2.8c-0.7-1.8-1.7-3.3-1.8-3.7c-0.4-1-0.5-3.6-0.5-5
					c0.1,1.6,0.4,4.1,0.6,4.6c0.1,0.3,1.2,2,1.9,3.8c0.5,1.2,0.6,2.3,0.7,2.6c0.4,3.3,0.1,4.7-0.8,7.6c-0.1,0.4-0.3,0.8-0.5,1.2
					c0.6-0.7,1-1.5,1.2-2.1c0.8-3.7,1.1-8.4,0-12c-0.6-1.9-2.1-3.5-2.4-4.7c-0.4-1.3-0.1-3.5-0.1-3.5l-3.2-1.4
					c0.8,2.1,1,3.8,0.1,4.5c-3.3,2.8-8.9,5.9-8.9,10.5c0,4.9,2.9,10.3,10.4,10.7c-0.9-0.2-1.8-0.5-2.5-0.8c-0.8-0.3-1.4-0.7-1.9-1.3
					c0,0-0.2-0.2-0.2-0.2c-1.1-1.3-2.5-3.4-3-5.4c-0.2-0.8-0.3-1.4-0.1-2.2c0.9-3.2,2.9-4.5,4.9-5.9c0.5-0.3,1-0.6,1.4-0.9
					c0.8-0.6,1.3-2.5,1.7-4c-0.2,1.2-0.5,3.4-1.6,4.2c-0.5,0.3-0.9,0.6-1.4,1c-1.9,1.3-3.8,2.5-4.7,5.7c-0.2,0.7,0,1.4,0.1,2
					c0.5,1.9,1.8,4,2.9,5.2c0,0.1,0.2,0.2,0.2,0.2c0.7,0.8,1,1.2,2.9,1.7c-0.4-0.2-0.8-0.5-1.1-0.7c-1.9-1.3-2.8-2.9-3-5.3
					c-0.1-1.9,1-3.8,3.3-5c1.5-0.8,2-2,2.5-3.5c-0.3,1.7-0.7,2.8-2.3,3.7c-1.9,1.1-3.2,3.2-3.1,4.7c0.2,1.8,1.4,3.8,2.8,5
					c0.6,0.5,1.5,0.8,2.4,1.1c-0.2-0.2-0.5-0.4-0.7-0.7c-0.3-0.4-0.5-0.9-0.7-1.5c-0.2-0.5-0.4-1-0.4-1.5c0-1.1,0.1-2.5,1-3.5
					c0.7-0.9,1-1,1.3-2c-0.2,1.2-0.4,1.2-1.1,2.3c-0.9,1.3-0.9,2.5-0.8,3.3c0.1,0.5,0.3,1,0.4,1.4c0.2,0.5,0.4,1,0.7,1.4
					c0.3,0.3,0.4,0.5,0.8,0.7c0.4-0.8,0.7-2.5,0.8-3.4c0-0.8,0.1-1.7,0-2.6c-0.2-1.2-0.5-2.4-0.6-3.3c0.2,0.8,0.6,2.1,0.9,3.3
					c0.2,1,0.2,1.9,0.2,2.6c-0.1,0.8-0.1,1.5-0.2,2.2c-0.1,0.5-0.3,0.9-0.7,1.4c0.9-0.7,1.4-1.7,1.7-2.9
					C234.7,42.4,234.7,40.9,234.7,40.1z"/>
			</g>
			<g>
				<path fill="#FFFFFF" d="M242.7,33.1c-1.2-2.2-4.3-4.5-7.6-6.5c-0.7-0.4-0.9-2.1-0.8-2.8l-0.8-0.4c0,0-0.3,2,0.2,3.6
					c0.4,1.1,1.5,2.4,2.3,4.1c0.5,1.2,1,4,1.1,4.4c0.4,3.3,0.2,6.4-0.8,9c-0.4,1.2-1.4,2.3-2.1,2.8c-0.1,0.1-0.3,0.2-0.4,0.2
					C240.1,47.8,246.9,40.7,242.7,33.1z"/>
			</g>
		</g>
		<g>
			<path fill="#FFFFFF" d="M241.5,13.7c-2.6,0.9-4.9,2.2-6.6,4.6c1-2.1,2.7-4.2,4.5-6.3c-2.5,1.8-4.6,3.8-6,6.5l1-3.8
				c-1.5,2.6-2.5,5.3-2.7,7.9l1.6,0.7C235.3,20.1,238,16.8,241.5,13.7z"/>
		</g>
		<g>
			<polygon fill="#FFFFFF" points="232.5,37.5 232.5,37.5 232.5,37.5 			"/>
		</g>
		<g>
			<path fill="#FFFFFF" d="M225.3,23.3V17c0-0.8-0.7-1.5-1.5-1.5h-21.3c-0.8,0-1.5,0.7-1.5,1.5v6.3c0,0.8,0.7,1.5,1.5,1.5h4.8
				c0.5,0,1,0.4,1,1v20.8c0,0.7,0.5,1.2,1.2,1.2h7.2c0.7,0,1.2-0.5,1.2-1.2V26c0-0.6,0.4-1.2,1.4-1.2h4.4
				C224.6,24.8,225.3,24.1,225.3,23.3z"/>
		</g>
		<g>
			<path fill="#FFFFFF" d="M260.3,31.8v-6.7c0-0.7-0.6-1.2-1.2-1.2h-1.9c-0.3,0-0.8,0-1,0.1c-4.8,0.5-8.5,4.3-8.9,9.1
				c0,0.2,0,0.5,0,0.7v13c0,0.5,0.5,1,1.1,1h6.8c0.6,0,1.1-0.5,1.1-1V35.4c0-1.2,1-2.3,3.1-2.3C260.3,33,260.3,32.7,260.3,31.8z"/>
		</g>
	</g>
	<g>
		<path fill="#FFFFFF" d="M76.4,25.8h3.8v14.3h-3.8V25.8z"/>
		<path fill="#FFFFFF" d="M89.3,35.7c1,0.8,2.3,1.4,3.3,1.4c1.1,0,1.6-0.4,1.6-1c0-0.7-0.7-0.9-1.9-1.4L90.5,34
			c-1.5-0.6-2.9-1.9-2.9-4c0-2.4,2.2-4.4,5.3-4.4c1.6,0,3.4,0.6,4.8,1.9l-1.9,2.4c-1-0.7-1.8-1-2.9-1c-0.9,0-1.5,0.3-1.5,1
			c0,0.7,0.8,0.9,2.1,1.4l1.7,0.7c1.8,0.7,2.8,1.9,2.8,3.9c0,2.4-2,4.6-5.6,4.6c-1.8,0-3.9-0.7-5.4-2L89.3,35.7z"/>
		<path fill="#FFFFFF" d="M100.3,25.8h3.8v7.8c0,2.6,0.7,3.5,2.2,3.5s2.2-0.9,2.2-3.5v-7.8h3.7v7.4c0,4.9-1.8,7.2-5.9,7.2
			c-4,0-5.9-2.3-5.9-7.2V25.8z"/>
		<path fill="#FFFFFF" d="M115.2,25.8h5.5c3.1,0,5.7,1.1,5.7,4.8c0,3.5-2.7,5-5.7,5H119v4.5h-3.8V25.8z M120.5,32.6
			c1.5,0,2.2-0.7,2.2-2s-0.8-1.8-2.2-1.8H119v3.8H120.5z"/>
		<path fill="#FFFFFF" d="M128.8,25.8h5.5c3.1,0,5.7,1.1,5.7,4.8c0,3.5-2.7,5-5.7,5h-1.8v4.5h-3.8V25.8z M134.1,32.6
			c1.5,0,2.2-0.7,2.2-2s-0.8-1.8-2.2-1.8h-1.6v3.8H134.1z"/>
		<path fill="#FFFFFF" d="M141.7,32.9c0-4.7,2.7-7.3,6.6-7.3c4,0,6.6,2.7,6.6,7.3c0,4.7-2.7,7.5-6.6,7.5
			C144.4,40.4,141.7,37.6,141.7,32.9z M151.2,32.9c0-2.6-1.1-4.1-2.8-4.1c-1.7,0-2.8,1.5-2.8,4.1s1.1,4.2,2.8,4.2
			C150.1,37.1,151.2,35.5,151.2,32.9z"/>
		<path fill="#FFFFFF" d="M165.3,40.1l-2.5-4.8h-1.5v4.8h-3.8V25.8h5.4c3.1,0,5.7,1.1,5.7,4.6c0,2-0.9,3.4-2.3,4.1l3.1,5.5H165.3z
			 M161.4,32.3h1.4c1.5,0,2.3-0.7,2.3-1.9c0-1.2-0.8-1.6-2.3-1.6h-1.4V32.3z"/>
		<path fill="#FFFFFF" d="M173.7,29h-3.8v-3.2h11.4V29h-3.8v11.1h-3.8V29z"/>
	</g>
</g>
</svg>
