<?xml version="1.0" encoding="utf-8"?>
<!-- Generator: Adobe Illustrator 17.1.0, SVG Export Plug-In . SVG Version: 6.00 Build 0)  -->
<!DOCTYPE svg PUBLIC "-//W3C//DTD SVG 1.1//EN" "http://www.w3.org/Graphics/SVG/1.1/DTD/svg11.dtd">
<svg version="1.1" id="Layer_1" xmlns="http://www.w3.org/2000/svg" xmlns:xlink="http://www.w3.org/1999/xlink" x="0px" y="0px"
	 viewBox="0 0 256.7 56.5" enable-background="new 0 0 256.7 56.5" xml:space="preserve">
<g>
	<path fill="#7E4798" d="M236,0H20.7C9.2,0,0,8.9,0,20v16.6c0,11.1,9.2,19.8,20.7,20H236c11.5,0,20.7-8.9,20.7-20V20
		C256.7,8.9,247.5,0,236,0z"/>
</g>
<g>
	<path fill="#FFFFFF" d="M49.3,22.8h3.3c4,0,6.2,2.3,6.2,6.5c0,4.2-2.2,6.6-6.1,6.6h-3.4V22.8z M52.4,34.5c3.1,0,4.6-1.9,4.6-5.3
		c0-3.3-1.5-5.1-4.6-5.1H51v10.4H52.4z"/>
	<path fill="#FFFFFF" d="M65.2,25.9c2.4,0,4.5,1.9,4.5,5.1c0,3.2-2.1,5.1-4.5,5.1c-2.4,0-4.5-1.9-4.5-5.1
		C60.7,27.8,62.8,25.9,65.2,25.9z M65.2,34.8c1.7,0,2.8-1.5,2.8-3.7c0-2.2-1.1-3.8-2.8-3.8c-1.7,0-2.8,1.5-2.8,3.8
		C62.4,33.3,63.5,34.8,65.2,34.8z"/>
	<path fill="#FFFFFF" d="M71,26.2h1.7l1.4,5.6c0.2,0.9,0.4,1.8,0.6,2.7h0.1c0.2-0.9,0.4-1.8,0.7-2.7l1.5-5.6h1.6l1.5,5.6
		c0.2,0.9,0.5,1.8,0.7,2.7h0.1c0.2-0.9,0.4-1.8,0.6-2.7l1.4-5.6h1.6l-2.6,9.7h-2l-1.4-5.2c-0.2-0.9-0.4-1.8-0.7-2.8h-0.1
		c-0.2,1-0.4,1.9-0.7,2.8l-1.4,5.2h-1.9L71,26.2z"/>
	<path fill="#FFFFFF" d="M86.5,26.2h1.4l0.1,1.4h0.1c0.9-0.9,1.9-1.6,3.3-1.6c2,0,3,1.3,3,3.8v6.2h-1.6v-5.9c0-1.8-0.6-2.6-1.8-2.6
		c-1,0-1.7,0.5-2.7,1.5v7h-1.6V26.2z"/>
	<path fill="#FFFFFF" d="M97.5,21.6h1.6V34c0,0.5,0.2,0.7,0.5,0.7c0.1,0,0.2,0,0.4,0l0.2,1.2c-0.2,0.1-0.5,0.2-0.9,0.2
		c-1.2,0-1.7-0.8-1.7-2.2V21.6z"/>
	<path fill="#FFFFFF" d="M106.4,25.9c2.4,0,4.5,1.9,4.5,5.1c0,3.2-2.1,5.1-4.5,5.1c-2.4,0-4.5-1.9-4.5-5.1
		C101.9,27.8,104,25.9,106.4,25.9z M106.4,34.8c1.7,0,2.8-1.5,2.8-3.7c0-2.2-1.1-3.8-2.8-3.8c-1.7,0-2.8,1.5-2.8,3.8
		C103.6,33.3,104.7,34.8,106.4,34.8z"/>
	<path fill="#FFFFFF" d="M118.6,29.7c0-1.2-0.4-2.4-2-2.4c-1.1,0-2.1,0.5-2.9,1l-0.7-1.1c0.9-0.6,2.3-1.3,3.8-1.3
		c2.4,0,3.4,1.6,3.4,4v6h-1.4l-0.1-1.2h0c-0.9,0.8-2,1.4-3.2,1.4c-1.6,0-2.9-1-2.9-2.8C112.7,31.2,114.5,30.2,118.6,29.7z M116,34.8
		c0.9,0,1.7-0.5,2.7-1.3v-2.7c-3.3,0.4-4.4,1.2-4.4,2.4C114.3,34.3,115,34.8,116,34.8z"/>
	<path fill="#FFFFFF" d="M126.9,25.9c1.1,0,1.9,0.4,2.7,1.1l-0.1-1.7v-3.7h1.7v14.2h-1.4l-0.1-1.1h-0.1c-0.8,0.7-1.8,1.4-2.9,1.4
		c-2.4,0-4-1.8-4-5.1C122.7,27.9,124.7,25.9,126.9,25.9z M127.1,34.7c0.9,0,1.7-0.4,2.5-1.3v-5.1c-0.8-0.7-1.6-1-2.4-1
		c-1.6,0-2.8,1.5-2.8,3.7C124.4,33.3,125.4,34.7,127.1,34.7z"/>
	<path fill="#FFFFFF" d="M141.1,25.3h-3.6v-2.5h10.1v2.5H144v10.6h-2.9V25.3z"/>
	<path fill="#FFFFFF" d="M152.1,25.7c2.5,0,4.8,1.9,4.8,5.2s-2.3,5.2-4.8,5.2c-2.5,0-4.8-1.9-4.8-5.2S149.6,25.7,152.1,25.7z
		 M152.1,33.7c1.2,0,1.8-1.1,1.8-2.8c0-1.7-0.6-2.8-1.8-2.8c-1.2,0-1.8,1.1-1.8,2.8C150.3,32.6,150.9,33.7,152.1,33.7z"/>
	<path fill="#FFFFFF" d="M159,26h2.4l0.2,1.7h0.1c0.7-1.3,1.8-2,2.8-2c0.6,0,0.9,0.1,1.2,0.2l-0.5,2.5c-0.4-0.1-0.7-0.2-1.1-0.2
		c-0.7,0-1.7,0.5-2.2,1.8v5.8H159V26z"/>
	<path fill="#FFFFFF" d="M171.3,22.8h4.5c2.7,0,4.8,0.7,4.8,3.2c0,1.2-0.7,2.4-2.2,2.8V29c1.9,0.3,2.8,1.3,2.8,3.1
		c0,2.7-2.2,3.8-5.1,3.8h-4.8V22.8z M175.6,28.1c1.4,0,2.1-0.6,2.1-1.6c0-1-0.7-1.4-2-1.4h-1.4v3H175.6z M175.9,33.6
		c1.6,0,2.4-0.6,2.4-1.8c0-1.1-0.8-1.6-2.4-1.6h-1.6v3.4H175.9z"/>
	<path fill="#FFFFFF" d="M183.2,26h2.4l0.2,1.7h0.1c0.7-1.3,1.8-2,2.8-2c0.6,0,0.9,0.1,1.2,0.2l-0.5,2.5c-0.4-0.1-0.7-0.2-1.1-0.2
		c-0.7,0-1.7,0.5-2.2,1.8v5.8h-2.9V26z"/>
	<path fill="#FFFFFF" d="M195.2,25.7c2.5,0,4.8,1.9,4.8,5.2s-2.3,5.2-4.8,5.2c-2.5,0-4.8-1.9-4.8-5.2S192.7,25.7,195.2,25.7z
		 M195.2,33.7c1.2,0,1.8-1.1,1.8-2.8c0-1.7-0.6-2.8-1.8-2.8c-1.2,0-1.8,1.1-1.8,2.8C193.4,32.6,194,33.7,195.2,33.7z"/>
	<path fill="#FFFFFF" d="M201.1,26h2.9l1,4.6c0.2,1,0.3,1.9,0.4,2.9h0.1c0.2-1,0.3-2,0.6-2.9l1.1-4.6h2.5l1.1,4.6
		c0.2,1,0.4,1.9,0.6,2.9h0.1c0.2-1,0.3-2,0.5-2.9l0.9-4.6h2.7l-2.4,9.9h-3.4l-0.9-4c-0.2-0.9-0.4-1.8-0.5-2.9h-0.1
		c-0.2,1.1-0.3,2-0.5,2.9l-0.9,4h-3.4L201.1,26z"/>
	<path fill="#FFFFFF" d="M217.8,32.9c0.9,0.7,1.7,1,2.6,1c0.9,0,1.3-0.3,1.3-0.8c0-0.7-1-1-2-1.4c-1.2-0.5-2.6-1.3-2.6-2.9
		c0-1.8,1.5-3.1,3.8-3.1c1.5,0,2.6,0.6,3.5,1.3l-1.3,1.8c-0.7-0.5-1.4-0.8-2.1-0.8c-0.8,0-1.1,0.3-1.1,0.8c0,0.6,0.9,0.9,1.9,1.3
		c1.3,0.5,2.7,1.2,2.7,3c0,1.8-1.4,3.2-4.1,3.2c-1.3,0-2.8-0.6-3.8-1.4L217.8,32.9z"/>
	<path fill="#FFFFFF" d="M230.4,25.7c2.8,0,4.2,2.1,4.2,4.8c0,0.5-0.1,1-0.1,1.2h-5.9c0.3,1.5,1.3,2.2,2.6,2.2
		c0.7,0,1.4-0.2,2.1-0.7l1,1.8c-1,0.7-2.3,1.1-3.5,1.1c-2.8,0-5-1.9-5-5.2C225.7,27.7,228,25.7,230.4,25.7z M232.1,29.9
		c0-1.1-0.5-1.9-1.7-1.9c-0.9,0-1.7,0.6-1.9,1.9H232.1z"/>
	<path fill="#FFFFFF" d="M236.6,26h2.4l0.2,1.7h0.1c0.7-1.3,1.8-2,2.8-2c0.6,0,0.9,0.1,1.2,0.2l-0.5,2.5c-0.4-0.1-0.7-0.2-1.1-0.2
		c-0.7,0-1.7,0.5-2.2,1.8v5.8h-2.9V26z"/>
</g>
<g>
	<polygon fill="#FFFFFF" points="32.9,29.8 32.9,16 19.2,16 19.2,29.8 13.5,29.8 19.7,36.9 26,44 32.3,36.9 38.5,29.8 	"/>
</g>
</svg>
