<?xml version="1.0" encoding="utf-8"?>
<!-- Generator: Adobe Illustrator 17.1.0, SVG Export Plug-In . SVG Version: 6.00 Build 0)  -->
<!DOCTYPE svg PUBLIC "-//W3C//DTD SVG 1.1//EN" "http://www.w3.org/Graphics/SVG/1.1/DTD/svg11.dtd">
<svg version="1.1" id="Layer_1" xmlns="http://www.w3.org/2000/svg" xmlns:xlink="http://www.w3.org/1999/xlink" x="0px" y="0px"
	 viewBox="0 0 138.4 43" enable-background="new 0 0 138.4 43" xml:space="preserve">
<g>
	<path fill="#7E4798" d="M122.6,0H15.8C7,0,0,6.8,0,15.2v12.6C0,36.2,7,42.9,15.8,43h106.9c8.7,0,15.8-6.8,15.8-15.2V15.2
		C138.4,6.8,131.4,0,122.6,0z"/>
</g>
<g>
	<path fill="#FFFFFF" d="M44.2,15.8h3.3c3.6,0,5.9,1.8,5.9,5.8s-2.3,5.9-5.7,5.9h-3.5V15.8z M47.4,25.4c2,0,3.3-1,3.3-3.8
		s-1.4-3.7-3.3-3.7h-0.5v7.5H47.4z"/>
	<path fill="#FFFFFF" d="M59.3,18.4c2.3,0,4.3,1.7,4.3,4.7s-2.1,4.7-4.3,4.7c-2.3,0-4.4-1.7-4.4-4.7S57,18.4,59.3,18.4z M59.3,25.6
		c1.1,0,1.6-1,1.6-2.5c0-1.5-0.6-2.5-1.6-2.5c-1.1,0-1.6,1-1.6,2.5C57.7,24.6,58.2,25.6,59.3,25.6z"/>
	<path fill="#FFFFFF" d="M64.6,18.6h2.6l0.9,4.1c0.1,0.9,0.3,1.7,0.4,2.6h0.1c0.2-0.9,0.3-1.8,0.5-2.6l1-4.1h2.3l1,4.1
		c0.2,0.9,0.4,1.7,0.6,2.6H74c0.2-0.9,0.3-1.8,0.4-2.6l0.8-4.1h2.4l-2.1,8.9h-3.1l-0.8-3.6c-0.2-0.8-0.3-1.7-0.5-2.6h-0.1
		c-0.2,1-0.3,1.8-0.5,2.6l-0.8,3.6h-3L64.6,18.6z"/>
	<path fill="#FFFFFF" d="M79.3,18.6h2.2l0.2,1.1h0.1c0.8-0.7,1.7-1.3,2.9-1.3c1.9,0,2.8,1.4,2.8,3.6v5.5h-2.6v-5.2
		c0-1.3-0.3-1.7-1.1-1.7c-0.7,0-1.1,0.3-1.7,0.9v6h-2.6V18.6z"/>
	<path fill="#FFFFFF" d="M89.6,14.9h2.6v10c0,0.6,0.3,0.7,0.5,0.7c0.1,0,0.2,0,0.3,0l0.3,2c-0.3,0.1-0.7,0.2-1.3,0.2
		c-1.8,0-2.4-1.2-2.4-3V14.9z"/>
	<path fill="#FFFFFF" d="M98.5,18.4c2.3,0,4.3,1.7,4.3,4.7s-2.1,4.7-4.3,4.7c-2.3,0-4.4-1.7-4.4-4.7S96.3,18.4,98.5,18.4z
		 M98.5,25.6c1.1,0,1.6-1,1.6-2.5c0-1.5-0.6-2.5-1.6-2.5c-1.1,0-1.6,1-1.6,2.5C96.9,24.6,97.5,25.6,98.5,25.6z"/>
	<path fill="#FFFFFF" d="M109.2,21.8c-0.1-0.8-0.5-1.3-1.4-1.3c-0.8,0-1.5,0.3-2.4,0.8l-0.9-1.7c1.1-0.7,2.4-1.2,3.8-1.2
		c2.3,0,3.5,1.3,3.5,4v5.1h-2.2l-0.2-0.9h-0.1c-0.8,0.7-1.6,1.1-2.6,1.1c-1.6,0-2.6-1.2-2.6-2.7C104.2,23.1,105.7,22.1,109.2,21.8z
		 M107.7,25.7c0.6,0,1-0.3,1.5-0.8v-1.6c-1.9,0.3-2.5,0.8-2.5,1.5C106.7,25.4,107.1,25.7,107.7,25.7z"/>
	<path fill="#FFFFFF" d="M117.4,18.4c1,0,1.6,0.4,2.2,0.9l-0.1-1.4v-3h2.6v12.6h-2.2l-0.2-0.9h-0.1c-0.6,0.6-1.5,1.1-2.4,1.1
		c-2.2,0-3.7-1.8-3.7-4.7S115.5,18.4,117.4,18.4z M118,25.6c0.6,0,1-0.2,1.5-0.8v-3.7c-0.5-0.4-1-0.6-1.5-0.6
		c-0.8,0-1.6,0.8-1.6,2.5C116.4,24.8,117,25.6,118,25.6z"/>
</g>
<g>
	<polygon fill="#FFFFFF" points="31.6,23.1 31.6,11.2 19.7,11.2 19.7,23.1 14.8,23.1 20.2,29.2 25.7,35.4 31.1,29.2 36.5,23.1 	"/>
</g>
</svg>
