<?xml version="1.0" encoding="UTF-8"?>
<svg width="20px" height="20px" viewBox="0 0 20 20" version="1.1" xmlns="http://www.w3.org/2000/svg" xmlns:xlink="http://www.w3.org/1999/xlink">
    <!-- Generator: sketchtool 52.5 (67469) - http://www.bohemiancoding.com/sketch -->
    <title>4892B42B-AD2A-485C-B3A8-F4045EFC4353</title>
    <desc>Created with sketchtool.</desc>
    <g id="Symbols" stroke="none" stroke-width="1" fill="none" fill-rule="evenodd" opacity="0.6">
        <g id="Footer" transform="translate(-1075.000000, -364.000000)" fill="#FFFFFF" fill-rule="nonzero">
            <g id="span2">
                <g transform="translate(1020.000000, 118.000000)">
                    <g id="social-media" transform="translate(0.000000, 207.000000)">
                        <g id="linkedin-in" transform="translate(55.000000, 39.000000)">
                            <path d="M4.46770601,20 L0.329621381,20 L0.329621381,6.64732143 L4.46770601,6.64732143 L4.46770601,20 Z M2.39643653,4.82589286 C1.07349666,4.82589286 0,3.72767857 0,2.40178571 C0,1.07589286 1.07349666,0 2.39643653,0 C3.71937639,0 4.79287305,1.07589286 4.79287305,2.40178571 C4.79287305,3.72767857 3.71937639,4.82589286 2.39643653,4.82589286 Z M19.9554566,20 L15.8262806,20 L15.8262806,13.5 C15.8262806,11.9508929 15.7951002,9.96428571 13.674833,9.96428571 C11.5233853,9.96428571 11.1937639,11.6473214 11.1937639,13.3883929 L11.1937639,20 L7.06013363,20 L7.06013363,6.64732143 L11.0289532,6.64732143 L11.0289532,8.46875 L11.0868597,8.46875 C11.6391982,7.41964286 12.9888641,6.3125 15.0022272,6.3125 C19.1893096,6.3125 19.9599109,9.07589286 19.9599109,12.6651786 L19.9599109,20 L19.9554566,20 Z" id="Shape"></path>
                        </g>
                    </g>
                </g>
            </g>
        </g>
    </g>
</svg>