<?xml version="1.0" encoding="utf-8"?>
<!-- Generator: Adobe Illustrator 17.1.0, SVG Export Plug-In . SVG Version: 6.00 Build 0)  -->
<!DOCTYPE svg PUBLIC "-//W3C//DTD SVG 1.1//EN" "http://www.w3.org/Graphics/SVG/1.1/DTD/svg11.dtd">
<svg version="1.1" id="Layer_1" xmlns="http://www.w3.org/2000/svg" xmlns:xlink="http://www.w3.org/1999/xlink" x="0px" y="0px"
	 viewBox="0 0 95.7 95.9" enable-background="new 0 0 95.7 95.9" xml:space="preserve">
<g>
	<g>
		<circle fill="#036EB1" cx="47.9" cy="47.9" r="47.9"/>
	</g>
	<g>
		<g>
			<g id="layer3_19_" transform="translate(-92,-63.999774)">
				<g id="layer5_19_">
					<g id="path2554_33_">
						<path fill="#68B044" d="M144.1,79.3l-2.3,9.2c3.3-6.5,8.5-11.4,14.5-15.7c-4.4,5.1-8.4,10.2-10.8,15.2
							c4.1-5.8,9.6-9,15.9-11.1c-8.3,7.4-14.9,15.3-19.9,23.3l-4-1.7C138.1,92.2,140.5,85.6,144.1,79.3L144.1,79.3z"/>
					</g>
					<g id="path2534_12_">
						<path fill="#F5F8DE" d="M133.4,96.8l7.6,3.1c0,1.9-0.2,7.8,1,9.6c12.6,16.3,10.5,48.8-2.6,49.7c-19.9,0-27.5-13.5-27.5-25.9
							c0-11.3,13.6-18.8,21.7-25.5C135.8,106,135.4,102,133.4,96.8L133.4,96.8z"/>
					</g>
					<g id="path2536_20_">
						<path fill="#7E4798" d="M141,99.9l2.7,1.4c-0.3,1.8,0.1,5.8,1.9,6.8c8,5,15.5,10.4,18.5,15.8c10.5,19-7.4,36.7-22.9,35
							c8.4-6.2,10.9-19,7.7-33c-1.3-5.5-3.3-10.4-6.8-16C140.6,107.1,141.1,103.7,141,99.9L141,99.9z"/>
					</g>
				</g>
				<g id="layer4_19_">
					<g id="path2540_20_">
						<path fill="#010101" d="M138,108.9c-0.6,3-1.2,8.3-3.8,10.3c-1.1,0.8-2.2,1.5-3.3,2.3c-4.6,3.2-9.3,6.1-11.4,13.7
							c-0.5,1.6-0.1,3.3,0.3,5c1.2,4.6,4.4,9.6,7,12.6c0,0.1,0.5,0.5,0.5,0.6c2.1,2.5,2.8,3.2,10.8,5l-0.2,0.9
							c-4.8-1.3-8.8-2.4-11.3-5.3c0-0.1-0.5-0.5-0.5-0.5c-2.7-3.1-6-8.2-7.2-13.1c-0.5-1.9-0.8-3.4-0.3-5.4
							c2.2-7.8,6.9-10.9,11.8-14.2c1.1-0.7,2.4-1.4,3.4-2.2C135.8,117.1,136.9,112.6,138,108.9L138,108.9z"/>
					</g>
					<g id="path2542_20_">
						<path fill="#010101" d="M140,121.3c0.1,3.3-0.3,5,0.6,7.4c0.5,1.4,2.3,3.3,2.8,5.2c0.7,2.5,1.5,5.3,1.4,6.9
							c0,1.9-0.1,5.5-1,9.4c-0.6,3.2-2.1,5.9-4.6,7.5c-2.5-0.5-5.5-1.4-7.3-2.9c-3.4-3-6.4-7.9-6.8-12.2c-0.3-3.5,3-8.8,7.5-11.4
							c3.9-2.3,4.8-4.8,5.6-8.9c-1.2,3.6-2.2,6.6-6,8.6c-5.4,2.8-8.2,7.6-7.9,12.1c0.4,5.8,2.7,9.7,7.3,12.9
							c1.9,1.4,5.5,2.8,7.8,3.2v-0.3c1.7-0.3,3.9-3.1,5-6.9c1-3.4,1.3-7.8,1.3-10.5c-0.1-1.6-0.8-5.1-2.1-8.2
							c-0.7-1.7-1.8-3.5-2.5-4.7C140.4,127,140.4,124.4,140,121.3z"/>
					</g>
					<g id="path2544_20_">
						<path fill="#010101" d="M139.4,134.5c0.1,2.3,1,5.1,1.4,8.1c0.3,2.2,0.2,4.4,0.1,6.3c-0.1,2.2-0.8,6.2-1.8,8.2
							c-1-0.4-1.3-0.9-2-1.8c-0.8-1.1-1.3-2.2-1.8-3.5c-0.4-1-0.8-2.1-1-3.4c-0.3-1.9-0.2-4.9,2-8c1.7-2.4,2.1-2.6,2.6-5.5
							c-0.8,2.5-1.3,2.8-3.1,4.9c-2,2.3-2.3,5.7-2.3,8.5c0,1.2,0.5,2.4,0.9,3.7c0.5,1.3,1,2.6,1.7,3.5c1.1,1.6,2.4,2.5,3.1,2.6
							c0,0,0,0,0,0c0,0,0,0,0,0v-0.1c1.2-1.4,2-2.8,2.3-4.2c0.3-1.7,0.4-3.3,0.6-5.3c0.2-1.7,0.1-3.9-0.4-6.2
							C141,139.5,139.9,136.5,139.4,134.5L139.4,134.5z"/>
					</g>
					<g id="path2550_20_">
						<path fill="#010101" d="M139.8,106.2c0.1,3.3,0.3,9.6,1.2,12c0.3,0.8,2.6,4.5,4.3,8.9c1.2,3.1,1.4,5.9,1.6,6.8
							c0.8,3.7-0.2,9.8-1.5,15.7c-0.6,3.2-2.8,7.1-5.3,8.6l-0.5,0.9c1.4-0.1,4.9-3.5,6.1-7.7c2.1-7.2,2.9-10.5,1.9-18.5
							c-0.1-0.8-0.5-3.4-1.7-6.2c-1.8-4.3-4.4-8.4-4.7-9.3C140.7,116.1,139.9,110.2,139.8,106.2L139.8,106.2z"/>
					</g>
					<g id="path2552_20_">
						<path fill="#010101" d="M141,100.2c-0.2,3.4-0.2,6.2,0.4,8.7c0.7,2.8,4.3,6.8,5.8,11.3c2.8,8.7,2.1,20.2,0.1,29.1
							c-0.8,3.2-4.4,7.7-8.1,9.2l2.7,0.6c1.5-0.1,5.3-3.6,6.8-7.7c2.4-6.4,2.8-14,1.9-21.9c-0.1-0.8-1.4-7.7-2.6-10.5
							c-1.7-4.3-4.5-7.3-5.5-10c-0.7-2-1-7.3-0.6-8.4L141,100.2z"/>
					</g>
				</g>
			</g>
		</g>
		<g>
			<path fill="#010101" d="M68.1,53c-2.8-2.5-6.2-4.6-9.8-6.6c-1.6-0.9-6.6-4.8-4.9-10.3L40.8,31L40,31.7c4.2,7.5,2,11.5-0.1,12.9
				c-4.2,2.9-10.3,6.5-13.3,9.6c-5.9,6-7.5,11.7-7,19.2c0.6,9.6,7.6,17.7,17,20.8c4.1,1.4,7.9,1.5,12.2,1.5c6.8,0,13.8-1.8,18.9-6
				c5.4-4.5,8.6-11.3,8.6-18.3C76.2,64.5,73.3,57.8,68.1,53z M66.2,88.3c-4.6,3.9-13.1,6.5-17.6,6.3c-5-0.3-9.8-1.1-14.1-3.2
				C27,87.8,22,79.9,21.7,73.5C21,60.4,27.3,56.6,33.1,51.9c3.3-2.7,7.8-4,10.4-8.7c0.5-1,0.8-3.3,0.2-5.7c-0.3-0.8-1.5-3.7-1.9-4.4
				l9.4,4.1c-1.2,4.3,2.4,8.8,5.2,10.4c2.8,1.6,7.4,4.6,10.2,7.1c4.8,4.3,7.4,10.4,7.4,16.9C73.9,77.9,71.2,84.1,66.2,88.3z"/>
		</g>
	</g>
</g>
</svg>
