<?xml version="1.0" encoding="utf-8"?>
<!-- Generator: Adobe Illustrator 17.1.0, SVG Export Plug-In . SVG Version: 6.00 Build 0)  -->
<!DOCTYPE svg PUBLIC "-//W3C//DTD SVG 1.1//EN" "http://www.w3.org/Graphics/SVG/1.1/DTD/svg11.dtd">
<svg version="1.1" id="Layer_1" xmlns="http://www.w3.org/2000/svg" xmlns:xlink="http://www.w3.org/1999/xlink" x="0px" y="0px"
	 viewBox="0 0 361.4 84.1" enable-background="new 0 0 361.4 84.1" xml:space="preserve">
<g>
	<g id="layer1_3_" transform="translate(0,-910.62992)" inkscape:label="Layer 1" inkscape:groupmode="layer">
		<g id="rect3940_4_">
			<g>
				<path fill="#68B044" d="M30.9,910.6C13.8,910.6,0,923.9,0,940.3v24.7c0,16.5,13.8,29.5,30.9,29.7h81.8v-84.1H30.9z M116,910.6
					v84.1h214.5c17.1,0,30.9-13.2,30.9-29.7v-24.7c0-16.5-13.8-29.7-30.9-29.7H116z"/>
			</g>
		</g>
	</g>
	<g>
		<path fill="#FFFFFF" d="M136.9,22.7h4.3c5.3,0,8.2,3.1,8.2,8.5c0,5.5-2.8,8.7-8,8.7h-4.4V22.7z M141.1,38.2c4,0,6-2.6,6-6.9
			c0-4.3-2-6.8-6-6.8h-1.9v13.7H141.1z"/>
		<path fill="#FFFFFF" d="M157.9,26.9c3.1,0,5.9,2.4,5.9,6.7c0,4.2-2.8,6.7-5.9,6.7s-5.9-2.4-5.9-6.7
			C151.9,29.3,154.7,26.9,157.9,26.9z M157.9,38.5c2.2,0,3.7-2,3.7-4.9c0-2.9-1.5-4.9-3.7-4.9c-2.2,0-3.7,2-3.7,4.9
			C154.2,36.5,155.7,38.5,157.9,38.5z"/>
		<path fill="#FFFFFF" d="M165.5,27.2h2.2l1.9,7.4c0.3,1.2,0.5,2.4,0.8,3.5h0.1c0.3-1.2,0.6-2.4,0.9-3.5l2-7.4h2.1l2,7.4
			c0.3,1.2,0.6,2.4,0.9,3.5h0.1c0.3-1.2,0.5-2.3,0.8-3.5l1.9-7.4h2.1L179.7,40h-2.6l-1.8-6.9c-0.3-1.2-0.6-2.4-0.9-3.7h-0.1
			c-0.3,1.3-0.6,2.5-0.9,3.7l-1.8,6.8h-2.5L165.5,27.2z"/>
		<path fill="#FFFFFF" d="M185.9,27.2h1.8l0.2,1.8h0.1c1.2-1.2,2.5-2.2,4.3-2.2c2.7,0,3.9,1.7,3.9,5V40H194v-7.8
			c0-2.4-0.7-3.4-2.4-3.4c-1.3,0-2.2,0.7-3.5,2V40h-2.2V27.2z"/>
		<path fill="#FFFFFF" d="M200.3,21.2h2.2v16.3c0,0.7,0.3,0.9,0.6,0.9c0.1,0,0.2,0,0.5-0.1l0.3,1.6c-0.3,0.1-0.7,0.2-1.2,0.2
			c-1.6,0-2.3-1-2.3-2.9V21.2z"/>
		<path fill="#FFFFFF" d="M212,26.9c3.1,0,5.9,2.4,5.9,6.7c0,4.2-2.8,6.7-5.9,6.7s-5.9-2.4-5.9-6.7C206.1,29.3,208.8,26.9,212,26.9z
			 M212,38.5c2.2,0,3.7-2,3.7-4.9c0-2.9-1.5-4.9-3.7-4.9c-2.2,0-3.7,2-3.7,4.9C208.3,36.5,209.8,38.5,212,38.5z"/>
		<path fill="#FFFFFF" d="M228.1,31.9c0-1.6-0.6-3.2-2.6-3.2c-1.5,0-2.8,0.7-3.8,1.4l-0.9-1.5c1.2-0.8,3-1.7,5-1.7
			c3.1,0,4.4,2.1,4.4,5.3V40h-1.8l-0.2-1.5h-0.1c-1.2,1-2.7,1.8-4.2,1.8c-2.2,0-3.8-1.3-3.8-3.6C220.3,33.9,222.7,32.5,228.1,31.9z
			 M224.6,38.5c1.2,0,2.3-0.6,3.5-1.7v-3.5c-4.3,0.5-5.7,1.6-5.7,3.2C222.4,37.9,223.4,38.5,224.6,38.5z"/>
		<path fill="#FFFFFF" d="M239,26.9c1.5,0,2.4,0.6,3.6,1.5l-0.1-2.2v-4.9h2.2V40h-1.8l-0.2-1.5h-0.1c-1,1-2.4,1.8-3.9,1.8
			c-3.2,0-5.3-2.4-5.3-6.7C233.4,29.4,236.1,26.9,239,26.9z M239.2,38.5c1.2,0,2.2-0.6,3.3-1.8V30c-1.1-1-2.1-1.3-3.1-1.3
			c-2.1,0-3.7,2-3.7,4.9C235.7,36.6,237,38.5,239.2,38.5z"/>
		<path fill="#FFFFFF" d="M140,49.3h-4.7V46h13.3v3.3h-4.7v13.9H140V49.3z"/>
		<path fill="#FFFFFF" d="M154.5,49.8c3.3,0,6.3,2.5,6.3,6.8s-3,6.8-6.3,6.8c-3.3,0-6.4-2.5-6.4-6.8S151.2,49.8,154.5,49.8z
			 M154.5,60.4c1.6,0,2.4-1.4,2.4-3.7c0-2.3-0.8-3.7-2.4-3.7c-1.6,0-2.4,1.4-2.4,3.7C152.1,58.9,152.9,60.4,154.5,60.4z"/>
		<path fill="#FFFFFF" d="M163.5,50.1h3.2l0.3,2.3h0.1c0.9-1.8,2.4-2.6,3.7-2.6c0.7,0,1.2,0.1,1.6,0.3l-0.6,3.3
			c-0.5-0.1-0.9-0.2-1.4-0.2c-1,0-2.2,0.6-2.9,2.4v7.6h-3.9V50.1z"/>
		<path fill="#FFFFFF" d="M179.8,46h5.9c3.6,0,6.3,1,6.3,4.3c0,1.5-0.9,3.2-2.9,3.7v0.1c2.4,0.4,3.7,1.7,3.7,4c0,3.5-2.9,5-6.7,5
			h-6.4V46z M185.4,52.9c1.9,0,2.7-0.8,2.7-2.1s-0.9-1.8-2.7-1.8h-1.8v3.9H185.4z M185.8,60.2c2.1,0,3.2-0.8,3.2-2.3
			c0-1.5-1.1-2.2-3.2-2.2h-2.2v4.5H185.8z"/>
		<path fill="#FFFFFF" d="M195.4,50.1h3.2l0.3,2.3h0.1c0.9-1.8,2.4-2.6,3.7-2.6c0.7,0,1.2,0.1,1.6,0.3l-0.6,3.3
			c-0.5-0.1-0.9-0.2-1.4-0.2c-1,0-2.2,0.6-2.9,2.4v7.6h-3.9V50.1z"/>
		<path fill="#FFFFFF" d="M211.2,49.8c3.3,0,6.3,2.5,6.3,6.8s-3,6.8-6.3,6.8c-3.3,0-6.4-2.5-6.4-6.8S207.8,49.8,211.2,49.8z
			 M211.2,60.4c1.6,0,2.4-1.4,2.4-3.7c0-2.3-0.8-3.7-2.4-3.7c-1.6,0-2.4,1.4-2.4,3.7C208.8,58.9,209.6,60.4,211.2,60.4z"/>
		<path fill="#FFFFFF" d="M218.9,50.1h3.8l1.3,6c0.2,1.3,0.4,2.5,0.6,3.9h0.1c0.2-1.3,0.4-2.6,0.8-3.9l1.4-6h3.3l1.5,6
			c0.3,1.3,0.6,2.5,0.8,3.9h0.1c0.2-1.3,0.4-2.6,0.6-3.9l1.2-6h3.6l-3.1,13h-4.5l-1.2-5.2c-0.3-1.2-0.5-2.4-0.7-3.8h-0.1
			c-0.2,1.4-0.4,2.6-0.7,3.8l-1.2,5.2h-4.4L218.9,50.1z"/>
		<path fill="#FFFFFF" d="M240.9,59.2c1.2,0.9,2.3,1.4,3.4,1.4c1.2,0,1.7-0.4,1.7-1.1c0-0.9-1.3-1.3-2.7-1.8
			c-1.6-0.6-3.4-1.7-3.4-3.8c0-2.4,2-4.1,5-4.1c2,0,3.5,0.8,4.6,1.7l-1.7,2.3c-0.9-0.7-1.8-1.1-2.8-1.1c-1,0-1.5,0.4-1.5,1
			c0,0.8,1.2,1.2,2.5,1.7c1.7,0.6,3.5,1.5,3.5,3.9c0,2.4-1.9,4.2-5.4,4.2c-1.7,0-3.7-0.7-5-1.8L240.9,59.2z"/>
		<path fill="#FFFFFF" d="M257.4,49.8c3.7,0,5.5,2.7,5.5,6.3c0,0.7-0.1,1.3-0.2,1.6H255c0.3,2,1.7,2.8,3.4,2.8c1,0,1.9-0.3,2.8-0.9
			l1.3,2.3c-1.3,0.9-3.1,1.5-4.6,1.5c-3.7,0-6.6-2.5-6.6-6.8C251.2,52.4,254.3,49.8,257.4,49.8z M259.7,55.3c0-1.5-0.6-2.6-2.2-2.6
			c-1.2,0-2.3,0.8-2.5,2.6H259.7z"/>
		<path fill="#FFFFFF" d="M265.6,50.1h3.2l0.3,2.3h0.1c0.9-1.8,2.4-2.6,3.7-2.6c0.7,0,1.2,0.1,1.6,0.3l-0.6,3.3
			c-0.5-0.1-0.9-0.2-1.4-0.2c-1,0-2.2,0.6-2.9,2.4v7.6h-3.9V50.1z"/>
	</g>
	<g>
		<g>
			<g>
				<path fill="#FFFFFF" d="M63.8,54.5c0-0.8-0.3-2.1-0.7-3.3c-0.2-0.9-1.1-1.8-1.3-2.4c-0.4-1.1-0.2-1.9-0.3-3.5
					c0.2,1.4,0.2,2.7,0.5,3.3c0.3,0.6,0.8,1.4,1.2,2.2c0.6,1.5,0.9,3.1,1,3.9c0,1.3-0.1,3.3-0.6,4.9c-0.2,0.6-0.4,1.1-0.7,1.6
					c0.6-0.8,1-1.8,1.1-2.6c0.6-2.7,1.1-5.6,0.7-7.3c-0.1-0.4-0.2-1.7-0.8-3.2c-0.8-2.1-1.9-3.8-2-4.2c-0.4-1.1-0.5-4.1-0.6-5.6
					c0.1,1.9,0.4,4.6,0.7,5.2c0.2,0.4,1.4,2.3,2.2,4.3c0.6,1.3,0.7,2.6,0.8,2.9c0.5,3.7,0.1,5.3-0.9,8.7c-0.1,0.5-0.3,0.9-0.6,1.4
					c0.7-0.8,1.1-1.6,1.3-2.4c1-4.2,1.3-9.5,0-13.6c-0.7-2.1-2.3-4-2.7-5.3c-0.5-1.5-0.1-4-0.1-4l-3.6-1.6c0.9,2.4,1.1,4.3,0.1,5.1
					c-3.8,3.1-10.1,6.7-10.1,11.9c0,5.6,3.3,11.6,11.8,12.1c-1-0.3-2-0.6-2.8-0.9c-0.9-0.4-1.6-0.8-2.2-1.5c0,0-0.2-0.2-0.2-0.2
					c-1.3-1.4-2.8-3.9-3.4-6.1c-0.2-0.9-0.4-1.6-0.2-2.5c1-3.7,3.3-5.1,5.5-6.7c0.5-0.3,1.1-0.6,1.6-1c0.9-0.7,1.4-2.8,2-4.5
					c-0.3,1.4-0.6,3.9-1.8,4.8c-0.5,0.4-1,0.7-1.6,1.1c-2.2,1.5-4.3,2.9-5.3,6.4c-0.2,0.8,0,1.6,0.2,2.3c0.5,2.2,2.1,4.5,3.3,5.9
					c0,0.1,0.2,0.2,0.2,0.3c0.8,1,1.2,1.4,3.3,1.9c-0.5-0.3-0.9-0.6-1.2-0.8c-2.1-1.5-3.2-3.3-3.4-6c-0.1-2.1,1.2-4.3,3.7-5.7
					c1.7-0.9,2.3-2.3,2.8-4c-0.4,1.9-0.8,3.1-2.6,4.2c-2.1,1.2-3.7,3.7-3.5,5.3c0.2,2,1.6,4.3,3.2,5.7c0.7,0.6,1.7,0.9,2.7,1.2
					c-0.3-0.2-0.5-0.5-0.8-0.8c-0.3-0.5-0.5-1.1-0.8-1.7c-0.2-0.6-0.4-1.2-0.4-1.7c0-1.3,0.2-2.9,1.1-4c0.8-1,1.1-1.1,1.5-2.3
					c-0.3,1.3-0.5,1.4-1.2,2.6c-1,1.4-1.1,2.9-0.9,3.8c0.1,0.6,0.3,1.1,0.5,1.6c0.2,0.6,0.5,1.1,0.8,1.6c0.3,0.4,0.5,0.6,0.9,0.8
					c0.5-0.9,0.8-2.8,0.9-3.8c0-0.9,0.1-1.9-0.1-3c-0.2-1.4-0.6-2.7-0.6-3.8c0.2,1,0.7,2.3,1,3.7c0.2,1.1,0.3,2.1,0.2,2.9
					c-0.1,0.9-0.1,1.7-0.3,2.5c-0.1,0.5-0.4,1.1-0.8,1.6c1-0.7,1.6-1.9,1.9-3.3C63.7,57,63.8,55.4,63.8,54.5z"/>
			</g>
			<g>
				<path fill="#FFFFFF" d="M72.8,46.5c-1.4-2.5-4.9-5.1-8.6-7.4c-0.8-0.5-1-2.3-0.9-3.2l-0.9-0.4c0,0-0.3,2.2,0.3,4
					c0.4,1.3,1.7,2.7,2.6,4.7c0.6,1.4,1.2,4.6,1.2,4.9c0.5,3.7,0.2,7.3-0.9,10.3c-0.5,1.4-1.6,2.6-2.4,3.2c-0.1,0.1-0.3,0.2-0.4,0.3
					C69.8,63.1,77.6,55.1,72.8,46.5z"/>
			</g>
		</g>
		<g>
			<path fill="#FFFFFF" d="M71.4,24.5c-2.9,1-5.5,2.5-7.4,5.2c1.1-2.4,3-4.8,5.1-7.1c-2.8,2-5.2,4.3-6.8,7.3l1.1-4.3
				c-1.7,2.9-2.8,6-3.1,9l1.9,0.8C64.4,31.7,67.5,28,71.4,24.5z"/>
		</g>
		<g>
			<polygon fill="#FFFFFF" points="61.3,51.5 61.3,51.5 61.3,51.5 			"/>
		</g>
		<g>
			<path fill="#FFFFFF" d="M53,35.4v-7.1c0-0.9-0.8-1.7-1.7-1.7H27.2c-0.9,0-1.7,0.8-1.7,1.7v7.1c0,0.9,0.8,1.7,1.7,1.7h5.5
				c0.5,0,1.2,0.4,1.2,1.1v23.6c0,0.8,0.6,1.4,1.4,1.4h8.2c0.8,0,1.4-0.6,1.4-1.4V38.4c0-0.7,0.5-1.4,1.6-1.4h5
				C52.2,37.1,53,36.3,53,35.4z"/>
		</g>
		<g>
			<path fill="#FFFFFF" d="M92.7,45v-7.6c0-0.8-0.6-1.4-1.4-1.4h-2.1c-0.3,0-0.9,0-1.1,0.1c-5.4,0.5-9.7,4.9-10.1,10.4
				c0,0.2,0,0.6,0,0.8V62c0,0.6,0.6,1.1,1.3,1.1h7.7c0.7,0,1.3-0.5,1.3-1.1V49.1c0-1.4,1.1-2.6,3.5-2.6C92.8,46.4,92.7,46,92.7,45z"
				/>
		</g>
	</g>
	<g>
		<polygon fill="#FFFFFF" points="324.1,42.9 324.1,23.3 304.6,23.3 304.6,42.9 296.5,42.9 305.4,53 314.3,63 323.2,53 332.1,42.9 
					"/>
	</g>
</g>
</svg>
