<?xml version="1.0" encoding="UTF-8"?>
<svg width="20px" height="20px" viewBox="0 0 20 20" version="1.1" xmlns="http://www.w3.org/2000/svg" xmlns:xlink="http://www.w3.org/1999/xlink">
    <!-- Generator: sketchtool 52.5 (67469) - http://www.bohemiancoding.com/sketch -->
    <title>1FA6A4EC-B363-4D6D-BA70-6D2B78E22640</title>
    <desc>Created with sketchtool.</desc>
    <g id="Symbols" stroke="none" stroke-width="1" fill="none" fill-rule="evenodd" opacity="0.6">
        <g id="Footer" transform="translate(-1075.000000, -325.000000)" fill="#FFFFFF" fill-rule="nonzero">
            <g id="span2">
                <g transform="translate(1020.000000, 118.000000)">
                    <g id="social-media" transform="translate(0.000000, 207.000000)">
                        <g id="mastodont" transform="translate(55.000000, 0.000000)">
                            <path d="M19.7668874,3.46900752 C19.504455,3.41358252 19.2252026,3.38566815 18.9290237,3.38566815 C17.7627558,3.38566815 16.8798845,3.79439929 16.2961281,4.61214552 L15.7285568,5.48014907 L15.16083,4.61214552 C14.5772291,3.79439929 13.6942022,3.38566815 12.52809,3.38566815 C11.5204059,3.38566815 10.7085004,3.70879148 10.0884829,4.33913753 C9.48729625,4.96962555 9.18802576,5.82172848 9.18802576,6.89402662 L9.18802576,12.1406637 L11.466559,12.1406637 L11.466559,7.04820586 C11.466559,5.97462999 11.9617637,5.42989175 12.9521732,5.42989175 C14.0470083,5.42989175 14.5959044,6.07628039 14.5959044,7.35429281 L14.5959044,10.1415865 L16.8610537,10.1415865 L16.8610537,7.35429281 C16.8610537,6.07628039 17.4099497,5.42989175 18.5047848,5.42989175 C19.4951943,5.42989175 19.9903991,5.97462999 19.9903991,7.04820586 L19.9903991,11.9693312 C19.9900362,11.9710337 19.9896731,11.9727398 19.9893097,11.9744454 C19.6889498,13.383496 17.3003884,14.9254303 14.556842,15.2242768 C13.1261641,15.3801597 11.7177408,15.5231233 10.2157857,15.4603727 C7.75937096,15.3577285 5.82119374,14.9254303 5.82119374,14.9254303 C5.82119374,15.143638 5.83597829,15.3513398 5.86539177,15.5455546 C6.18473814,17.7568767 8.26920463,17.8894765 10.2436429,17.9512334 C12.2364452,18.0134161 14.0107473,17.5028926 14.0107473,17.5028926 L14.0927626,19.1466193 C14.0927626,19.1466193 12.6988126,19.8293523 10.2157857,19.9548536 C8.84642474,20.023567 7.14635666,19.9234783 5.16600455,19.4454658 C0.871325046,18.4083762 0.132719852,14.2321917 0.0197347337,9.99467613 C-0.0148144347,8.73653949 0.00650644847,7.5500976 0.00650644847,6.55801242 C0.00650644847,2.22480923 3.11857726,0.954747116 3.11857726,0.954747116 C4.68776314,0.297284827 7.38041949,0.0208695652 10.1796803,0 L10.2484673,0 C13.0477281,0.0208695652 15.7420964,0.297284827 17.3112822,0.954747116 C17.3112822,0.954747116 18.853806,1.58426396 19.7668874,3.46900752 Z M4.31491225,5.507748 C4.31491225,6.13837799 4.87548028,6.64975333 5.5667749,6.64975333 C6.25822515,6.64975333 6.81863756,6.13837799 6.81863756,5.507748 C6.81863756,4.87697604 6.25822515,4.36574268 5.5667749,4.36574268 C4.87548028,4.36574268 4.31491225,4.87697604 4.31491225,5.507748 Z" id="Shape"></path>
                        </g>
                    </g>
                </g>
            </g>
        </g>
    </g>
</svg>