<?xml version="1.0" encoding="UTF-8"?>
<svg width="20px" height="20px" viewBox="0 0 20 20" version="1.1" xmlns="http://www.w3.org/2000/svg" xmlns:xlink="http://www.w3.org/1999/xlink">
    <!-- Generator: sketchtool 52.5 (67469) - http://www.bohemiancoding.com/sketch -->
    <title>E19A5313-E9FF-463A-BB3B-8EDD62B053A9</title>
    <desc>Created with sketchtool.</desc>
    <g id="Symbols" stroke="none" stroke-width="1" fill="none" fill-rule="evenodd" opacity="0.6">
        <g id="Footer" transform="translate(-1020.000000, -364.000000)" fill="#FFFFFF" fill-rule="nonzero">
            <g id="span2">
                <g transform="translate(1020.000000, 118.000000)">
                    <g id="social-media" transform="translate(0.000000, 207.000000)">
                        <g id="instagram" transform="translate(0.000000, 39.000000)">
                            <path d="M10.0044444,4.89977728 C7.17777778,4.89977728 4.89777778,7.18485523 4.89777778,10.0178174 C4.89777778,12.8507795 7.17777778,15.1358575 10.0044444,15.1358575 C12.8311111,15.1358575 15.1111111,12.8507795 15.1111111,10.0178174 C15.1111111,7.18485523 12.8311111,4.89977728 10.0044444,4.89977728 Z M10.0044444,13.3452116 C8.17777778,13.3452116 6.68444444,11.8530067 6.68444444,10.0178174 C6.68444444,8.18262806 8.17333333,6.69042316 10.0044444,6.69042316 C11.8355556,6.69042316 13.3244444,8.18262806 13.3244444,10.0178174 C13.3244444,11.8530067 11.8311111,13.3452116 10.0044444,13.3452116 Z M16.5111111,4.69042316 C16.5111111,5.35412027 15.9777778,5.88418708 15.32,5.88418708 C14.6577778,5.88418708 14.1288889,5.34966592 14.1288889,4.69042316 C14.1288889,4.0311804 14.6622222,3.49665924 15.32,3.49665924 C15.9777778,3.49665924 16.5111111,4.0311804 16.5111111,4.69042316 Z M19.8933333,5.90200445 C19.8177778,4.30289532 19.4533333,2.88641425 18.2844444,1.71937639 C17.12,0.55233853 15.7066667,0.187082405 14.1111111,0.106904232 C12.4666667,0.013363029 7.53777778,0.013363029 5.89333333,0.106904232 C4.30222222,0.182628062 2.88888889,0.547884187 1.72,1.71492205 C0.551111111,2.88195991 0.191111111,4.29844098 0.111111111,5.89755011 C0.0177777778,7.54565702 0.0177777778,12.4855234 0.111111111,14.1336303 C0.186666667,15.7327394 0.551111111,17.1492205 1.72,18.3162584 C2.88888889,19.4832962 4.29777778,19.8485523 5.89333333,19.9287305 C7.53777778,20.0222717 12.4666667,20.0222717 14.1111111,19.9287305 C15.7066667,19.8530067 17.12,19.4877506 18.2844444,18.3162584 C19.4488889,17.1492205 19.8133333,15.7327394 19.8933333,14.1336303 C19.9866667,12.4855234 19.9866667,7.55011136 19.8933333,5.90200445 Z M17.7688889,15.9020045 C17.4222222,16.7750557 16.7511111,17.4476615 15.8755556,17.7995546 C14.5644444,18.3207127 11.4533333,18.2004454 10.0044444,18.2004454 C8.55555556,18.2004454 5.44,18.3162584 4.13333333,17.7995546 C3.26222222,17.4521158 2.59111111,16.77951 2.24,15.9020045 C1.72,14.5879733 1.84,11.4699332 1.84,10.0178174 C1.84,8.56570156 1.72444444,5.44320713 2.24,4.13363029 C2.58666667,3.26057906 3.25777778,2.58797327 4.13333333,2.23608018 C5.44444444,1.71492205 8.55555556,1.83518931 10.0044444,1.83518931 C11.4533333,1.83518931 14.5688889,1.71937639 15.8755556,2.23608018 C16.7466667,2.58351893 17.4177778,3.25612472 17.7688889,4.13363029 C18.2888889,5.44766147 18.1688889,8.56570156 18.1688889,10.0178174 C18.1688889,11.4699332 18.2888889,14.5924276 17.7688889,15.9020045 Z" id="Shape"></path>
                        </g>
                    </g>
                </g>
            </g>
        </g>
    </g>
</svg>