<?xml version="1.0" encoding="utf-8"?>
<!-- Generator: Adobe Illustrator 17.1.0, SVG Export Plug-In . SVG Version: 6.00 Build 0)  -->
<!DOCTYPE svg PUBLIC "-//W3C//DTD SVG 1.1//EN" "http://www.w3.org/Graphics/SVG/1.1/DTD/svg11.dtd">
<svg version="1.1" id="Layer_1" xmlns="http://www.w3.org/2000/svg" xmlns:xlink="http://www.w3.org/1999/xlink" x="0px" y="0px"
	 viewBox="0 0 147.5 203.5" enable-background="new 0 0 147.5 203.5" xml:space="preserve">
<g>
	<g>
		<path fill="#FFFFFF" d="M134.1,10H13.4c-1.9,0-3.4,1.5-3.4,3.4v176.7c0,1.9,1.5,3.4,3.4,3.4h120.7c1.9,0,3.4-1.5,3.4-3.4V13.4
			C137.5,11.5,136,10,134.1,10z"/>
	</g>
	<path fill="#804099" d="M134.1,0H13.4C6,0,0,6,0,13.4v176.7c0,7.4,6,13.4,13.4,13.4h120.7c7.4,0,13.4-6,13.4-13.4V13.4
		C147.5,6,141.5,0,134.1,0z M13.4,10h120.7c1.9,0,3.4,1.5,3.4,3.4v129H10v-129C10,11.5,11.5,10,13.4,10z"/>
	<g>
		<path fill="#7E4798" d="M30.7,121.5h3.5c2.3,0,3.9,0.8,3.9,3.2c0,2.3-1.7,3.4-3.9,3.4h-1.7v3.8h-1.8V121.5z M34,126.6
			c1.6,0,2.3-0.6,2.3-1.9c0-1.3-0.8-1.7-2.3-1.7h-1.5v3.6H34z"/>
		<path fill="#7E4798" d="M39.5,126.7c0-3.3,1.9-5.3,4.6-5.3c2.7,0,4.6,2,4.6,5.3c0,3.4-1.9,5.4-4.6,5.4
			C41.4,132.1,39.5,130,39.5,126.7z M46.8,126.7c0-2.3-1.1-3.7-2.7-3.7c-1.6,0-2.7,1.4-2.7,3.7c0,2.3,1.1,3.8,2.7,3.8
			C45.7,130.5,46.8,129,46.8,126.7z"/>
		<path fill="#7E4798" d="M49.6,121.5h1.9l0.9,5.2c0.2,1.1,0.3,2.2,0.5,3.3H53c0.2-1.1,0.4-2.2,0.7-3.3l1.3-5.2h1.6l1.3,5.2
			c0.2,1.1,0.5,2.2,0.7,3.3h0.1c0.2-1.1,0.3-2.2,0.5-3.3l0.9-5.2h1.8l-2,10.4h-2.3l-1.3-5.5c-0.2-0.8-0.3-1.6-0.5-2.4h-0.1
			c-0.1,0.8-0.3,1.6-0.5,2.4l-1.3,5.5h-2.3L49.6,121.5z"/>
		<path fill="#7E4798" d="M63.3,121.5h6.2v1.6h-4.4v2.7h3.7v1.6h-3.7v3.1h4.6v1.6h-6.4V121.5z"/>
		<path fill="#7E4798" d="M77.4,131.9l-2.2-4.1h-1.6v4.1h-1.8v-10.4h3.5c2.2,0,3.8,0.8,3.8,3.1c0,1.6-0.8,2.5-2.1,3l2.5,4.3H77.4z
			 M73.6,126.4H75c1.4,0,2.2-0.6,2.2-1.8c0-1.2-0.8-1.6-2.2-1.6h-1.5V126.4z"/>
		<path fill="#7E4798" d="M81.2,121.5h6.2v1.6H83v2.7h3.7v1.6H83v3.1h4.6v1.6h-6.4V121.5z"/>
		<path fill="#7E4798" d="M89.7,121.5h2.8c3.2,0,5.1,1.7,5.1,5.1c0,3.4-1.9,5.2-5,5.2h-2.9V121.5z M92.3,130.4
			c2.1,0,3.3-1.2,3.3-3.7c0-2.5-1.2-3.7-3.3-3.7h-0.8v7.4H92.3z"/>
		<path fill="#7E4798" d="M102.8,121.5h3.3c2.1,0,3.7,0.7,3.7,2.6c0,1-0.6,1.9-1.8,2.3v0.1c1.5,0.3,2.3,1.1,2.3,2.5c0,2.1-1.7,3-4,3
			h-3.6V121.5z M106,125.8c1.5,0,2.1-0.6,2.1-1.5c0-1-0.7-1.3-2-1.3h-1.3v2.9H106z M106.2,130.5c1.5,0,2.4-0.6,2.4-1.7
			c0-1.1-0.8-1.6-2.4-1.6h-1.6v3.3H106.2z"/>
		<path fill="#7E4798" d="M113.7,128l-3.1-6.5h2l1.1,2.6c0.3,0.8,0.6,1.5,0.9,2.3h0.1c0.3-0.8,0.7-1.5,1-2.3l1.1-2.6h1.9l-3.1,6.5
			v3.9h-1.8V128z"/>
	</g>
	<g>
		<path fill="#FFFFFF" d="M48.3,162.4h-8.3v-6.9h24.8v6.9h-8.3v24.3h-8.3V162.4z"/>
		<path fill="#FFFFFF" d="M75.6,162.1c6.1,0,11.9,4.6,11.9,12.6s-5.8,12.6-11.9,12.6s-11.9-4.6-11.9-12.6S69.4,162.1,75.6,162.1z
			 M75.6,180.6c2.5,0,3.5-2.3,3.5-6s-1-6-3.5-6c-2.5,0-3.5,2.3-3.5,6S73.1,180.6,75.6,180.6z"/>
		<path fill="#FFFFFF" d="M91.8,162.7h6.7l0.6,4.1h0.2c1.8-3.3,4.5-4.7,6.8-4.7c1.5,0,2.3,0.2,3,0.5l-1.3,7.1
			c-0.9-0.2-1.6-0.4-2.7-0.4c-1.7,0-3.8,1.1-5,4v13.3h-8.3V162.7z"/>
	</g>
	<g>
		<circle fill="#7E4798" cx="74" cy="65.7" r="46.6"/>
	</g>
	<g>
		<g>
			<path fill="#FFFFFF" d="M79.1,97c0.1-1.9-0.8-5.1-1.6-7.9c-0.6-2.1-2.6-4.3-3.2-5.9c-1-2.7-0.6-4.6-0.7-8.4
				c0.4,3.5,0.4,6.5,1.3,7.9c0.8,1.4,2,3.4,2.9,5.4c1.5,3.6,2.3,7.6,2.3,9.4c0.1,3.2-0.4,8.1-1.5,12c-0.4,1.4-1,2.7-1.6,3.9
				c1.4-2,2.4-4.4,2.8-6.3c1.5-6.7,2.6-13.7,1.7-17.9c-0.2-1-0.5-4.2-1.8-7.7c-1.9-5.1-4.6-9.2-4.9-10.2c-1-2.8-1.3-9.9-1.4-13.7
				c0.1,4.5,1,11.2,1.7,12.8c0.4,1,3.3,5.6,5.4,10.6c1.4,3.2,1.8,6.2,1.9,7.1c1.1,9.1,0.1,12.9-2.2,21.1c-0.3,1.2-0.9,2.3-1.5,3.3
				c1.6-1.9,2.8-4,3.2-5.8c2.3-10.2,3.2-23.2-0.1-33.2c-1.7-5.2-5.7-9.8-6.6-12.9c-1.1-3.7-0.3-9.7-0.3-9.8
				c5.7-9.1,13.2-18.1,22.7-26.6c-7.1,2.4-13.4,6.1-18.1,12.7c2.8-5.8,7.3-11.6,12.3-17.4C85,24.4,79.1,29.9,75.4,37.3L78,26.9
				c-4,7.2-6.8,14.6-7.6,21.9l-4.3-1.9c2.3,5.9,2.7,10.4,0.3,12.5c-9.2,7.6-24.7,16.2-24.7,29.1c0,13.6,8,28.3,28.8,29.4
				c-2.6-0.7-4.9-1.4-6.9-2.3c-2.1-0.9-3.9-2-5.3-3.6c0-0.1-0.5-0.6-0.5-0.6c-3.1-3.5-6.8-9.4-8.2-14.9c-0.5-2.2-1-3.9-0.4-6.2
				c2.5-8.9,7.9-12.5,13.4-16.2c1.2-0.8,2.7-1.5,3.9-2.5c2.3-1.7,3.5-6.8,4.8-11C70.7,64,69.9,70,67,72.3c-1.2,0.9-2.5,1.8-3.8,2.6
				c-5.3,3.6-10.6,7-13,15.6c-0.5,1.8-0.1,3.8,0.4,5.6c1.3,5.3,5.1,11,8,14.4c0,0.1,0.6,0.5,0.6,0.7c2,2.3,2.8,3.3,8,4.7
				c-1.1-0.7-2.2-1.4-3-1.9c-5.2-3.6-7.8-8.1-8.3-14.7c-0.3-5.1,2.9-10.5,9-13.8c4.3-2.2,5.5-5.6,6.8-9.7c-1,4.7-2,7.6-6.4,10.2
				c-5.2,3-8.9,9-8.6,13c0.4,4.9,3.9,10.6,7.8,13.9c1.6,1.4,4.1,2.3,6.5,2.9c-0.6-0.5-1.3-1.2-1.9-2.1c-0.8-1.1-1.3-2.6-1.9-4
				c-0.5-1.4-1-2.9-1-4.2c0-3.2,0.4-7,2.7-9.7c2.1-2.4,2.7-2.7,3.6-5.6c-0.7,3.2-1.1,3.4-3,6.2c-2.5,3.5-2.6,7-2.3,9.2
				c0.2,1.5,0.7,2.7,1.2,3.8c0.6,1.5,1.2,2.7,2.1,4c0.7,0.9,1.1,1.5,2.2,2c1.2-2.2,2-6.8,2.1-9.3c0.1-2.2,0.2-4.7-0.1-7.2
				c-0.4-3.4-1.5-6.7-1.5-9.2c0.5,2.3,1.8,5.7,2.5,9c0.5,2.6,0.7,5.2,0.5,7.1c-0.2,2.3-0.3,4.2-0.7,6.1c-0.2,1.3-0.9,2.6-1.8,3.8
				c2.4-1.8,3.9-4.7,4.6-8.1C78.9,103.3,79.1,99.2,79.1,97z"/>
		</g>
		<g>
			<path fill="#FFFFFF" d="M101.2,77.6c-3.4-6.2-12-12.3-21-18c-2.1-1.2-2.5-5.7-2.2-7.8l-2.1-1c0,0-0.8,5.5,0.6,9.8
				c1,3.1,4.3,6.5,6.2,11.4c1.4,3.3,2.9,11.1,2.9,12c1.1,9.1,0.6,17.7-2.1,25c-1.2,3.4-3.8,6.4-5.8,7.8c-0.4,0.3-0.7,0.5-1,0.6
				C93.9,118.2,112.8,98.7,101.2,77.6z"/>
		</g>
	</g>
</g>
</svg>
