<svg xmlns="http://www.w3.org/2000/svg" xmlns:xlink="http://www.w3.org/1999/xlink" viewBox="0 0 244.43 183.47"><defs><style>.cls-1{fill:#fff;}.cls-14,.cls-2,.cls-5,.cls-7,.cls-9{fill:none;}.cls-3,.cls-4{fill:#240a3b;}.cls-3,.cls-5{stroke:#240a3b;stroke-width:1.6px;}.cls-14,.cls-3,.cls-5{stroke-linecap:round;stroke-linejoin:round;}.cls-13,.cls-6{fill:#fed916;}.cls-13,.cls-7{stroke:#fed916;}.cls-13,.cls-7,.cls-9{stroke-miterlimit:10;}.cls-8{fill:#6fc8b7;}.cls-9{stroke:#6fc8b7;}.cls-10{mask:url(#mask);}.cls-11{fill:#895ba5;}.cls-12{fill:#cf63a6;}.cls-13{stroke-width:0.5px;}.cls-14{stroke:#cf63a6;stroke-width:3px;}</style><mask id="mask" x="84.06" y="127.97" width="112.7" height="29.48" maskUnits="userSpaceOnUse"><polygon class="cls-1" points="109.52 134.2 110.24 134.02 111.02 134.11 111.72 134.64 112.59 134.21 113.29 134.71 114.11 134.59 114.81 135.12 115.64 134.91 116.39 135.13 117.16 135.24 117.97 135.14 118.69 135.56 119.44 135.83 120.19 136.13 121.05 135.73 121.74 136.33 122.52 136.43 123.32 136.41 124.11 136.4 124.9 136.44 125.59 137.05 126.46 136.59 127.15 137.19 127.95 137.16 128.72 137.32 129.44 137.69 130.21 137.83 131.01 137.82 131.82 137.7 132.59 137.88 133.37 137.94 134.13 138.15 134.84 138.63 135.67 138.44 136.39 138.89 137.15 139.08 137.95 139.06 138.75 139.01 139.48 139.41 140.28 139.35 141.02 139.68 141.87 139.31 142.65 139.42 143.33 140.04 144.17 139.8 144.94 139.94 145.68 140.28 146.46 140.33 147.2 140.66 147.99 140.66 148.81 140.53 149.58 140.64 150.27 141.25 151.09 141.05 151.83 141.35 152.65 141.21 153.38 141.56 154.15 141.7 154.86 142.14 155.66 142.1 156.48 141.97 157.24 142.17 158 142.39 158.74 142.73 159.6 142.35 160.33 142.71 161.07 143.04 161.86 143.07 162.68 142.92 163.43 143.16 164.18 143.41 164.91 143.77 165.72 143.75 166.46 144.07 167.23 144.21 168.06 144.04 168.78 144.45 169.63 144.13 170.33 144.71 171.15 144.61 171.95 144.59 172.68 144.94 173.51 144.73 174.22 145.27 175 145.37 175.82 145.21 176.59 145.35 177.34 145.59 178.13 145.71 178.85 146.14 179.61 146.33 180.4 146.35 181.19 146.43 181.96 146.6 182.81 146.32 183.51 146.89 184.26 147.2 185.03 147.35 185.88 147.06 186.63 147.36 187.46 147.18 188.22 147.49 188.96 147.57 188.66 146.97 188.87 146.15 189.07 145.41 188.99 144.62 188.98 143.78 189.65 143.25 189.89 142.47 190.55 142 191.1 141.45 191.44 140.67 192.14 140.27 192.66 139.66 193.51 139.44 194.16 138.84 194.94 138.5 195.75 138.22 196.75 137.99 196.56 138.96 196.37 139.75 196.5 140.54 196.71 141.35 196.35 142.11 196.43 142.91 196.59 143.72 196.5 144.51 196.21 145.27 196.23 146.06 196.05 146.84 196.12 147.65 195.74 148.39 195.64 149.18 195.76 149.99 195.69 150.77 195.39 151.52 195.16 152.28 195.16 153.07 194.95 153.84 194.73 154.61 194.82 155.14 194.12 155.6 193.35 155.09 192.57 155.23 191.79 155.12 191.02 155.02 190.24 155.29 189.46 155.36 188.68 155.43 187.9 155.23 187.12 155.2 186.35 155.07 185.56 155.3 184.79 154.94 184 155.41 183.23 155.22 182.45 155.42 181.67 155.31 180.89 155.38 180.11 155.27 179.33 155.51 178.55 155.44 177.77 155.18 176.99 155.18 176.21 155.25 175.43 154.85 174.64 155.47 173.86 155.18 173.08 154.82 172.3 155 171.52 154.77 170.73 155.29 169.95 154.97 169.17 155.05 168.39 155.01 167.61 155.02 166.83 154.87 166.05 154.88 165.27 154.81 164.48 155.3 163.71 155.09 162.93 154.97 162.15 154.88 161.37 154.89 160.58 155.25 159.81 154.89 159.02 155.16 158.25 154.76 157.47 154.89 156.69 154.78 155.9 155.2 155.12 154.65 154.34 154.71 153.56 154.71 152.77 154.8 151.99 154.59 151.2 155.15 150.42 155.11 149.65 154.47 148.85 155.11 148.08 154.8 147.3 154.5 146.51 154.75 145.74 154.61 144.95 154.59 144.17 155.01 143.39 154.39 142.61 154.65 141.83 154.48 141.05 154.39 140.26 154.79 139.48 154.61 138.69 154.83 137.91 154.78 137.13 154.41 136.34 154.71 135.56 154.58 134.78 154.56 134 154.6 133.21 154.8 132.44 154.25 131.65 154.89 130.87 154.74 130.09 154.51 129.3 154.65 128.53 154.23 127.74 154.56 126.96 154.28 126.17 154.51 125.4 154.18 124.61 154.4 123.83 154.69 123.06 154.2 122.27 154.65 121.5 154.44 120.72 154.41 119.94 154.55 119.16 154.34 118.38 154.44 117.6 154.22 116.81 154.44 116.03 154.13 115.25 154.39 114.46 154.03 113.67 154.59 112.89 154.29 112.11 154.11 111.33 154.2 110.55 154.28 109.77 153.98 108.98 154.4 108.2 154.37 107.41 154.38 106.63 154.11 105.84 154.24 105.06 154.3 104.27 154.27 103.49 154.35 102.71 154.18 101.92 154.49 101.14 153.93 100.35 154.29 99.56 154.28 98.78 153.98 97.99 154.13 97.2 154.21 96.42 154.08 95.64 154.24 94.85 153.99 94.07 153.82 93.29 153.79 92.5 153.87 91.71 154.15 90.92 154.2 90.14 153.84 89.35 153.95 88.56 154.27 87.77 154.31 86.99 153.73 86.2 153.76 85.41 154.24 84.61 154.06 84.06 153.83 84.24 153.2 84.95 152.86 85.5 152.3 86.14 151.87 86.7 151.34 87.31 150.86 88.27 150.84 88.73 150.18 89.34 149.71 89.83 149.09 90.71 148.96 91.07 148.16 91.79 147.83 92.23 147.14 93.12 147.02 93.62 146.41 94.01 145.66 94.61 145.16 95.6 145.18 95.92 144.33 96.6 143.94 97.04 143.26 97.92 143.15 98.32 142.4 98.97 141.99 99.63 141.58 100.37 141.27 100.78 140.53 101.38 140.05 102.28 139.95 102.55 139.03 103.49 138.98 104.02 138.39 104.7 138 104.99 137.11 105.88 137 106.39 136.38 106.87 135.74 107.78 135.63 108.37 135.12 108.73 134.26 109.52 134.2"/></mask></defs><title>Asset 33</title><g id="Layer_2" data-name="Layer 2"><g id="Layer_1-2" data-name="Layer 1"><rect class="cls-2" width="244.43" height="183.47"/><path class="cls-3" d="M150.45,144.75A206.9,206.9,0,0,1,188.67,148c1.46.3,2.38.54,11.45,2.69,7.06,1.69,13,2,16.85,2.95-19.77-.12-46.75-.25-66.52-.37Z"/><polygon class="cls-4" points="159.44 145.28 158.69 145.12 158.04 144.73 157.31 144.5 156.67 144.08 155.94 143.89 155.3 143.45 154.59 143.19 153.87 142.96 153.21 142.58 152.53 142.23 151.66 142.08 150.84 142.38 150.28 143.01 149.86 143.63 149.39 144.23 148.94 144.84 148.53 145.47 148.19 146.15 147.71 146.73 147.3 147.37 146.92 148.03 146.41 148.6 146 149.24 145.48 149.86 144.7 150.07 143.88 150.05 143.24 149.53 142.78 148.88 142.77 148.08 142.85 147.34 142.83 146.58 142.89 145.82 143.09 145.09 143.13 144.34 143.25 143.59 143.29 142.84 143.28 142.08 143.41 141.33 143.47 140.57 143.4 139.71 142.86 139.06 142.13 138.66 141.4 138.46 140.68 138.25 139.96 138 139.24 137.79 138.49 137.68 137.78 137.43 137.04 137.26 136.32 137.03 135.6 136.76 134.85 136.64 134.13 136.25 133.67 135.59 133.56 134.8 133.71 134.01 134.25 133.43 134.94 132.98 135.71 132.95 136.42 132.67 137.17 132.57 137.9 132.36 138.64 132.23 139.37 132.04 140.13 131.99 140.87 131.81 141.6 131.57 142.35 131.45 143.09 131.06 143.67 130.45 143.79 129.6 143.82 128.85 143.65 128.1 143.62 127.35 143.68 126.59 143.58 125.84 143.56 125.09 143.56 124.34 143.6 123.58 143.52 122.82 143.4 122.07 143.64 121.28 144.07 120.6 144.81 120.29 145.6 120.12 146.39 120.4 146.82 121.1 147.24 121.73 147.68 122.34 147.99 123.03 148.4 123.67 148.82 124.29 149.15 124.97 149.57 125.6 149.91 126.28 150.24 126.96 150.66 127.6 151.29 128.17 152.07 128.46 152.93 128.44 153.64 128.19 154.29 127.77 155 127.52 155.76 127.39 156.46 127.09 157.14 126.77 157.88 126.59 158.6 126.34 159.26 125.95 160 125.75 160.79 125.62 161.57 125.83 162.21 126.36 162.4 127.16 162.33 127.94 162.05 128.71 161.46 129.19 160.95 129.75 160.51 130.37 159.94 130.86 159.53 131.51 158.95 132 158.44 132.56 157.9 133.09 157.48 133.74 156.93 134.26 156.59 135.04 156.47 135.88 156.92 136.61 157.35 137.23 157.89 137.76 158.35 138.35 158.71 139.03 159.22 139.59 159.75 140.13 160.19 140.75 160.69 141.31 161.17 141.9 161.62 142.51 161.89 143.28 162.01 144.09 161.59 144.79 160.99 145.34 160.2 145.44 159.44 145.28"/><polygon class="cls-5" points="159.44 145.28 158.69 145.12 158.04 144.73 157.31 144.5 156.67 144.08 155.94 143.89 155.3 143.45 154.59 143.19 153.87 142.96 153.21 142.58 152.53 142.23 151.66 142.08 150.84 142.38 150.28 143.01 149.86 143.63 149.39 144.23 148.94 144.84 148.53 145.47 148.19 146.15 147.71 146.73 147.3 147.37 146.92 148.03 146.41 148.6 146 149.24 145.48 149.86 144.7 150.07 143.88 150.05 143.24 149.53 142.78 148.88 142.77 148.08 142.85 147.34 142.83 146.58 142.89 145.82 143.09 145.09 143.13 144.34 143.25 143.59 143.29 142.84 143.28 142.08 143.41 141.33 143.47 140.57 143.4 139.71 142.86 139.06 142.13 138.66 141.4 138.46 140.68 138.25 139.96 138 139.24 137.79 138.49 137.68 137.78 137.43 137.04 137.26 136.32 137.03 135.6 136.76 134.85 136.64 134.13 136.25 133.67 135.59 133.56 134.8 133.71 134.01 134.25 133.43 134.94 132.98 135.71 132.95 136.42 132.67 137.17 132.57 137.9 132.36 138.64 132.23 139.37 132.04 140.13 131.99 140.87 131.81 141.6 131.57 142.35 131.45 143.09 131.06 143.67 130.45 143.79 129.6 143.82 128.85 143.65 128.1 143.62 127.35 143.68 126.59 143.58 125.84 143.56 125.09 143.56 124.34 143.6 123.58 143.52 122.82 143.4 122.07 143.64 121.28 144.07 120.6 144.81 120.29 145.6 120.12 146.39 120.4 146.82 121.1 147.24 121.73 147.68 122.34 147.99 123.03 148.4 123.67 148.82 124.29 149.15 124.97 149.57 125.6 149.91 126.28 150.24 126.96 150.66 127.6 151.29 128.17 152.07 128.46 152.93 128.44 153.64 128.19 154.29 127.77 155 127.52 155.76 127.39 156.46 127.09 157.14 126.77 157.88 126.59 158.6 126.34 159.26 125.95 160 125.75 160.79 125.62 161.57 125.83 162.21 126.36 162.4 127.16 162.33 127.94 162.05 128.71 161.46 129.19 160.95 129.75 160.51 130.37 159.94 130.86 159.53 131.51 158.95 132 158.44 132.56 157.9 133.09 157.48 133.74 156.93 134.26 156.59 135.04 156.47 135.88 156.92 136.61 157.35 137.23 157.89 137.76 158.35 138.35 158.71 139.03 159.22 139.59 159.75 140.13 160.19 140.75 160.69 141.31 161.17 141.9 161.62 142.51 161.89 143.28 162.01 144.09 161.59 144.79 160.99 145.34 160.2 145.44 159.44 145.28"/><polygon class="cls-6" points="110.46 133.7 111.17 133.34 111.65 132.7 112.38 132.38 113.06 132.01 113.61 131.46 114.27 131.03 114.73 130.36 115.34 129.87 116.11 129.61 116.69 129.09 117.35 128.68 117.91 128.14 118.49 127.62 119.19 127.27 119.74 126.71 120.35 126.23 120.92 125.7 121.75 125.51 122.17 124.77 122.81 124.34 123.54 124.02 124.23 123.65 124.78 123.08 125.4 122.62 126.07 122.21 126.63 121.67 127.23 121.17 127.92 120.81 128.53 120.34 129.17 119.91 129.66 119.26 130.38 118.94 131.1 118.59 131.56 117.9 132.16 117.41 132.91 117.11 133.46 116.55 134.18 116.22 134.66 115.56 135.43 115.28 135.91 114.61 136.69 114.35 137.16 113.68 137.82 113.27 138.47 112.83 139.03 112.26 139.76 111.92 140.34 111.33 141.16 111.14 141.77 110.55 142.63 110.53 143.37 110.23 144.09 109.77 144.9 109.64 145.73 109.83 146.53 109.84 147.35 109.62 148.11 110.05 148.87 110.17 149.68 109.99 150.4 110.36 151.15 110.56 151.92 110.63 152.7 110.64 153.42 110.92 154.18 111 154.94 111.14 155.63 111.49 156.19 112.06 156.8 112.48 157.44 112.87 157.99 113.39 158.65 113.78 159.16 114.34 159.79 114.81 160.16 115.5 160.62 116.11 160.79 116.88 160.97 117.62 161.39 118.27 161.73 118.97 162.19 119.62 162.41 120.38 162.59 121.16 163.01 121.82 163.3 122.55 163.62 123.27 164.23 123.85 164.29 124.68 164.71 125.35 165.23 125.97 165.43 126.74 165.81 127.42 166.16 128.12 166.31 128.92 166.71 129.59 167.28 130.19 167.34 131.03 167.94 131.62 168.03 132.44 168.6 133.03 168.88 133.77 169.03 134.57 169.66 135.14 170.01 135.84 170.34 136.55 170.37 137.41 170.79 138.07 171.19 138.74 171.5 139.46 172.03 140.08 172.38 140.78 172.69 141.5 173.05 142.2 173.09 143.05 173.47 143.74 173.91 144.4 174.42 145.03 174.69 145.78 174.83 146.58 175.43 147.16 175.58 147.96 175.82 148.73 176.19 149.43 176.64 150.09 177.1 150.83 176.25 150.81 175.47 150.67 174.68 150.72 173.9 150.97 173.12 150.86 172.34 150.6 171.55 150.69 170.77 150.97 169.99 150.89 169.2 150.84 168.41 150.7 167.63 150.94 166.85 150.62 166.06 150.89 165.27 150.83 164.48 150.6 163.73 150.61 163.27 150.11 162.54 149.71 162.26 148.91 161.59 148.45 161.04 147.89 160.59 147.24 159.99 146.72 159.64 145.99 159 145.49 158.76 144.68 158.16 144.15 157.77 143.46 157.21 142.9 156.76 142.25 156.36 141.58 155.7 141.09 155.44 140.31 155.06 139.62 154.61 138.97 153.97 138.44 153.53 137.79 153.12 137.11 152.96 136.29 152.55 135.62 152.08 134.98 151.6 134.34 151.42 133.54 151.04 132.85 150.7 132.14 150.35 131.43 150.34 130.6 149.77 129.96 149.9 129.1 149.39 128.41 149.44 127.6 149.6 126.81 149.47 126.02 149.7 125.28 149.8 124.48 150.31 123.88 150.79 123.12 150.43 123.94 150.04 124.61 149.86 125.39 149.49 126.08 149.07 126.75 148.75 127.46 148.37 128.14 147.87 128.75 147.53 129.45 147.29 130.21 146.74 130.79 146.31 131.44 145.82 132.05 145.64 132.86 145.28 133.56 144.64 134.08 144.17 134.7 143.97 135.52 143.3 136 143.05 136.78 142.51 137.35 141.83 137.82 141.56 138.6 141.03 139.18 140.48 139.74 140.06 140.41 139.42 140.89 138.9 141.47 138.28 141.96 137.72 142.5 137.22 143.12 136.62 143.62 136.05 144.17 135.44 144.66 134.75 145.05 134.09 145.47 133.59 146.13 132.93 146.56 132.24 146.95 131.52 147.27 130.71 147.4 130.02 147.77 129.4 148.29 128.63 148.47 127.92 148.81 127.22 149.19 126.46 149.4 125.7 149.63 124.87 149.47 124.14 149.88 123.33 149.59 122.55 149.67 121.78 149.87 121 149.72 120.22 149.67 119.41 149.84 118.64 149.67 117.85 149.44 117.7 148.63 117.19 148 117.01 147.21 116.42 146.62 116.16 145.88 115.79 145.19 115.43 144.49 115.29 143.68 114.88 143 114.37 142.37 114.37 141.5 113.77 140.91 113.64 140.09 113.02 139.51 112.81 138.74 112.58 137.97 112.06 137.34 111.89 136.55 111.58 135.82 111.19 135.12 110.83 134.41 110.46 133.7"/><polygon class="cls-7" points="110.46 133.7 111.17 133.34 111.65 132.7 112.38 132.38 113.06 132.01 113.61 131.46 114.27 131.03 114.73 130.36 115.34 129.87 116.11 129.61 116.69 129.09 117.35 128.68 117.91 128.14 118.49 127.62 119.19 127.27 119.74 126.71 120.35 126.23 120.92 125.7 121.75 125.51 122.17 124.77 122.81 124.34 123.54 124.02 124.23 123.65 124.78 123.08 125.4 122.62 126.07 122.21 126.63 121.67 127.23 121.17 127.92 120.81 128.53 120.34 129.17 119.91 129.66 119.26 130.38 118.94 131.1 118.59 131.56 117.9 132.16 117.41 132.91 117.11 133.46 116.55 134.18 116.22 134.66 115.56 135.43 115.28 135.91 114.61 136.69 114.35 137.16 113.68 137.82 113.27 138.47 112.83 139.03 112.26 139.76 111.92 140.34 111.33 141.16 111.14 141.77 110.55 142.63 110.53 143.37 110.23 144.09 109.77 144.9 109.64 145.73 109.83 146.53 109.84 147.35 109.62 148.11 110.05 148.87 110.17 149.68 109.99 150.4 110.36 151.15 110.56 151.92 110.63 152.7 110.64 153.42 110.92 154.18 111 154.94 111.14 155.63 111.49 156.19 112.06 156.8 112.48 157.44 112.87 157.99 113.39 158.65 113.78 159.16 114.34 159.79 114.81 160.16 115.5 160.62 116.11 160.79 116.88 160.97 117.62 161.39 118.27 161.73 118.97 162.19 119.62 162.41 120.38 162.59 121.16 163.01 121.82 163.3 122.55 163.62 123.27 164.23 123.85 164.29 124.68 164.71 125.35 165.23 125.97 165.43 126.74 165.81 127.42 166.16 128.12 166.31 128.92 166.71 129.59 167.28 130.19 167.34 131.03 167.94 131.62 168.03 132.44 168.6 133.03 168.88 133.77 169.03 134.57 169.66 135.14 170.01 135.84 170.34 136.55 170.37 137.41 170.79 138.07 171.19 138.74 171.5 139.46 172.03 140.08 172.38 140.78 172.69 141.5 173.05 142.2 173.09 143.05 173.47 143.74 173.91 144.4 174.42 145.03 174.69 145.78 174.83 146.58 175.43 147.16 175.58 147.96 175.82 148.73 176.19 149.43 176.64 150.09 177.1 150.83 176.25 150.81 175.47 150.67 174.68 150.72 173.9 150.97 173.12 150.86 172.34 150.6 171.55 150.69 170.77 150.97 169.99 150.89 169.2 150.84 168.41 150.7 167.63 150.94 166.85 150.62 166.06 150.89 165.27 150.83 164.48 150.6 163.73 150.61 163.27 150.11 162.54 149.71 162.26 148.91 161.59 148.45 161.04 147.89 160.59 147.24 159.99 146.72 159.64 145.99 159 145.49 158.76 144.68 158.16 144.15 157.77 143.46 157.21 142.9 156.76 142.25 156.36 141.58 155.7 141.09 155.44 140.31 155.06 139.62 154.61 138.97 153.97 138.44 153.53 137.79 153.12 137.11 152.96 136.29 152.55 135.62 152.08 134.98 151.6 134.34 151.42 133.54 151.04 132.85 150.7 132.14 150.35 131.43 150.34 130.6 149.77 129.96 149.9 129.1 149.39 128.41 149.44 127.6 149.6 126.81 149.47 126.02 149.7 125.28 149.8 124.48 150.31 123.88 150.79 123.12 150.43 123.94 150.04 124.61 149.86 125.39 149.49 126.08 149.07 126.75 148.75 127.46 148.37 128.14 147.87 128.75 147.53 129.45 147.29 130.21 146.74 130.79 146.31 131.44 145.82 132.05 145.64 132.86 145.28 133.56 144.64 134.08 144.17 134.7 143.97 135.52 143.3 136 143.05 136.78 142.51 137.35 141.83 137.82 141.56 138.6 141.03 139.18 140.48 139.74 140.06 140.41 139.42 140.89 138.9 141.47 138.28 141.96 137.72 142.5 137.22 143.12 136.62 143.62 136.05 144.17 135.44 144.66 134.75 145.05 134.09 145.47 133.59 146.13 132.93 146.56 132.24 146.95 131.52 147.27 130.71 147.4 130.02 147.77 129.4 148.29 128.63 148.47 127.92 148.81 127.22 149.19 126.46 149.4 125.7 149.63 124.87 149.47 124.14 149.88 123.33 149.59 122.55 149.67 121.78 149.87 121 149.72 120.22 149.67 119.41 149.84 118.64 149.67 117.85 149.44 117.7 148.63 117.19 148 117.01 147.21 116.42 146.62 116.16 145.88 115.79 145.19 115.43 144.49 115.29 143.68 114.88 143 114.37 142.37 114.37 141.5 113.77 140.91 113.64 140.09 113.02 139.51 112.81 138.74 112.58 137.97 112.06 137.34 111.89 136.55 111.58 135.82 111.19 135.12 110.83 134.41 110.46 133.7"/><polygon class="cls-8" points="110.46 137.28 111.17 136.93 111.65 136.28 112.38 135.97 113.06 135.6 113.61 135.04 114.27 134.62 114.73 133.95 115.34 133.46 116.11 133.2 116.69 132.67 117.35 132.27 117.91 131.72 118.49 131.21 119.19 130.85 119.74 130.29 120.35 129.82 120.92 129.28 121.75 129.09 122.17 128.35 122.81 127.93 123.54 127.61 124.23 127.23 124.78 126.67 125.4 126.2 126.07 125.8 126.63 125.25 127.23 124.76 127.92 124.39 128.53 123.93 129.17 123.49 129.66 122.85 130.38 122.52 131.1 122.18 131.56 121.49 132.16 121 132.91 120.7 133.46 120.13 134.18 119.81 134.66 119.14 135.43 118.86 135.91 118.2 136.69 117.94 137.16 117.27 137.82 116.85 138.47 116.41 139.03 115.84 139.76 115.5 140.34 114.92 141.16 114.73 141.77 114.13 142.63 114.11 143.37 113.81 144.09 113.36 144.9 113.22 145.73 113.41 146.53 113.43 147.35 113.2 148.11 113.64 148.87 113.75 149.68 113.57 150.4 113.95 151.15 114.15 151.92 114.21 152.7 114.23 153.42 114.51 154.18 114.59 154.94 114.73 155.63 115.07 156.19 115.64 156.8 116.07 157.44 116.46 157.99 116.97 158.65 117.37 159.16 117.93 159.79 118.4 160.16 119.08 160.62 119.7 160.79 120.47 160.97 121.21 161.39 121.86 161.73 122.56 162.19 123.2 162.41 123.96 162.59 124.74 163.01 125.41 163.3 126.14 163.62 126.86 164.23 127.43 164.29 128.27 164.71 128.94 165.23 129.55 165.43 130.32 165.81 131.01 166.16 131.71 166.31 132.5 166.71 133.18 167.28 133.78 167.34 134.62 167.94 135.2 168.03 136.03 168.6 136.62 168.88 137.35 169.03 138.15 169.66 138.72 170.01 139.42 170.34 140.14 170.37 140.99 170.79 141.65 171.19 142.33 171.5 143.04 172.03 143.66 172.38 144.37 172.69 145.09 173.05 145.78 173.09 146.63 173.47 147.33 173.91 147.99 174.42 148.62 174.69 149.36 174.83 150.17 175.43 150.75 175.58 151.55 175.82 152.31 176.19 153.01 176.64 153.68 177.1 154.42 176.25 154.4 175.46 154.25 174.68 154.31 173.9 154.56 173.11 154.45 172.33 154.18 171.54 154.27 170.75 154.56 169.95 154.47 169.35 153.88 168.86 153.25 168.12 152.89 167.78 152.11 167.01 151.77 166.49 151.18 166.09 150.46 165.53 149.92 164.94 149.4 164.18 149.04 163.84 148.27 163.14 147.86 162.55 147.34 162.05 146.72 161.4 146.25 160.99 145.55 160.32 145.1 160 144.32 159.35 143.85 158.91 143.19 158.29 142.69 157.79 142.08 157.31 141.44 156.6 141.01 156.26 140.26 155.81 139.61 155.29 139.01 154.6 138.55 154.08 137.94 153.59 137.31 153.33 136.52 152.84 135.89 152.29 135.31 151.73 134.74 151.44 133.97 150.97 133.34 150.52 132.69 150.07 132.03 149.91 131.21 149.24 130.68 149.21 129.81 148.57 129.23 148.44 128.43 148.4 127.62 148.07 126.89 148.07 126.1 147.93 125.32 148.24 124.58 148.34 123.77 148.94 123.2 148.63 123.93 148.54 124.72 148.23 125.44 147.89 126.14 147.64 126.89 147.34 127.6 146.91 128.27 146.65 129 146.49 129.78 146.01 130.41 145.65 131.1 145.23 131.76 145.14 132.58 144.87 133.32 144.3 133.9 143.9 134.57 143.81 135.41 143.2 135.96 143.05 136.77 142.58 137.41 141.97 137.95 141.8 138.77 141.35 139.41 140.88 140.03 140.55 140.75 139.99 141.32 139.55 141.96 139.02 142.54 138.54 143.16 138.14 143.84 137.62 144.43 137.14 145.05 136.62 145.63 136 146.13 135.41 146.65 135.04 147.38 134.46 147.92 133.85 148.41 133.2 148.86 132.42 149.13 131.81 149.62 131.3 150.24 130.57 150.56 129.95 151.03 129.33 151.53 128.62 151.88 127.92 152.24 127.08 152.25 126.43 152.78 125.58 152.65 124.84 152.86 124.11 153.19 123.32 153.17 122.55 153.25 121.78 153.55 120.99 153.49 120.21 153.39 119.45 153.1 118.65 153.18 118.01 152.91 117.43 152.34 117.16 151.6 116.8 150.9 116.44 150.2 116.3 149.4 115.89 148.72 115.38 148.09 115.38 147.22 114.78 146.63 114.66 145.82 114.03 145.24 113.83 144.47 113.6 143.7 113.07 143.07 112.9 142.28 112.6 141.55 112.2 140.86 111.85 140.15 111.63 139.38 111.31 138.65 110.9 137.96 110.46 137.28"/><polygon class="cls-9" points="110.46 137.28 111.17 136.93 111.65 136.28 112.38 135.97 113.06 135.6 113.61 135.04 114.27 134.62 114.73 133.95 115.34 133.46 116.11 133.2 116.69 132.67 117.35 132.27 117.91 131.72 118.49 131.21 119.19 130.85 119.74 130.29 120.35 129.82 120.92 129.28 121.75 129.09 122.17 128.35 122.81 127.93 123.54 127.61 124.23 127.23 124.78 126.67 125.4 126.2 126.07 125.8 126.63 125.25 127.23 124.76 127.92 124.39 128.53 123.93 129.17 123.49 129.66 122.85 130.38 122.52 131.1 122.18 131.56 121.49 132.16 121 132.91 120.7 133.46 120.13 134.18 119.81 134.66 119.14 135.43 118.86 135.91 118.2 136.69 117.94 137.16 117.27 137.82 116.85 138.47 116.41 139.03 115.84 139.76 115.5 140.34 114.92 141.16 114.73 141.77 114.13 142.63 114.11 143.37 113.81 144.09 113.36 144.9 113.22 145.73 113.41 146.53 113.43 147.35 113.2 148.11 113.64 148.87 113.75 149.68 113.57 150.4 113.95 151.15 114.15 151.92 114.21 152.7 114.23 153.42 114.51 154.18 114.59 154.94 114.73 155.63 115.07 156.19 115.64 156.8 116.07 157.44 116.46 157.99 116.97 158.65 117.37 159.16 117.93 159.79 118.4 160.16 119.08 160.62 119.7 160.79 120.47 160.97 121.21 161.39 121.86 161.73 122.56 162.19 123.2 162.41 123.96 162.59 124.74 163.01 125.41 163.3 126.14 163.62 126.86 164.23 127.43 164.29 128.27 164.71 128.94 165.23 129.55 165.43 130.32 165.81 131.01 166.16 131.71 166.31 132.5 166.71 133.18 167.28 133.78 167.34 134.62 167.94 135.2 168.03 136.03 168.6 136.62 168.88 137.35 169.03 138.15 169.66 138.72 170.01 139.42 170.34 140.14 170.37 140.99 170.79 141.65 171.19 142.33 171.5 143.04 172.03 143.66 172.38 144.37 172.69 145.09 173.05 145.78 173.09 146.63 173.47 147.33 173.91 147.99 174.42 148.62 174.69 149.36 174.83 150.17 175.43 150.75 175.58 151.55 175.82 152.31 176.19 153.01 176.64 153.68 177.1 154.42 176.25 154.4 175.46 154.25 174.68 154.31 173.9 154.56 173.11 154.45 172.33 154.18 171.54 154.27 170.75 154.56 169.95 154.47 169.35 153.88 168.86 153.25 168.12 152.89 167.78 152.11 167.01 151.77 166.49 151.18 166.09 150.46 165.53 149.92 164.94 149.4 164.18 149.04 163.84 148.27 163.14 147.86 162.55 147.34 162.05 146.72 161.4 146.25 160.99 145.55 160.32 145.1 160 144.32 159.35 143.85 158.91 143.19 158.29 142.69 157.79 142.08 157.31 141.44 156.6 141.01 156.26 140.26 155.81 139.61 155.29 139.01 154.6 138.55 154.08 137.94 153.59 137.31 153.33 136.52 152.84 135.89 152.29 135.31 151.73 134.74 151.44 133.97 150.97 133.34 150.52 132.69 150.07 132.03 149.91 131.21 149.24 130.68 149.21 129.81 148.57 129.23 148.44 128.43 148.4 127.62 148.07 126.89 148.07 126.1 147.93 125.32 148.24 124.58 148.34 123.77 148.94 123.2 148.63 123.93 148.54 124.72 148.23 125.44 147.89 126.14 147.64 126.89 147.34 127.6 146.91 128.27 146.65 129 146.49 129.78 146.01 130.41 145.65 131.1 145.23 131.76 145.14 132.58 144.87 133.32 144.3 133.9 143.9 134.57 143.81 135.41 143.2 135.96 143.05 136.77 142.58 137.41 141.97 137.95 141.8 138.77 141.35 139.41 140.88 140.03 140.55 140.75 139.99 141.32 139.55 141.96 139.02 142.54 138.54 143.16 138.14 143.84 137.62 144.43 137.14 145.05 136.62 145.63 136 146.13 135.41 146.65 135.04 147.38 134.46 147.92 133.85 148.41 133.2 148.86 132.42 149.13 131.81 149.62 131.3 150.24 130.57 150.56 129.95 151.03 129.33 151.53 128.62 151.88 127.92 152.24 127.08 152.25 126.43 152.78 125.58 152.65 124.84 152.86 124.11 153.19 123.32 153.17 122.55 153.25 121.78 153.55 120.99 153.49 120.21 153.39 119.45 153.1 118.65 153.18 118.01 152.91 117.43 152.34 117.16 151.6 116.8 150.9 116.44 150.2 116.3 149.4 115.89 148.72 115.38 148.09 115.38 147.22 114.78 146.63 114.66 145.82 114.03 145.24 113.83 144.47 113.6 143.7 113.07 143.07 112.9 142.28 112.6 141.55 112.2 140.86 111.85 140.15 111.63 139.38 111.31 138.65 110.9 137.96 110.46 137.28"/><polygon class="cls-5" points="111.36 133.7 112.06 133.34 112.55 132.7 113.27 132.38 113.96 132.01 114.51 131.46 115.16 131.03 115.63 130.36 116.23 129.87 117.01 129.61 117.58 129.09 118.25 128.68 118.81 128.14 119.39 127.62 120.08 127.27 120.63 126.71 121.25 126.23 121.82 125.7 122.65 125.51 123.06 124.77 123.71 124.34 124.44 124.02 125.13 123.65 125.67 123.08 126.3 122.62 126.97 122.21 127.53 121.67 128.12 121.17 128.81 120.81 129.43 120.34 130.07 119.91 130.55 119.26 131.28 118.94 132 118.59 132.45 117.9 133.05 117.41 133.8 117.11 134.35 116.55 135.08 116.22 135.56 115.56 136.33 115.28 136.81 114.61 137.58 114.35 138.05 113.68 138.72 113.27 139.37 112.83 139.93 112.26 140.66 111.92 141.24 111.33 142.06 111.14 142.67 110.55 143.53 110.53 144.27 110.23 144.99 109.77 145.8 109.64 146.63 109.83 147.43 109.84 148.25 109.62 149.01 110.05 149.77 110.17 150.57 109.99 151.29 110.36 152.04 110.56 152.82 110.63 153.6 110.64 154.31 110.92 155.08 111 155.84 111.14 156.53 111.49 157.08 112.06 157.7 112.48 158.34 112.87 158.88 113.39 159.54 113.78 160.05 114.34 160.69 114.81 161.05 115.5 161.51 116.11 161.69 116.88 161.86 117.62 162.29 118.27 162.63 118.97 163.08 119.62 163.31 120.38 163.49 121.16 163.91 121.82 164.2 122.55 164.52 123.27 165.12 123.85 165.19 124.68 165.6 125.35 166.13 125.97 166.33 126.74 166.71 127.42 167.06 128.12 167.21 128.92 167.61 129.59 168.17 130.19 168.24 131.03 168.83 131.62 168.92 132.44 169.5 133.03 169.78 133.77 169.93 134.57 170.55 135.14 170.91 135.84 171.24 136.55 171.27 137.41 171.69 138.07 172.09 138.74 172.4 139.46 172.92 140.08 173.28 140.78 173.59 141.5 173.94 142.2 173.98 143.05 174.37 143.74 174.81 144.4 175.31 145.03 175.58 145.78 175.73 146.58 176.33 147.16 176.48 147.96 176.72 148.73 177.08 149.43 177.54 150.09 178 150.83 177.14 150.81 176.36 150.67 175.58 150.72 174.8 150.97 174.02 150.86 173.23 150.6 172.45 150.69 171.66 150.97 170.88 150.89 170.09 150.84 169.31 150.7 168.53 150.94 167.74 150.62 166.96 150.89 166.17 150.83 165.38 150.6 164.62 150.61 164.14 150.12 163.38 149.75 163.07 148.97 162.38 148.54 161.8 148 161.32 147.38 160.69 146.88 160.3 146.17 159.64 145.7 159.36 144.9 158.72 144.41 158.31 143.73 157.71 143.19 157.24 142.57 156.79 141.92 156.11 141.46 155.81 140.7 155.38 140.03 154.9 139.41 154.23 138.91 153.75 138.29 153.3 137.63 153.09 136.82 152.63 136.18 152.12 135.56 151.6 134.95 151.36 134.17 150.93 133.51 150.53 132.82 150.13 132.14 150.04 131.31 149.42 130.72 149.47 129.86 148.88 129.21 148.83 128.41 148.88 127.6 148.63 126.84 148.74 126.06 148.68 125.26 149.06 124.56 149.23 123.76 149.84 123.2 149.5 123.93 149.37 124.73 149.03 125.44 148.65 126.14 148.37 126.87 148.03 127.58 147.56 128.23 147.26 128.96 147.06 129.74 146.53 130.35 146.13 131.03 145.67 131.67 145.53 132.5 145.21 133.22 144.59 133.77 144.15 134.42 143.99 135.25 143.33 135.77 143.11 136.58 142.59 137.18 141.93 137.68 141.69 138.48 141.18 139.09 140.65 139.67 140.25 140.36 139.62 140.87 139.11 141.47 138.51 142 137.96 142.56 137.48 143.19 136.88 143.72 136.32 144.28 135.72 144.79 135.03 145.19 134.37 145.63 133.88 146.31 133.21 146.75 132.52 147.14 131.79 147.47 130.97 147.6 130.28 147.97 129.65 148.49 128.87 148.65 128.15 148.99 127.43 149.36 126.66 149.55 125.89 149.75 125.06 149.57 124.3 149.95 123.49 149.64 122.71 149.69 121.92 149.85 121.14 149.67 120.36 149.58 119.54 149.72 118.7 149.48 118.41 148.72 118.26 147.91 117.75 147.29 117.58 146.5 116.99 145.91 116.72 145.18 116.35 144.47 115.99 143.77 115.85 142.97 115.44 142.29 114.93 141.66 114.93 140.78 114.33 140.19 114.2 139.38 113.58 138.8 113.37 138.02 113.14 137.25 112.62 136.63 112.45 135.83 112.14 135.1 111.75 134.4 111.36 133.7"/><path class="cls-6" d="M109.46,134.39,189,145c-1.1-3.83,1.34-7.62,3.74-9.76a12.38,12.38,0,0,1,3.89-1.57c0,7.32-1.72,12.61-1.72,20.82l-111.08-.59Z"/><path class="cls-7" d="M109.46,134.39,189,145c-1.1-3.83,1.34-7.62,3.74-9.76a12.38,12.38,0,0,1,3.89-1.57c0,7.32-1.72,12.61-1.72,20.82l-111.08-.59Z"/><polygon class="cls-8" points="109.51 138.2 110.25 137.98 111.03 138.03 111.75 138.53 112.6 138.05 113.33 138.52 114.14 138.36 114.87 138.86 115.69 138.61 116.46 138.79 117.24 138.86 118.05 138.72 118.79 139.11 119.55 139.34 120.31 139.6 121.16 139.16 121.88 139.73 122.66 139.79 123.46 139.73 124.25 139.68 125.04 139.69 125.76 140.26 126.61 139.76 127.33 140.32 128.13 140.25 128.91 140.38 129.65 140.71 130.43 140.81 131.23 140.76 132.04 140.6 132.81 140.75 133.6 140.76 134.37 140.94 135.11 141.38 135.93 141.15 136.67 141.57 137.44 141.72 138.24 141.66 139.04 141.57 139.78 141.93 140.59 141.84 141.34 142.13 142.18 141.72 142.96 141.79 143.68 142.38 144.51 142.1 145.29 142.2 146.04 142.5 146.83 142.51 147.58 142.81 148.37 142.77 149.18 142.6 149.96 142.67 150.68 143.25 151.49 143.01 152.25 143.27 153.06 143.09 153.81 143.4 154.59 143.51 155.32 143.91 156.13 143.83 156.94 143.67 157.71 143.82 158.48 144.01 159.24 144.31 160.08 143.89 160.83 144.21 161.58 144.51 162.38 144.5 163.19 144.3 163.96 144.51 164.72 144.73 165.47 145.05 166.28 144.99 167.03 145.27 167.81 145.37 168.63 145.16 169.38 145.54 170.22 145.17 170.94 145.72 171.75 145.58 172.55 145.52 173.31 145.83 174.13 145.59 174.87 146.09 175.65 146.15 176.47 145.96 177.25 146.06 178.02 146.26 178.8 146.34 179.54 146.74 180.32 146.88 181.12 146.87 181.91 146.91 182.68 147.04 183.52 146.72 184.25 147.25 185.01 147.53 185.79 147.64 186.63 147.31 187.4 147.57 188.23 147.36 188.97 147.63 188.67 146.97 188.57 146.16 188.89 145.38 189.21 144.68 189.24 143.9 189.35 143.07 190.08 142.62 190.4 141.86 191.09 141.44 191.67 140.91 192.03 140.14 192.73 139.74 193.39 139.21 194.27 139.1 194.96 138.54 195.76 138.24 196.74 138.02 196.84 138.97 196.54 139.75 196.34 140.53 196.46 141.33 196.66 142.14 196.29 142.9 196.36 143.7 196.5 144.51 196.41 145.29 196.12 146.05 196.12 146.85 195.94 147.62 196 148.43 195.62 149.17 195.52 149.96 195.65 150.77 195.58 151.55 195.28 152.3 195.07 153.06 195.07 153.85 194.9 154.62 194.85 155.22 194.13 155.12 193.34 155.59 192.57 155.08 191.79 155.22 191.01 155.11 190.24 155.01 189.46 155.28 188.68 155.35 187.9 155.42 187.12 155.22 186.34 155.19 185.57 155.06 184.79 155.29 184.01 154.93 183.23 155.4 182.45 155.21 181.67 155.41 180.89 155.3 180.11 155.37 179.33 155.26 178.55 155.5 177.77 155.43 176.99 155.17 176.21 155.17 175.42 155.24 174.65 154.84 173.86 155.46 173.08 155.17 172.3 154.81 171.51 154.99 170.74 154.76 169.95 155.28 169.17 154.96 168.39 155.04 167.61 155 166.83 155.01 166.05 154.85 165.27 154.87 164.49 154.8 163.7 155.29 162.93 155.08 162.15 154.96 161.37 154.87 160.59 154.88 159.8 155.23 159.03 154.88 158.24 155.15 157.47 154.75 156.68 154.88 155.9 154.77 155.12 155.19 154.34 154.64 153.56 154.7 152.77 154.69 151.99 154.78 151.21 154.58 150.42 155.14 149.64 155.1 148.86 154.46 148.07 155.1 147.3 154.79 146.52 154.49 145.73 154.74 144.95 154.6 144.17 154.58 143.39 155 142.61 154.38 141.83 154.64 141.05 154.47 140.26 154.38 139.48 154.78 138.69 154.6 137.91 154.82 137.13 154.77 136.35 154.4 135.56 154.7 134.78 154.57 134 154.55 133.22 154.59 132.43 154.79 131.66 154.24 130.87 154.88 130.09 154.73 129.31 154.5 128.52 154.64 127.74 154.22 126.95 154.55 126.18 154.28 125.39 154.5 124.62 154.17 123.83 154.39 123.05 154.68 122.28 154.19 121.49 154.64 120.72 154.43 119.94 154.4 119.16 154.54 118.38 154.33 117.59 154.43 116.81 154.21 116.03 154.43 115.25 154.12 114.46 154.38 113.68 154.02 112.89 154.58 112.11 154.28 111.33 154.1 110.55 154.19 109.77 154.27 108.99 153.97 108.2 154.39 107.41 154.36 106.63 154.37 105.84 154.1 105.06 154.23 104.27 154.29 103.49 154.26 102.7 154.34 101.92 154.16 101.13 154.48 100.35 153.91 99.56 154.28 98.78 154.27 97.99 153.97 97.21 154.12 96.42 154.2 95.64 154.07 94.85 154.22 94.07 153.98 93.29 153.81 92.5 153.78 91.72 153.86 90.92 154.14 90.14 154.19 89.35 153.83 88.56 153.94 87.77 154.25 86.98 154.3 86.2 153.72 85.41 153.75 84.61 154.23 83.7 153.96 84.61 153.73 84.97 152.84 85.71 152.58 86.31 152.08 86.99 151.72 87.61 151.25 88.26 150.84 89.22 150.91 89.75 150.31 90.41 149.9 90.97 149.33 91.86 149.29 92.3 148.54 93.05 148.28 93.56 147.64 94.45 147.61 95.02 147.06 95.49 146.35 96.13 145.93 97.11 146.04 97.52 145.24 98.23 144.93 98.74 144.29 99.64 144.27 100.11 143.56 100.81 143.21 101.51 142.88 102.28 142.64 102.77 141.96 103.42 141.53 104.33 141.53 104.69 140.65 105.64 140.69 106.22 140.15 106.94 139.84 107.32 138.98 108.23 138.96 108.8 138.4 109.51 138.2"/><g class="cls-10"><path class="cls-4" d="M136.44,156.08c-40.46,0-35.93-1-35.93-1l3.7-25.12c2.4,3.15,10.54,2.63,22.55,7.08a28.19,28.19,0,0,0,9.68,19Z"/><path class="cls-4" d="M136,156.59c.1,0,.2-.2.06-.27l-.3.17Z"/><path class="cls-4" d="M135.62,155.42a.69.69,0,0,0-.71.35c.35-.1.29,0,.69-.12a.2.2,0,0,1,0,.34c.1,0,.14.22.34.12,0-.33-.17-.51-.51-.54C135.47,155.48,135.57,155.46,135.62,155.42Z"/><path class="cls-4" d="M128.22,142.43v.1A.31.31,0,0,0,128.22,142.43Z"/><path class="cls-4" d="M123.33,135.2c.07,0,.11,0,.12,0S123.33,135.17,123.33,135.2Z"/><path class="cls-4" d="M121.88,134.38l.08,0S121.91,134.36,121.88,134.38Z"/><path class="cls-4" d="M128.22,142.43l0-.27C128.15,142.18,128.21,142.31,128.22,142.43Z"/><path class="cls-4" d="M133.55,154.47a.43.43,0,0,0,.16.05l-.12-.07Z"/><path class="cls-4" d="M129.88,146.15l0,.07h.14Z"/><path class="cls-4" d="M131.38,148.88c0-.07-.28.06-.4.09a.28.28,0,0,1,.24,0A.83.83,0,0,0,131.38,148.88Z"/><path class="cls-4" d="M133.91,153.17l.09.05Z"/><path class="cls-4" d="M129.1,144.07a.18.18,0,0,0,.08-.06A.24.24,0,0,0,129.1,144.07Z"/><path class="cls-4" d="M132.74,154.76v.05S132.76,154.76,132.74,154.76Z"/><path class="cls-4" d="M136.44,156.16h-.05a.88.88,0,0,0,0,.16Z"/><path class="cls-4" d="M119.09,133.24h0C119.18,133.24,119.14,133.23,119.09,133.24Z"/><path class="cls-4" d="M101.68,141.34c.22-.27.17.53.43.11C102,141.48,101.84,141,101.68,141.34Z"/><path class="cls-4" d="M133.52,154.39l-.09-.1A.3.3,0,0,0,133.52,154.39Z"/><path class="cls-4" d="M102.11,141.45h0l0,0Z"/><path class="cls-4" d="M112.37,131.89a.74.74,0,0,0,0,.14S112.41,132,112.37,131.89Z"/><path class="cls-4" d="M117.25,133.37l-.11-.06Z"/><path class="cls-4" d="M109.75,131.71c-.06,0-.08-.08-.17-.07s0,0,0,0S109.68,131.65,109.75,131.71Z"/><path class="cls-4" d="M107.21,131l0,.07h.08Z"/><path class="cls-4" d="M124.42,154.86a.91.91,0,0,1,.13.26C124.51,154.92,124.91,154.85,124.42,154.86Z"/><path class="cls-4" d="M133.66,154.37c-.06,0-.1,0-.14,0l.07.06S133.66,154.4,133.66,154.37Z"/><path class="cls-4" d="M109.11,133.84l-.43-.16A1.82,1.82,0,0,0,109.11,133.84Z"/><path class="cls-4" d="M104.84,154.52l.1,0A.13.13,0,0,0,104.84,154.52Z"/><path class="cls-4" d="M107.36,133.35a.59.59,0,0,0-.19-.26.15.15,0,0,0-.07,0Z"/><path class="cls-4" d="M124.55,155.12Z"/><path class="cls-4" d="M127.42,154.47c-.42,0-.2.36-.29.57-.49.1-.23-.27-.39-.46-.31.09-.55.43-.78.42,0-.06-.06-.09,0-.16-.33.29-1,0-1.35.37a.2.2,0,0,1,0-.09,1.38,1.38,0,0,1,.06.51c-.19,0-.35.23-.42,0,.11,0,.12-.09.18-.17l-.2.11c-.17-.35.27-.12.27-.38-.38.11-.82.4-1.11.3-.06-.34.68-.11.29-.42l.45.13c-.34-.53.27,0,0-.53-.59-.1-.66.17-1.25.06-.13.19,0,.28-.09.47-.84.33-.66-.86-1.28-.41-.16.22-.22.65-.66.42l.15-.38c-.57,0-.33.55-.93.28.11-.15.45-.12.37-.17-.39-.3-.28.22-.58.22l-.06-.35c-.61,0-1.28.29-2,.34,0-.1.16-.2,0-.31a6.17,6.17,0,0,1-2.63-.28l-.32.29a.11.11,0,0,1-.05-.19c-.32-.12,0,.19-.18.3a.15.15,0,0,1-.12-.26,3,3,0,0,1-2.21.18l.12-.08c-.46-.13-.53.59-1,.3l.09-.05c-1-.15-2.12.09-2.88-.37-.16.42-1-.22-1.07.37-.56-.32-.39-.42-1.19-.64-.21,0-.33.35-.6.4v-.3l-.37.3-.17-.37-.26.06c.1,0,.21.15.19.24a.9.9,0,0,1-.94-.42l-.93.21c0-.13.19-.16.31-.23-.5.28-.06-.33-.53-.07.06.07,0,.18-.06.24-.17-.2-.83-.25-.79-.17l.08-.21s-.08,0-.16,0H102s0,0,0-.08-.52.33-.54.22a2.92,2.92,0,0,1,.36-.17c-.21,0-.15.15-.39.11.06-.17.4-.16.51-.17a.41.41,0,0,1-.11-.07c.1,0,.15,0,.28,0-.14,0,.07-.06.1,0a.23.23,0,0,0-.08-.28h.1c.12-.77.06-1.13.13-1.76-.27-.06-.17-.29-.37-.52a6,6,0,0,0,.51-1.47c-.09-.41-.22-.15-.36-.35.26,0,.31-.54.45-.22a6.68,6.68,0,0,0,0-1.73c-.11.07-.17.17-.25.1s.16-.33.27-.28l0,0c-.24-1,1.06-2.05.64-2.88l0,0-.16-.83c.1-.35.16.25.36,0-.3-.9.25-1.31.07-2.05.83-.41.23-1.9.81-2.54h-.18c-.14-.21.13-.21.19-.34-.13,0-.18.18-.26,0a21.93,21.93,0,0,1,1.13-4.81c.14-.58-.86-.47-.33-1.15l.3.26c0-.13,0-.35-.06-.39a.3.3,0,0,1,0-.1.59.59,0,0,1,0-.19,1,1,0,0,0,0-.18.66.66,0,0,0,0-.13s0,0,0-.05v0c0,.1.08.26.06.24.15.4.1.1.11-.11.05.06,0,.22.06.35s.17-.25.15,0c0,0,0,.06,0,.08a0,0,0,0,1,0,0h0l.12.05c.16.05.29.07.26-.09.41.31.91.23,1.21.49.33-.22.73.39.92,0-.16.42.69.57,1,.42-.12.11.21.2.06.36.32.07.63.05.63-.19.46.68,1.26-.16,1.44.59a21.86,21.86,0,0,1,2.72.06c-.12.44-.92-.15-1,.32.83,0,1.37-.3,2.12,0,.19.11-.15.17-.24.23.82,0,1.51.37,2.25.31,0,0-.09.06-.17.08.14,0,.3.14.33-.06l-.14,0c-.15-.34.68-.47.75-.62-.38.51.65.31.1.94.1,0,.24-.08.25-.22.12.07.14.16,0,.28.51,0,.4-.24.84-.12,0,.09-.13.11-.2.21a.9.9,0,0,1,.89-.08s0,.14-.12.11c.64.13,1.22-.2,1.87.18-.33.36.2.21.13.58h.4l-.09-.22c.32.1.69-.06.93.14l-.28.07.63.13-.31-.25c.39-.08.11-.46.51-.22-.1,0,.33.11.43.37h0a.63.63,0,0,1,.62,0c0,.13-.18.38-.17.46.26-.24.79.19,1.1-.06a.43.43,0,0,0-.16.28l.22-.19c.12.13.13.18.06.31.33.17.08-.47.4-.14,0,0,0,.05-.12.06a1.32,1.32,0,0,0,.55.17,1.14,1.14,0,0,1,.07.56c-.36.18-.12-.25-.42,0,0,.1.06.1.14.31l.22.58a4,4,0,0,1,.3,1.13l0-.15c.54,0-.16.6.17.92-.06-.08-.31-.06-.25,0a4.66,4.66,0,0,0,.72,1.7l-.16,0a6.29,6.29,0,0,0,.19,1.11c.16.05.2.24.35.07-.42,1.22,1,1.65.78,2.71-.05-.1-.21-.19-.18-.11s.27.44.42.65c.19-.15.09-.15.19-.37a.67.67,0,0,1,.43.35c-.29-.24-.34.15-.39.34.05-.05.14,0,.2-.08-.2.54.44-.14.44.46l-.13,0c.15.15.38.24.44.45-.19.2-.2-.13-.4,0,.15.27.72.29.62.65-.13-.07-.22-.23-.34-.31a.65.65,0,0,0,0,.63v0l.14.53v-.16c.79,0,.51.61,1.17.8-.63-.19-.26.06-.53.2,0,.15,0,.38-.07.37.34.07.07.46.56.55-.08.06.14.22-.09.31.25.22.09-.16.21-.21.55.21.35,1.19,1.16,1.47.53.36.85.23,1.34.54,0,.25-.37.12-.37.12a.89.89,0,0,0,.54.62c-.1,0-.12.11-.14.25.18.15.37-.13.47.19a1.36,1.36,0,0,1-.44.1c.25.14.57.21.83.35-.06.17-.3.06-.45.06.28.18.7.48.95.35l-.07-.21c.09.07-.12.21-.22.19-.34,0-.21-.35-.15-.43l.18.1c.26-.55-.63-.5-.88-.83l.42-.16-.53-.07c0-.14.15-.34.33-.23,0-.35-.28-.09-.27-.43,0,0,0,0,.06,0l-.28-.12c.11,0,.2-.23.26-.06-.14-.53-.75-.42-.63-.76l.05,0c-.54-.45-.28.14-.89-.05l.39-.74-.29.13c0-.06-.1-.19,0-.24-.33-.09-.08.12-.33.11,0-.44-.66-.7-.31-1-.26,0,0,.37-.3.16.38-.38-.31-.3-.28-.7.27-.06.32.26.35-.13-.48.08-.24-.57-.45-.74-.31.17-.43-.41-.74-.74.12,0-.22-.82-.28-1.25h.06c-.37.09-.49-.32-.69-.57a.42.42,0,0,1,.47,0l-.12-.26a.42.42,0,0,1-.35-.22l.28-.05c-.16-.34-.61-.57-.61-1.1-.25.06-.52.63-.88.2.13-.07.34-.17.44-.06,0,0-.16-.11-.14-.22l.29.11c0-.25-.22,0-.27-.21.19-.07.09-.18.24-.21s0,.18.08.21a.8.8,0,0,1,.1-.6c-.1.06-.25.09-.32,0-.15-.35.17-.2.2-.44-.16-.05-.1-.32-.38-.24,0-.1.09-.16.15-.23-.19-.15-.3-.87-.54-.57v.06l0,0h0c-.47-.55-.2-1.35-.45-2l.09,0c-.19-.35-.23-.82-.49-1.06,0-.11.13-.3.26-.27-.13-.28-.24-.29-.14-.74.21.27.14-.12.17.28,0-.39.17-.49-.15-.87.28.19.27-.5.17-.77l-.13.47a3.8,3.8,0,0,1-.08-.82,1.86,1.86,0,0,1,.33,0,2.06,2.06,0,0,0,0-.54,5.43,5.43,0,0,0-1.57-.3c-.41,0-.61-.06-.79-.43-.28.15.36.3.09.49-.33-.16-.54-.75-.65-.78-.43-.34-.61.31-1.08,0a.36.36,0,0,1-.41.44c-.34-.15-.29-.61,0-.63.09,0,.12.07.1.1s.3,0,.2-.17l-.09.1c-.13-.17-.63-.32-.45-.47-.31,0-.18.15,0,.28-.4-.32-.71-.23-1.15-.48.06.09.09.24,0,.22-.65-.34-.37.13-.85,0-.22-.25.21-.38-.3-.37-.25-.21,0-.33.16-.39-.49.1-.76-.36-1-.47l.25,0a.93.93,0,0,1-.38,0l.07.26c-.12-.07-.23-.1-.21-.2-.17.12,0,.41-.32.54-.15-.16-.57,0-.55-.33.53.25,0-.33.5-.25a.55.55,0,0,1-.34-.1s0-.05.08-.06c-.47-.42-.34.28-.89.14a.23.23,0,0,0-.15-.35c.22.06,0,.32-.2.4-.33-.22-.42,0-.6-.06l.2.12c-.11.15-.29.09-.55.08,0-.14.25,0,.17-.12-.34.24-.55-.45-1-.34-.15-.16.06-.33-.08-.44-.49.13-.42-.35-.92-.26.08.26.12.21-.25.37h.78l-.55.23c.22.05.5,0,.63,0-.27.14-.23.09-.17.3-.23-.42-.65.07-1-.24l.14-.58c-.48-.37-1,.09-1.68-.2l.2.15c-.14.21-.44-.06-.68,0,.06-.19-.07-.29-.14-.43,0,.14-.5-.13-.65.25l-.25-.33c-.53-.22-.76.42-1.27.23.2-.18,0-.37.38-.43-.17-.05-.32-.12-.36,0-.07-.14-.55.14-.67-.08-.09.07-.17.27-.36.2a.14.14,0,0,1,0-.1c0,.1-.34.05-.23.31-.38-.73-1.52-.39-1.79-1.05a3.08,3.08,0,0,1-1.26-.47s0-.1.1,0c-.29-.31-.42-.22-.52-.1s-.19.26-.5-.16c-.42-.83.32.05.08-.33a1.37,1.37,0,0,0-.59-.94,1.94,1.94,0,0,1-.79-.77.36.36,0,0,1-.08-.09V128h0l0,0c-.07-.07-.11,0-.14.07l0,.17c0,.08,0,.21,0,.31a6.09,6.09,0,0,1,0,1.23s0-.11-.08-.13a10.71,10.71,0,0,1,.19,2.35c-.21-.28-.08-.33-.34-.34,0,.29.39.15.39.64-.16.13-.32.44-.6.43,0-.13,0-.26,0-.47a.35.35,0,0,0-.18.22.4.4,0,0,0,0,.19.68.68,0,0,1,0,.36l-.15,0c0,.6.36.66.25,1.3l.12,0c.31.4-.25.26,0,.65l-.37.05a6.58,6.58,0,0,1,.25,1.28,4,4,0,0,1-.42-1.1c0,.23-.07.78.09.92,0-.09-.09-.22,0-.31a1.55,1.55,0,0,1,.26,1.17c-.65-.18-.33,1.16-.85,1.41a12.43,12.43,0,0,1-.34,2.53c.47-.27,0,.28.43.29,0,.22,0,.3,0,.32l-.34.62c-.14.14-.07-.22-.17-.22-.09.47-.2.17-.35.47.16,0,.2.2.11.47l.24-.36c.14.71-.41.53-.27,1.24l-.1-.24c0,.36-.13,1.28.13,1.67,0,.05-.16.12-.17,0a15.76,15.76,0,0,1-.15,2.5l-.07-.07c0,.16.12.29,0,.47,0,0-.07-.07-.08,0a1.4,1.4,0,0,1,0,.63l-.06-.19a9,9,0,0,0,0,1.95c-.2,0-.33.59-.4.9h0a22.7,22.7,0,0,0-.06,2.31l-.55,0c-.1,0,0,0,0,.07v.15a2.7,2.7,0,0,0-.37.88,6.52,6.52,0,0,0-.06,1.1c0,.15,0,.09,0,.09s.06.13.11.18a1.78,1.78,0,0,0,.4.31,3.75,3.75,0,0,0,.49.25c.19.06.38.11.55.18-.19-.12.21-.3.46-.33.33.13.94-.21.81.18h-.08c.14.41.57.34.91.37l.09-.52c.83.82,2.28-.16,2.72.54.22-.12.48-.11.69-.23l0,.28a5.58,5.58,0,0,0,1.57.09l-.15.2c.41,0,.54-.8.91-.8l.1.42c.7,0,1.4.41,2.1,0,0,.06,0,.18-.15.19.33,0,1.27.32,1.16-.26,0,.37.73.05,1.11-.11l-.07.28c.33-.35.34-.45.79-.54.1,0,.09.22,0,.15.35.15.28-.26.7-.1l-.16.17c.36,0,.33-.07.54-.27a.61.61,0,0,1,.73.33.41.41,0,0,1,.47-.28.19.19,0,0,1-.09.19c.6.19.9-.32,1.31,0a.25.25,0,0,0,.07.17,4.38,4.38,0,0,1-.83-.05c0,.25.38.3.07.65.31-.19.85-.6,1.23-.47a.19.19,0,0,1,.05.09l0,0a.28.28,0,0,0,.24,0,1.29,1.29,0,0,0,.31.08c.05.21.45.12.64.13,0-.28.24-.23,0-.47,0,0,0,0-.17,0l-.08,0v0h-.48c.15-.14.31-.26.53-.1.1-.18.21-.36.27-.45.26.39.77.61.84.85.59-.15,1.4-.09,1.77-.61.17-.07.19.15.26.24-.1.05-.22,0-.27.11.34-.13,1,0,1.08-.41.42.17-.24.34.34.28l-.08.12c1.14.59,1.87-.93,3.13-.17-.08-.05-.13-.07-.14-.13,1.44.34,3-.3,4.41.23.4.11.45-.12.69-.3l.09.3.42-.35c.61-.25,1,.75,1.81.26l-.1-.2c.27,0,.86-.12.82.12,0,0,.09-.22.19-.11v.16l.67-.27c.52.11-.08.62.68.66.28-.06.8-.46.7-.57a.32.32,0,0,1-.3-.26l.26-.08c0-.46.24-.94-.39-1.27l-.44.29-.15-.23h.38c-.21-.21-.35,0-.5.1a.4.4,0,0,0-.18-.25l-.44.45c0-.18.2-.36-.09-.46-.2.2.19.4-.14.54-.21-.21-.15-.38-.4-.2a.19.19,0,0,1,.12-.25c-.22.14-.59.06-.7.3-.22-.26-.75.07-.72-.37a1.06,1.06,0,0,1-.6.36c.38-.52-.75,0-.65-.59-.28.47-1,.2-1.48.47,0,0,.08-.12.12-.09-.27,0-.35-.19-.52-.28,0,.4-.46.48-.69.72-.34-.38.2-.45.1-.82,0,.32-.58.32-.47.58-.26-.23-.22-.11-.35-.44,0,.49-.24.08-.45.38-.37-.24-.1-.46-.5-.31C127.05,154.64,127.42,154.47,127.42,154.47Zm-9.68.77h.2Zm-.81,0,.35,0c0,.09,0,.19-.09.19S117.05,155.31,116.93,155.23Zm1.69,2c-.13,0-.17,0-.18-.07l.22,0,0,0A.59.59,0,0,1,118.62,157.2Z"/><path class="cls-4" d="M118.86,156.83l0,0-.07-.06,0,.09Z"/><path class="cls-4" d="M128.21,142.55v0s0,0,0,.05S128.2,142.56,128.21,142.55Z"/><polygon class="cls-4" points="105.75 154.43 105.74 154.5 105.82 154.44 105.75 154.43"/><path class="cls-4" d="M128.91,147.08a.13.13,0,0,0,0,.09A.26.26,0,0,0,128.91,147.08Z"/><path class="cls-4" d="M129.76,148.87l.05.29A1.41,1.41,0,0,0,129.76,148.87Z"/><path class="cls-4" d="M130.42,150.25l.12,0h0Z"/><path class="cls-4" d="M116.92,135.23h-.06C116.72,135.25,116.81,135.25,116.92,135.23Z"/><path class="cls-4" d="M123.81,136.47a1.14,1.14,0,0,1-.25.06C123.67,136.59,123.76,136.62,123.81,136.47Z"/><polygon class="cls-4" points="109.16 133.85 109.16 133.85 109.11 133.84 109.16 133.85"/><path class="cls-4" d="M123.25,136.43a.38.38,0,0,0,.31.1A.57.57,0,0,0,123.25,136.43Z"/><path class="cls-4" d="M134.48,155.47l.05.06,0,0Z"/><path class="cls-4" d="M134.56,155.51l.09,0S134.59,155.49,134.56,155.51Z"/><path class="cls-4" d="M134.82,155.61l-.17-.07S134.74,155.64,134.82,155.61Z"/><path class="cls-4" d="M133.18,153.91l-.09.05A.21.21,0,0,0,133.18,153.91Z"/><path class="cls-4" d="M132.76,153.47c.08.12.07.42.26.53l.07,0C132.91,154,133,153.46,132.76,153.47Z"/><path class="cls-4" d="M132.22,150.71l.22.45c0-.13.09-.31.24-.14C132.58,150.33,132.56,151.26,132.22,150.71Z"/><path class="cls-4" d="M131.5,149.36c.19.19.14-.09.2-.11C131.52,149.16,131.48,149.14,131.5,149.36Z"/><path class="cls-4" d="M127.67,139.15l.25,0C127.85,138.94,127.82,139.15,127.67,139.15Z"/><path class="cls-4" d="M126.13,137.58a1.1,1.1,0,0,1-.14.21l.23-.07Z"/><polygon class="cls-4" points="126.02 135.57 126.11 135.57 125.75 135.54 126.02 135.57"/><path class="cls-4" d="M107.73,130.88l0,.32C107.83,131.19,108,130.86,107.73,130.88Z"/><path class="cls-4" d="M102.89,134.19a.29.29,0,0,0-.15.44C102.78,134.45,102.92,134.29,102.89,134.19Z"/><polygon class="cls-4" points="103.46 156.84 103.29 156.94 103.6 156.87 103.46 156.84"/></g><polyline class="cls-5" points="84.86 154.1 85.29 153.37 85.89 152.86 86.76 152.71 87.03 151.78 87.88 151.6 88.35 150.92 89.22 150.77 89.63 150.02 90.3 149.61 90.91 149.12 91.39 148.46 92.2 148.22 92.91 147.85 93.63 147.5 93.93 146.6 94.84 146.5 95.44 146 95.97 145.4 96.51 144.8 97.08 144.26 98 144.17 98.25 143.22 99.16 143.12 99.68 142.51 100.32 142.06 101.09 141.78 101.72 141.3 102.26 140.71 102.73 140.03 103.39 139.59 103.97 139.05 104.64 138.63 105.48 138.44 105.91 137.69 106.73 137.48 107.4 137.04 107.93 136.44 108.45 135.81 109.24 135.55 109.76 134.91 110.42 134.63 111.16 134.25 111.93 134.33 112.63 134.94 113.45 134.67 114.22 134.79 114.96 135.1 115.74 135.13 116.48 135.44 117.27 135.42 118.08 135.27 118.86 135.36 119.56 135.95 120.38 135.73 121.13 136.01 121.94 135.85 122.68 136.17 123.45 136.29 124.18 136.72 124.97 136.65 125.78 136.5 126.54 136.68 127.3 136.88 128.04 137.19 128.88 136.79 129.62 137.13 130.36 137.44 131.15 137.45 131.96 137.27 132.72 137.49 133.47 137.73 134.21 138.06 135 138.03 135.75 138.32 136.52 138.44 137.34 138.25 138.07 138.64 138.91 138.29 139.61 138.85 140.42 138.72 141.21 138.68 141.95 139.01 142.77 138.78 143.48 139.3 144.26 139.38 145.07 139.2 145.84 139.32 146.6 139.54 147.37 139.63 148.1 140.04 148.86 140.21 149.65 140.21 150.42 140.26 151.19 140.41 152.01 140.11 152.72 140.65 153.46 140.94 154.23 141.07 155.06 140.75 155.81 141.03 156.62 140.83 157.37 141.12 158.15 141.17 158.92 141.27 159.65 141.68 160.4 141.98 161.2 141.86 162.02 141.69 162.74 142.15 163.54 142.03 164.28 142.34 165.05 142.48 165.87 142.26 166.62 142.54 167.41 142.55 168.15 142.92 168.96 142.75 169.74 142.82 170.52 142.91 171.29 142.99 172.03 143.38 172.78 143.66 173.58 143.61 174.39 143.47 175.12 143.89 175.91 143.86 176.72 143.74 177.49 143.86 178.23 144.16 179.03 144.16 179.79 144.35 180.59 144.28 181.32 144.66 182.1 144.75 182.91 144.63 183.7 144.69 184.45 145 185.21 145.23 186 145.26 186.75 145.49 187.51 145.77 188.28 145.96 189.13 145.6 189.94 146.2 189.85 145.13 189.87 144.35 189.95 143.6 189.76 142.81 189.84 142.02 189.99 141.24 190.45 140.58 190.81 139.89 191.29 139.27 191.52 138.49 192.27 138.08 192.4 137.16 193.07 136.72 193.5 136.02 194.07 135.57 194.5 134.96 195.08 134.48 195.44 133.77 196.06 133.31 196.83 133.08 197.53 132.78 197.61 133.57 197.2 134.34 197.8 135.15 197.48 135.91 197.08 136.66 197.21 137.45 196.93 138.21 197.38 139.03 197 139.78 197.01 140.56 196.89 141.33 196.82 142.11 196.59 142.86 196.52 143.64 196.37 144.4 196.77 145.24 196.49 145.99 196.29 146.75 196.13 147.51 196.08 148.29 196.37 149.09 195.96 149.84 196.18 150.64 195.74 151.39 195.84 152.17 195.71 152.95 196.13 153.73 195.58 154.51"/><path class="cls-11" d="M145.41,75.74l-.34.15C142.68,77,128.9,85,137.65,116.66c.2.72.41,1.45.63,2.2-1.87-.08-24.18,3.32-26.67,34.19,0,.19,0,.38,0,.58h-61s-9.51-33,9.79-67C73.18,67.58,108.14,44.74,145.41,75.74Z"/><path class="cls-12" d="M111.61,153.05c0,.19,0,.38,0,.58H67.22c-6.8-12.18-19.62-39.18-7.86-52.3C58.91,103.78,91.79,134.69,111.61,153.05Z"/><path class="cls-12" d="M137.65,116.66C105.46,99.4,64.84,97.12,55.72,97.09,85,66.86,125.37,71.28,145.07,75.89,142.68,77,128.9,85,137.65,116.66Z"/><path class="cls-11" d="M145.09,76.12c.17.06.19-.12-.19-.39h-.42Z"/><path class="cls-11" d="M142.91,73.81c-.5-.24-1.13-.46-1-.06.57.14.62.3,1.25.44.39.27.59.57.47.59.17,0,.54.49.83.53a4.51,4.51,0,0,0-1.69-1.39C142.68,73.77,142.85,73.83,142.91,73.81Z"/><path class="cls-11" d="M100.25,60.69h.29A1.48,1.48,0,0,0,100.25,60.69Z"/><path class="cls-11" d="M74.19,71.66c.17-.13.23-.21.23-.23C74.26,71.56,74.14,71.67,74.19,71.66Z"/><path class="cls-11" d="M70.22,74.52l.23-.18A.65.65,0,0,0,70.22,74.52Z"/><path class="cls-11" d="M100.25,60.69l-.77,0C99.44,60.8,99.87,60.72,100.25,60.69Z"/><path class="cls-11" d="M137.45,70.66a1.48,1.48,0,0,0,.38.16l-.34-.18Z"/><path class="cls-11" d="M112.82,60.26l.23,0,.21-.08Z"/><path class="cls-11" d="M122.32,62.17c-.21-.08-.34.1-.45.16a1.06,1.06,0,0,1,.5,0A.22.22,0,0,0,122.32,62.17Z"/><path class="cls-11" d="M136.08,68.8l.25.12Z"/><path class="cls-11" d="M105.89,59.94a.34.34,0,0,0-.09-.08S105.83,59.91,105.89,59.94Z"/><path class="cls-11" d="M136.9,83.1h0C137,83.05,136.94,83,136.9,83.1Z"/><path class="cls-11" d="M145.43,75.78l-.14.07a.22.22,0,0,0,0,.12Z"/><path class="cls-11" d="M63.67,80.67l0,0C63.83,80.45,63.75,80.55,63.67,80.67Z"/><path class="cls-11" d="M56,154.5c-.92-.18,1.5-.24.12-.45C56.26,154.13,54.87,154.38,56,154.5Z"/><path class="cls-11" d="M137.25,70.51l-.33-.21A3.79,3.79,0,0,0,137.25,70.51Z"/><path class="cls-11" d="M56.13,154.05h0L56,154Z"/><path class="cls-11" d="M53.67,98.73c.06,0,.11-.09.17-.16S53.78,98.6,53.67,98.73Z"/><path class="cls-11" d="M60.74,85.08l-.25.3A2.82,2.82,0,0,0,60.74,85.08Z"/><path class="cls-11" d="M51.44,106.38a2.24,2.24,0,0,0-.16.53l0-.07A1.17,1.17,0,0,1,51.44,106.38Z"/><path class="cls-11" d="M49.51,114.42l.07-.14,0-.26Z"/><path class="cls-11" d="M134.86,108.18a1.39,1.39,0,0,1,.11-.41C134.85,107.92,134.57,106.73,134.86,108.18Z"/><path class="cls-11" d="M137.51,70.56a.34.34,0,0,1-.26,0l.24.13S137.55,70.61,137.51,70.56Z"/><path class="cls-11" d="M53,107.16l-.36,1.24C52.7,108.06,52.83,107.6,53,107.16Z"/><path class="cls-11" d="M110.74,152.77s.05,0,0-.05S110.75,152.75,110.74,152.77Z"/><path class="cls-11" d="M51.66,112.12a3.14,3.14,0,0,0-.28.68.41.41,0,0,0,0,.16Z"/><path class="cls-11" d="M135,107.77Z"/><path class="cls-11" d="M133.64,99.13c0,1.27.28.59.44.85.11,1.51-.18.71-.32,1.23.15.94.5,1.64.56,2.33,0,.06,0,.2-.11,0a11.8,11.8,0,0,1,.33,2c.05.38.1.76.16,1.11a6.24,6.24,0,0,0,.31,1,.26.26,0,0,1,0,.16c.11-.21.24-.26.35-.24.11.55.36,1,.22,1.23a.9.9,0,0,0-.22-.5l.19.57c-.16.56-.24-.78-.43-.75a26.55,26.55,0,0,1,.85,3.27c-.21.23-.47-2-.47-.81l-.16-1.35c-.2,1.09-.13-.83-.37.2.28,1.78.47,2,.81,3.72.24.36.17-.18.41.18.89,2.39-.11,2.09.69,3.82a6.65,6.65,0,0,1,.45.57.76.76,0,0,1,.2.6,2.77,2.77,0,0,0-.39-.34,1.13,1.13,0,0,1,0,.15s-.06,0-.08.08a1.42,1.42,0,0,1-.12.13c-.13.09-.16.1-1,.21a4.13,4.13,0,0,1,.7-.24c.14,0,.24-.06.16-.06a.79.79,0,0,0-.43,0,.88.88,0,0,0-.32.13,1.58,1.58,0,0,1-.73.34l-.25-.2a30.3,30.3,0,0,0-5.55,2.41c.07-.12.36-.34-.12-.2a53.2,53.2,0,0,0-6.81,4.51,7.89,7.89,0,0,0-.56.82c-.16.16-.36.23-.22,0-.74.66.06.13-.2.54s-.61.45-.41.15c-.53.7-1.34,1.64-2,2.7s-1.49,2-2,2.77l.12-.35c-.8,1.19-.43,1.62-1.27,2.65l.09-.24c-.76,1.34-1.34,2.86-2,4.24a31.36,31.36,0,0,1-1.47,3.87c.11.49-.81,2.94-.45,3.22-.29.83-.43,1.13-.58,1.51-.07.19-.15.4-.25.72s-.15.74-.27,1.35.16,1,.12,1.82H111l.12,1.12c-.12.18-.24.43-.33.38a.87.87,0,0,1,0,.21.16.16,0,0,1,.18-.09.74.74,0,0,1,0,.21v.1h-.11l-.21,0a1.34,1.34,0,0,0-.24,0,2.78,2.78,0,0,1-1-.22l-2.79.19a3,3,0,0,1,.9-.18c-1.49.24-.27-.24-1.63,0,.18.06-.1.14-.13.19a17.79,17.79,0,0,0-3.37-.08l.22-.16c-2.06,0-4.35.07-6.67.07.83.07.64.35,0,.38l-.27-.25c-.44.15.71.09-.19.28-.87,0-.59-.28-.09-.36l-1,.09c-.06-.08.18-.11.25-.21-.43.15-1.82-.24-2.44,0l-.06-.07c-2.32,0-3.37.08-5.26.09,0,.21-.77.17-1.33.34-1.39-.07-2.93-.24-4.6-.22-1.18.11-.34.18-.87.31-.09-.2-1.76-.18-.89-.32-2,0-2.56,0-5.1.2.27.08.58.11.42.18-.46,0-1-.08-1-.18l.12,0c-2.84.29-6.57-.56-8.84-.16l.13,0-2.35.21c-1.08,0,.65-.14-.15-.26-2.54.32-4,0-6.1.17a12.43,12.43,0,0,0-3.75-.24H51.9a3.48,3.48,0,0,0-.39,0c-.07,0-.16,0-.16-.06l-.1-.54a7.3,7.3,0,0,1-.09-.88l-.11.15c-.24-.52-.06-.67-.12-1.08-.09.08,0,.62-.13.29A65.32,65.32,0,0,1,49.53,136c0-1.77-.72-1-.43-3.24.07.22.17.43.25.64a49.36,49.36,0,0,1,0-5.44c.16-1.81.29-3.62.34-5.38a1.69,1.69,0,0,1,.07.57,7.12,7.12,0,0,0,.22-2.74c.09-.54.15-.11.27-.43.2-.72,0-1.88.25-2.25,0-.06,0,.22,0,.36-.06-.5.42-2.21.12-1.8.36-1.27.4-2.49.73-3.49-.13-.73.6-2.17.35-2.46.3.17.86-2.16.92-3,0,.29.29-.67.34-.32.22-.92.42-1.77.22-1.66.95-1.53.83-3.43,1.63-4.2a36,36,0,0,1,1.28-3.88c.47-1.25.93-2.45,1.38-3.64.27.22-1.07,2.6-.7,2.64.4-1.13.68-2,1-3a27.45,27.45,0,0,1,1.34-2.78c.33-.53,0,.38-.07.59.49-1.1,1-2.13,1.55-3.13l.39-.75.09-.18a.55.55,0,0,1,.08-.13l.23-.34c.31-.45.59-.91.87-1.37a1.61,1.61,0,0,1-.19.43c.22-.36.62-.76.47-.81l-.22.35c-.59.4.65-1.61.6-1.75-.11.83,1.43-1.57,1.14-.34.15-.23.32-.54.2-.56.29-.29.42-.35.24,0a14.89,14.89,0,0,1,1.35-1.92s-.11.28-.14.44a7.23,7.23,0,0,1,1.57-2c0,.08.12,0-.12.27.69-.71,1.2-1.4,1.79-2a13.26,13.26,0,0,1,2.08-2c-.27.67.63-.4.9-.27.27-.28.56-.54.85-.8l-.46.18a23.89,23.89,0,0,1,2.15-1.83l-.54.56c.49-.42,1-.8,1.52-1.19l-1,.56c.76-.74-.3-.22.86-1a9,9,0,0,1,1.38-.77h0a6.11,6.11,0,0,1,1.43-1.09c.22,0,0,.34.18.32.29-.48,2-1.31,2.43-1.86-.15.16-.09.29,0,.28l.27-.37c.45-.18.52-.18.51,0,1.28-.66-.57-.1,1-.78-.11.08,0,.07-.27.23l2.2-1.15a14.1,14.1,0,0,1,2.16-1c.54.08-1.23.61-.64.61a39.48,39.48,0,0,1,6.31-2.69l-.4.09c.17-.46,1.6-.34,2.63-.77-.26.1-.29.3-.23.24a22.68,22.68,0,0,0,2.29-.62l2.87-.74-.26.15c.88-.06,2.31-.26,3.26-.34.27-.13.82-.15.47-.28a22.89,22.89,0,0,0,4.24-.07,12,12,0,0,1,4,.19c-.31,0-.75,0-.5.06h1.11l1.11.09c-.16-.19-.28-.14-.73-.33a5.08,5.08,0,0,1,1.47,0c-1,0,0,.27.4.42-.07-.06.09-.1.06-.16,1.11.46.25-.36,1.78.13l-.09.08a14.19,14.19,0,0,1,1.78.19c.22.24-.64,0-.71.13a10,10,0,0,0,1.34.08,3.14,3.14,0,0,1,1.23.3c-.38,0-.92-.18-1.3-.21a5.83,5.83,0,0,0,1.55.61l-.06,0L121,63l-.36-.15c1.24-.25,2.22.59,3.78.71-1.52-.15-.29.1-.48.28.35.18.88.43.7.44.73.09,1.06.58,2.09.7,0,.08.71.29.49.4.89.28-.15-.2,0-.26a7.82,7.82,0,0,1,2.26,1,18.44,18.44,0,0,0,2.68,1.25c1.62.75,2.07.64,3.55,1.41.41.39-.53,0-.53,0a10.59,10.59,0,0,0,2.06,1.3c-.18,0-.05.1.12.3.59.35.54,0,1.23.6a3.41,3.41,0,0,1-.73-.13c.71.37,1.42.74,2.15,1.16.1.23-.52-.13-.81-.23a11.3,11.3,0,0,0,2.4,1.31l-.45-.41c.29.19,0,.24-.18.13-.75-.34-.91-.73-.9-.81l.51.3c-.27-.68-2-1.36-3-2h.59L137,69.86c-.18-.21-.24-.45.29-.18-.65-.59-.71-.31-1.24-.85-.06-.06,0-.06.05,0l-.76-.36c.17,0,0-.27.41,0-1.2-.95-2.25-1-2.63-1.48l.12,0c-1.89-.91-.28.1-1.79-.4l-.7-1-.29.12c-.19-.1-.57-.3-.46-.35-.8-.2.08.15-.4.09a8.06,8.06,0,0,0-1.66-.84c-.58-.22-1-.42-1.09-.64-.41,0,.87.49-.2.2-.16-.48-1.22-.43-2-.91.35-.12,1.15.33.32-.19-.66.15-1.74-.64-2.53-.83-.06.13-.48,0-1.06-.15s-1.33-.34-2-.47a5.82,5.82,0,0,0-1.33-.44c-.78-.19-1.73-.4-2.34-.57l0,0a8.25,8.25,0,0,1-2.5-.06c0-.16.23-.2.75-.21l-.89-.11a3.21,3.21,0,0,1-1.07,0l.24-.18c-1.19-.1-2.4.07-3.92-.12-.08.19,1.19.53-.4.67-.06-.11-.12-.28.3-.33a3.32,3.32,0,0,1-.77.05l.65-.18c-.7-.07-.37.15-.92.13,0-.14-.41-.1-.33-.22a3.17,3.17,0,0,0,.69,0,6.45,6.45,0,0,1-1.63-.21c0,.08,0,.19-.45.22-1.18.1-.42-.15-1.11-.17-.28.12-1,.06-1,.29a.94.94,0,0,1-.56-.13c-.6.14-2.84.39-2.12.53h.15l-.09,0h0c-1,.22-2,.39-3,.54a18,18,0,0,0-3,.63v-.08A24.44,24.44,0,0,0,91.32,63c-.34.1-.83.14-.72,0a9.94,9.94,0,0,1-2.17.82c.81-.44-.34,0,.85-.42a7.26,7.26,0,0,0-2.52,1c.32-.34-.91.13-1.41.41l.82-.21-1.59.73.17-.36a11.37,11.37,0,0,0-2.94,1.58,9.44,9.44,0,0,1-2.55,1.37c-.45.48,1.19-.58.81-.1-1,.55-2.16.84-2.45,1-1.34.75-1,1.09-2.34,1.93.21,0,.5,0-.4.8s-1.33.51-.8,0c.21-.17.33-.22.34-.19.27-.24.63-.55.21-.37l-.06.16c-.51.25-1.72,1.18-1.52.85-.61.6-.19.34.32,0-1.19.8-1.77,1.37-2.92,2.28.2-.12.43-.18.26,0-1.7,1.34-.63.73-1.66,1.76-.7.47,0-.44-1,.65-.72.55-.31,0-.09-.34a20.38,20.38,0,0,1-2.44,2.22L66,78c-.26.34-.52.58-.75.84l.4-.17c-.31.28-.54.55-.59.49-.2.4.44,0,0,.69-.44.35-1.05,1.31-1.34,1.32,1.19-1.27-.32,0,.64-1.15a8.84,8.84,0,0,1-.71.78c-.06,0,0-.07.07-.17-1.24,1.15-.3.76-1.4,2.1,0-.26-.44.16-.59.4.43-.55.38-.13.07.44a6.71,6.71,0,0,0-1,1.47l.42-.51a5.2,5.2,0,0,1-.77,1.36c-.12,0,.35-.61.15-.42a2,2,0,0,1-.34.6c-.07.1-.14.17-.25.31l-.22.32a6.31,6.31,0,0,0-.83,1.47c-.34.44-.25-.07-.53.33-.46,1.27-.82,1.2-1.34,2.52.34-.28.34-.37,0,.59l1-2.11L57.57,91c.32-.61.57-1.35.79-1.7-.19.69-.2.6.09.38-.68.72-.73,1.74-1.4,2.63l-.38-.22c-.92,1.4-1,2.79-1.93,4.71l.34-.6a11.08,11.08,0,0,1-.7,1.89c-.11-.11-.33.27-.54.51.09,0-.55,1.47-.33,1.76l-.5.84c-.63,1.62-.24,2-.82,3.57,0-.52-.34.16-.09-.93-.18.53-.37,1-.27,1-.22.28-.23,1.54-.5,2a1.86,1.86,0,0,1,0,1s-.07,0-.07,0-.16,1,.14.49a13.17,13.17,0,0,0-1,3.06,13.61,13.61,0,0,1-.75,3c-.17,1.2-.48,2.63-.58,3.73,0-.08-.07,0,0-.22-.34,1.49.3,1-.09,2.67-.36.85,0-.92-.17-.39-.5.18-.24,2.07-.62,3.2V123c-.23.87,0,2.18-.14,3.63,0,0,0-.08-.07,0,.13,1,.18,2.89.21,4.28-.18-.44-.08-.63-.29-.37,0,.62.32-.18.34,1.07-.11.4-.24,1.3-.44,1.42l0-1.18c-.3.6,0,1.53,0,2.15l-.12-.08c.08,1.81.35,1.83.4,3.77l.07-.2c.36,1-.1.89.18,1.94l-.27.33c.06.35.16,1,.28,1.63s.29,1.42.38,2a18.54,18.54,0,0,1-.74-3,11.14,11.14,0,0,0,.41,2.7,3.46,3.46,0,0,1-.15-.9,15,15,0,0,1,.71,3.3c-.62-.17.36,3.58.14,4.65.16.6.32,1.19.45,1.8.07.3.13.61.2.91.11.48.23,1,.35,1.46,0,.18.15.13.28.14h.38l.8,0,1,0c.66,0,1.34,0,2,0-1-.44.83,0,.65-.47a3.7,3.7,0,0,1,1,0l2,.27c.47.14-.63.11-.57.21,1.45,0,.61.19,1.56.31-.19-.16.51-.23,1.33-.17l-1.16-.21c2-.24,1.75.39,3.79.14l-.65.15c1-.09,3.86,0,4.89-.37.18.06.43.18,0,.21,2.5.06,5.57-.39,7.51-.16l-.19.11a4.44,4.44,0,0,1,1.4-.1c0,.05-.19.12,0,.12a8.89,8.89,0,0,1,1.85-.13l-.53.13c2.44.14,3.75-.31,5.79-.39,0,.33,1.91.44,2.87.49l0,.05c2.84,0,4.82-.27,7.45-.4,1.63.36,5.53.15,8.15.35-.4-.06.07-.26.53-.29.62.07,1.7-.23,1.61.07h-.22a7.59,7.59,0,0,0,2.71.22l.17-.39a11.09,11.09,0,0,0,2.17.21c.39,0,.78,0,1.18,0l1.46,0,.93,0h.12s0-.07,0-.1l0-.23,0-.45q.09-.75.15-1.41a5.06,5.06,0,0,1,.36-1.46c0-.62.06-1.38,0-2l.2.07c.3-1.68.59-2.48,1-4.54l.06.45a3,3,0,0,0,0-1.37,2.94,2.94,0,0,1,.08-1.29l.41-.22c.32-1,.69-2,1.06-2.9a17.56,17.56,0,0,0,1.16-2.85s.09.15,0,.46c.32-.93,2-3.15,1.4-3.09.13.07.41-.38.71-1s.74-1.26,1-1.76l.07.26A6.12,6.12,0,0,1,121,129c.23-.21.31-.09,0,.18.79-.68.41-.72,1.35-1.57l-.22.44a3.6,3.6,0,0,0,.93-1.3,4.8,4.8,0,0,1,1.81-1.24,2.07,2.07,0,0,1,.93-1c.11,0,0,.17-.13.26a13,13,0,0,0,1.74-1.27,4.74,4.74,0,0,1,1.49-.88.25.25,0,0,0,.24,0c-.61.36-1.18.65-1.55.9a3.86,3.86,0,0,1-.55.35c.11.16,1-.46.46.28a10.72,10.72,0,0,1,1.31-1.12,6.17,6.17,0,0,1,1.59-1h.16l-.1.07a3,3,0,0,0,.62-.32c.34-.12.55-.2.86-.34a7.47,7.47,0,0,0,1.76-.57c-.11-.18.6-.41-.11-.33.09,0-.09.06-.44.2a1.5,1.5,0,0,0-.22.11l0,0c-.35.15-.81.29-1.31.54a2.84,2.84,0,0,1,1.41-.64c.23-.23.48-.48.64-.61a19.16,19.16,0,0,1,2.56,0l.49-.14a1.51,1.51,0,0,1,.34-.07l.42-.06.83-.12.92-.08c-.12-.47-.28-1-.41-1.41s-.29-.92-.36-1.11a6.51,6.51,0,0,0-.59-1.21,1.11,1.11,0,0,1,0-.79,6.38,6.38,0,0,0,.29.74c-.35-.94-.8-2.86-1.13-3-.18-1.25.39.64,0-1l.13.21a17.32,17.32,0,0,0-1-4.42c-.11-.35-.22-.7-.31-1.06s-.14-.73-.19-1.12a14,14,0,0,1-.13-2.58,1,1,0,0,1-.05.45c0-.54-.06-1.08-.11-1.62s0-1.1,0-1.65c0-1.1-.07-2.21-.11-3.31s.14-2.2.23-3.29a19.16,19.16,0,0,1,.68-3.15,9.29,9.29,0,0,0,.28-2.06l.29-.18.11-1.28c.47-1.76,1.63-2.63,2.48-4.7l-.28.17c.41-.69,1.44-2.12,1.47-1.91a.62.62,0,0,1,.32-.49l.1.06a15.46,15.46,0,0,1,1.24-1.54c.61-.48.64-.34.73-.28s.23,0,1.12-.56c.61-.52,1.81-1.4,1.52-1.34s-.79.29-.86.21c.21-.14.43-.27.65-.4,0-.19.12-.42,0-.55s-.56-.14-1.49.27a10.68,10.68,0,0,0-1,1l-.47.13,1-.7A2.58,2.58,0,0,0,142,77a1.1,1.1,0,0,0-.56.24,9.86,9.86,0,0,0-.76,1.18c-.21,0,.23-.64-.46,0-.32.57.64-.23,0,.6-.56.38-.55.15-.9.85-.14,0-.09-.13.07-.4-.32.62-1.09,1.48-1.1,1.89-.51.49-1.11,2-1.37,1.81a12.4,12.4,0,0,1-.49,1.8c0-.6-.2-.07-.48.57s-.48,1.41-.66,1.2a6.76,6.76,0,0,1-.36,2,16.8,16.8,0,0,0-.37,2.5,1,1,0,0,1,0-.39,12.61,12.61,0,0,1-.49,1.57c.25.15.24,1.46.36,2.17-.36,1-.3-.65-.59-.36.24,0,.1,1.8.32,1.47-.23.77-.14.66-.41,1.06.37.15.08.73.32,1.38-.16,1.13-.34.3-.2,1.54C133.79,100.24,133.64,99.13,133.64,99.13ZM129.51,121h0l.55-.27Zm-2.17,1.23.94-.53c.12,0,.07.13-.15.25C128.23,121.8,127.7,122.06,127.34,122.19Zm5.24-1c-.34.15-.47.16-.54.14l.61-.26,0,0A.41.41,0,0,1,132.58,121.2Z"/><path class="cls-11" d="M133.12,120.7l.14-.07-.23,0-.1.1Z"/><path class="cls-11" d="M100.6,60.68h0Z"/><polygon class="cls-11" points="110.9 151 110.95 151.01 110.93 150.79 110.9 151"/><path class="cls-11" d="M114,61.37a.44.44,0,0,0,.16.08S114.08,61.4,114,61.37Z"/><path class="cls-11" d="M119.64,62.52l.77.27C120.08,62.66,119.83,62.58,119.64,62.52Z"/><path class="cls-11" d="M123.85,63.87a.21.21,0,0,0,.11-.06h0Z"/><path class="cls-11" d="M62.06,85.66,62,85.8C61.77,86.15,61.92,85.92,62.06,85.66Z"/><path class="cls-11" d="M76.72,70.83c-.16.16-.32.31-.5.46C76.54,71.09,76.78,70.94,76.72,70.83Z"/><path class="cls-11" d="M53,107h0l0,.14Z"/><path class="cls-11" d="M75.43,71.86a3.93,3.93,0,0,0,.79-.57A7.56,7.56,0,0,0,75.43,71.86Z"/><path class="cls-11" d="M140.69,72.92l.17.13s0,0,0,0Z"/><path class="cls-11" d="M140.9,73l.21.12A1,1,0,0,0,140.9,73Z"/><path class="cls-11" d="M141.55,73.4l-.44-.25A1.33,1.33,0,0,0,141.55,73.4Z"/><path class="cls-11" d="M135.86,69.58l-.09,0A.08.08,0,0,0,135.86,69.58Z"/><path class="cls-11" d="M134.33,68.68c.37.21.83.69,1.36,1l.08,0C135.47,69.57,134.76,68.74,134.33,68.68Z"/><path class="cls-11" d="M128.05,64.48c.47.2.91.46,1.36.69-.21-.19-.48-.44.15-.16C127.93,64,129.85,65.33,128.05,64.48Z"/><path class="cls-11" d="M123.69,62.72c.79.22,0-.11.08-.14C123.26,62.49,123.13,62.47,123.69,62.72Z"/><path class="cls-11" d="M90.26,63V62.8C89.69,63.05,90.29,62.88,90.26,63Z"/><polygon class="cls-11" points="84.69 66.42 85.28 66.26 85.47 65.98 84.69 66.42"/><path class="cls-11" d="M80.67,67l.23-.16c-.29.2-.6.37-.89.58C80.23,67.25,80.45,67.12,80.67,67Z"/><path class="cls-11" d="M49.61,112.94l.27-.14C49.92,112.38,49.68,112.23,49.61,112.94Z"/><path class="cls-11" d="M47.8,137.45a2.72,2.72,0,0,0,0,1.39C47.79,138.28,47.85,137.73,47.8,137.45Z"/><polygon class="cls-11" points="107.61 154.56 107.11 154.64 108.04 154.58 107.61 154.56"/><polyline class="cls-5" points="149.38 78.18 148.6 78.06 147.97 77.42 147.11 77.59 146.32 77.53 145.67 76.9 144.92 76.68 144.12 76.67 143.41 76.31 142.55 76.56 141.78 76.45 141.06 76.08 140.28 75.97 139.52 75.83 138.78 75.51 137.99 75.51 137.18 75.6 136.49 74.98 135.72 74.83 134.88 75.12 134.13 74.8 133.33 74.91 132.57 74.67 131.78 74.67 131.02 74.47 130.25 74.33 129.47 74.36 128.71 74.05 127.93 74.01 127.15 73.97 126.36 73.98 125.57 74.11 124.81 73.85 124.02 73.86 123.25 73.71 122.47 73.52 121.67 73.86 120.89 73.73 120.11 73.67 119.32 73.6 118.54 73.46 117.75 73.78 116.97 73.64 116.19 73.88 115.39 73.42 114.61 73.52 113.83 73.78 113.04 73.66 112.27 73.84 111.49 73.98 110.7 73.97 109.89 73.66 109.13 74.02 108.33 73.96 107.55 73.98 106.8 74.37 106 74.35 105.18 74.14 104.43 74.47 103.69 74.86 102.85 74.58 102.09 74.83 101.29 74.79 100.58 75.33 99.8 75.44 98.99 75.39 98.18 75.39 97.49 75.93 96.64 75.73 95.95 76.25 95.18 76.39 94.34 76.29 93.65 76.73 92.94 77.08 92.18 77.26 91.34 77.18 90.6 77.43 89.86 77.67 89.22 78.25 88.41 78.28 87.75 78.76 86.91 78.71 86.12 78.83 85.52 79.46 84.68 79.43 84.01 79.88 83.39 80.42 82.63 80.62 81.89 80.86 81.22 81.26 80.46 81.47 79.64 81.55 78.94 81.89 78.38 82.53 77.67 82.85 76.8 82.83 76.3 83.57 75.57 83.85 74.81 84.08 74.08 84.38 73.41 84.77 72.73 85.17 72.03 85.51 71.37 85.93 70.86 86.6 70.03 86.72 69.24 86.92 68.65 87.45 68.13 88.08 67.49 88.53 66.81 88.92 66.07 89.19 65.48 89.71 64.81 90.1 64.02 90.33 63.56 91.02 62.88 91.39 62.4 92.06 61.71 92.43 60.91 92.66 60.52 93.43 59.8 93.76 59.04 94.04 58.69 94.84 57.96 95.18 57.24 95.53 56.95 96.37 56.1 96.56 55.55 97.26 56.43 97.4 57.2 97.25 57.97 96.93 58.74 96.83 59.53 97.09 60.3 96.85 61.08 97.03 61.85 96.75 62.63 96.99 63.41 96.94 64.19 96.8 64.97 97.09 65.74 97.31 66.51 97.13 67.3 96.8 68.06 97.28 68.84 96.99 69.61 97.16 70.37 97.47 71.16 97.11 71.92 97.42 72.71 97.25 73.48 97.34 74.26 97.35 75.05 97.25 75.78 97.76 76.55 97.88 77.32 98 78.13 97.75 78.87 98.17 79.69 97.82 80.42 98.3 81.21 98.19 81.95 98.48 82.78 98.19 83.48 98.78 84.26 98.79 85.04 98.84 85.81 98.94 86.56 99.19 87.33 99.32 88.1 99.39 88.85 99.64 89.68 99.47 90.44 99.65 91.24 99.66 92 99.84 92.7 100.32 93.48 100.37 94.27 100.43 95.06 100.5 95.74 101.03 96.59 100.86 97.24 101.46 98.07 101.41 98.76 101.86 99.57 101.86 100.27 102.27 101.01 102.55 101.77 102.76 102.62 102.69 103.25 103.27 104.14 103.06 104.87 103.32 105.49 103.94 106.25 104.12 107.07 104.14 107.83 104.34 108.42 105 109.2 105.14 109.92 105.43 110.76 105.42 111.49 105.71 112.17 106.12 112.91 106.37 113.54 106.9 114.28 107.16 115.1 107.22 115.85 107.46 116.4 108.15 117.25 108.17 117.98 108.46 118.68 108.81 119.26 109.42 119.95 109.78 120.85 109.72 121.36 110.48 122.24 110.45 122.95 110.78 123.45 111.55 124.2 111.8 125.01 111.92 125.61 112.48 126.44 112.56 126.94 113.31 127.68 113.58 128.44 113.83 129.12 114.2 129.96 114.3 130.47 114.99 131.08 115.51 131.85 115.73 132.53 116.11 133.26 116.42 133.84 117 134.67 117.12 135.39 117.45 135.96 118.03 136.63 118.42 137.31 118.8 138.11 118.98 138.62 119.64 139.35 119.95 139.97 120.43 140.65 120.81 141.32 121.2 142.05 121.5 142.6 122.08 143.28 122.45"/><polyline class="cls-5" points="111.55 153.64 110.92 153.17 110.37 152.61 109.89 151.98 109.29 151.47 108.77 150.88 108.15 150.39 107.69 149.74 107.14 149.19 106.5 148.72 105.93 148.18 105.44 147.55 104.93 146.95 104.35 146.42 103.84 145.82 103.34 145.2 102.82 144.62 102.1 144.23 101.72 143.5 101.12 142.99 100.61 142.4 100.09 141.82 99.44 141.36 98.86 140.84 98.28 140.31 97.8 139.69 97.26 139.13 96.75 138.53 96.12 138.06 95.7 137.39 94.97 137.01 94.49 136.39 93.87 135.91 93.36 135.32 92.78 134.79 92.26 134.21 91.62 133.74 91.09 133.16 90.63 132.52 90.08 131.97 89.5 131.44 89.08 130.74 88.31 130.41 87.85 129.75 87.42 129.06 86.8 128.57 86.32 127.93 85.58 127.56 85.14 126.9 84.55 126.37 84.01 125.8 83.45 125.25 82.95 124.64 82.39 124.09 81.86 123.52 81.13 123.14 80.64 122.51 80.13 121.91 79.61 121.33 79.04 120.78 78.36 120.34 77.93 119.66 77.27 119.2 76.85 118.5 76.25 117.99 75.73 117.4 75.02 116.99 74.66 116.24 74.08 115.7 73.53 115.15 72.94 114.62 72.45 113.99 71.69 113.63 71.14 113.06 70.81 112.28 70.03 111.95 69.58 111.28 69.12 110.62 68.47 110.15 67.96 109.54 67.41 108.98 66.7 108.57 66.37 107.8 65.72 107.34 65.22 106.72 64.7 106.13 63.99 105.72 63.49 105.09 62.86 104.61 62.31 104.04 61.89 103.35 61.22 102.9 60.7 102.29 60.15 101.72 59.57 101.18 58.94 100.69 58.57 99.94 57.78 99.6 57.27 98.99 56.78 98.34 56.17 97.83 55.72 97.09 55.57 97.99 55.34 98.75 55.37 99.55 55.12 100.31 55.16 101.1 55.25 101.9 54.95 102.65 55.13 103.45 54.98 104.22 54.93 105 54.98 105.78 54.86 106.56 54.9 107.35 54.79 108.13 54.9 108.91 54.76 109.7 54.91 110.48 54.76 111.27 55.08 112.04 54.97 112.83 54.93 113.61 55.03 114.39 55.14 115.17 55.06 115.96 55.35 116.72 55.43 117.5 55.53 118.28 55.5 119.08 55.68 119.85 55.82 120.62 55.93 121.4 56.11 122.17 56.17 122.96 56.47 123.7 56.35 124.53 56.7 125.27 56.86 126.04 56.9 126.84 57.16 127.6 57.39 128.34 57.53 129.11 57.81 129.83 57.91 130.61 58.05 131.38 58.26 132.13 58.53 132.86 58.91 133.55 59.19 134.28 59.27 135.07 59.59 135.79 60.01 136.46 60.31 137.17 60.32 138 60.63 138.71 61.15 139.33 61.37 140.08 61.5 140.87 62.07 141.46 62.31 142.2 62.69 142.87 63 143.58 63.37 144.25 63.71 144.94 63.81 145.76 64.28 146.4 64.64 147.08 65.1 147.71 65.28 148.49 65.85 149.05 66.16 149.76 66.68 150.35 66.89 151.13 67.37 151.73 67.93 152.28 68.36 152.92 68.52 153.72"/><line class="cls-5" x1="53.64" y1="95.45" x2="39.36" y2="92.36"/><circle class="cls-6" cx="72.64" cy="46.06" r="16.16"/><circle class="cls-13" cx="72.64" cy="46.06" r="16.16"/><polygon class="cls-6" points="56.37 46.06 56.48 45.78 56.23 45.69 56.37 46.06"/><path class="cls-6" d="M57.36,44.8a2.42,2.42,0,0,1-.07-.47c-.77.19-.53-.16-1.1.55.1.29.33.88.62.8,0-.18-.29-.47-.18-.75.2.14.16.43.43.58.25-.43-.16-.28,0-.76Z"/><path class="cls-6" d="M56.68,44.18a1.26,1.26,0,0,0,.34.12C56.9,44.24,56.78,44,56.68,44.18Z"/><path class="cls-6" d="M56.64,43.88c.08-.3.27,0,.32,0l-.42-.41Z"/><path class="cls-6" d="M56.88,42.64a.76.76,0,0,0,0-.15C56.79,42.52,56.84,42.58,56.88,42.64Z"/><path class="cls-6" d="M57,42c-.19.08-.13.26-.11.47h0a.23.23,0,0,1,.31.34c0,.3-.29.21-.12.5l.32-.29C57.47,42.59,57.07,42.24,57,42Z"/><path class="cls-6" d="M56.88,42.64a.44.44,0,0,1,0,.16C56.94,42.74,56.92,42.69,56.88,42.64Z"/><polygon class="cls-6" points="56.73 43.25 56.78 43.42 56.92 43.41 56.73 43.25"/><path class="cls-6" d="M57.24,41c.39.2-.26.69.07.87.08-.4.49-.6.71-.44V41C57.92,40.8,57.53,40.86,57.24,41Z"/><path class="cls-6" d="M58.64,40.61a.19.19,0,0,1,0-.12S58.6,40.58,58.64,40.61Z"/><path class="cls-6" d="M58.85,38.29a8.55,8.55,0,0,0-.05,1.13c-.1-.15-.24-.18-.19-.42-.25.39,0,.57-.21.88-.45-.07.25-.61-.19-.58a.88.88,0,0,0,0,1l-.42.29.49,0c.19-.1-.23-.45.11-.42s.19.2.19.32c0-.29.63-.5.79-1S58.85,38.73,58.85,38.29Z"/><polygon class="cls-6" points="59.32 38.52 59.52 38.55 59.28 38.47 59.32 38.52"/><path class="cls-6" d="M59.38,37.24l0,.62a.58.58,0,0,1-.26,0c.1,0,.19.26.27.28.5,0,.21-.62.32-.9.61-.5.17.15.67.15-.12.16-.23.1-.4.33.64-.11.63-.78.7-1.1-.08,0-.2,0-.26.13l.07-.33C60,36.45,59.75,36.62,59.38,37.24Z"/><path class="cls-6" d="M58.88,38.07c.07-.19.14-.24.2-.22C59,37.83,58.85,37.85,58.88,38.07Z"/><path class="cls-6" d="M60.74,36.47s-.07.06-.09.14S60.72,36.56,60.74,36.47Z"/><path class="cls-6" d="M60.16,36.4l.26-.27h-.25C60.16,36.18,60.07,36.34,60.16,36.4Z"/><path class="cls-6" d="M72.66,30.92c0-.18-.17-.26-.45-.21,0-.23.4-.22.57-.33-.38-.17,0-.28-.09-.51-.44,0-.62.31-1.09.27a.28.28,0,0,0-.06-.24,5.67,5.67,0,0,1-2,.42,3.52,3.52,0,0,0-1.42.48,18.33,18.33,0,0,0-5.28,2.62l0,.53c-.23-.13-.36.31-.51,0,.12,0,.16-.14.27-.22-.59,0-.84.79-1.32,1,.1,0,.43.23.38.39-.33-.38-.4.45-.92.18-.47.29.31.3-.11.65.19.23.45-.29.68-.21.07.28-.39.29-.14.47.64-.5,1.26-2.08,2.29-3l.05.31a2.33,2.33,0,0,1,2-1c-.23-.18.93-.28.59-.79.21,0,.25,0,.48-.05v-.19c.33-.12.38.17.74,0-.33-.15-.09-.32,0-.56a12.38,12.38,0,0,1,1.53.34.53.53,0,0,0-.27-.23c.29,0,.18-.21.23-.31.25-.08.3.25.33.42.47,0,.56-.68,1-.52l-.17-.24c.49-.13.94,0,1.47-.05.29.35-.42.32-.61.53.11.07.34,0,.42.17a7.75,7.75,0,0,1,.86-.66C71.8,31,72.48,30.9,72.66,30.92Z"/><path class="cls-6" d="M71.19,31.18a.61.61,0,0,0-.13.16.17.17,0,0,1,.17-.05A.14.14,0,0,0,71.19,31.18Z"/><path class="cls-6" d="M72.66,30.92v0S72.7,30.93,72.66,30.92Z"/><path class="cls-6" d="M69.43,30.3l.08,0h-.08Z"/><path class="cls-6" d="M69.29,31.59a2,2,0,0,0-.46-.18C68.91,31.52,69,31.6,69.29,31.59Z"/><path class="cls-6" d="M66.16,32.36c-.07.09,0,.14,0,.25C66.34,32.53,66.37,32.42,66.16,32.36Z"/><polygon class="cls-6" points="71.78 31.22 72.17 31.11 72.31 31.04 71.78 31.22"/><path class="cls-6" d="M80.2,31.65c-.2-.44-.8-.53-1.21-.78-.88-.15-.36.61-1.13.37l.35-.57a6.84,6.84,0,0,0-1.34-.38,1.88,1.88,0,0,0-1.35.14c0-.09-.17-.21.06-.27-.55-.06-.43.88-1.09.56.7-.3-.16-.42.06-.79l.11,0c-.46-.06-1.09.18-1.39.12,0,.17.23.44-.17.44.16,0,.09.23.07.4.41-.17.62,0,.88-.25.21.23-.15.06,0,.29a2.6,2.6,0,0,1,.34-.16c.23.08-.26.18.09.28a.65.65,0,0,1,.66-.14l-.1.06c.23-.05.53.1.49-.27l.19.39v-.25c.58.25.64.87,1.47.78-.15-.14.05-.21.16-.22-.26-.27-.45.07-.75,0,0-.25.62-.4.29-.64.33.37.78.2.75.85.44.21.74,0,1.15.31l0,.08c.25-.33.29.35.81.13l-.21-.2c.09-.15.21-.09.39,0,0,.05,0,.05,0,.15.19-.25.74,0,.84-.05-.18-.18-.58-.09-.87-.15C79.93,31.74,80,31.5,80.2,31.65Z"/><path class="cls-6" d="M74.91,31.06l.18-.12A.27.27,0,0,0,74.91,31.06Z"/><path class="cls-6" d="M81.91,33.34c.22.24-.22.15-.06.43.39,0,0-.56.39-.61.06.26.51.21.63.29-.24,0-.41.41-.42.5.18,0,.25.33.4.48-.22-.54.43.19.25-.33.18-.16.67.06.7.33-.12.11-.22,0-.33-.11-.29.16.14.35,0,.61.67,0,1.73,1.27,2,.46,0-.22-.25-.22-.41-.34.26.49-.28.24-.4.3-.07-.25-.5-.38-.25-.49l.44.09a9.79,9.79,0,0,0-3.16-2.67,4,4,0,0,1,.47.34c-.17.12-.38,0-.62-.07,0,.18,0,.35,0,.54-.11-.12-.28-.14-.18-.27-.28.06-.26.21-.25.4-.4-.14-.36-.33-.78-.23.35.69.67,0,1.11.73Z"/><polygon class="cls-6" points="80.5 32.72 80.77 32.6 80.49 32.57 80.5 32.72"/><path class="cls-6" d="M81.27,32c0,.09-.16.07-.21.16C81.31,32.38,81.36,32.24,81.27,32Z"/><path class="cls-6" d="M83.74,35.24l.34.25L84,35.23C83.9,35.31,83.8,35.26,83.74,35.24Z"/><path class="cls-6" d="M86.58,36.81c-.39-.48-.73-.55-1-1.25-.44-.08-.35.48-.65.54.14.31.52-.05.82.18-.14.26.36.37.5.68A.34.34,0,0,1,86.58,36.81Z"/><path class="cls-6" d="M86.73,39.11c.11.24.41.4.39.64a.26.26,0,0,1-.32-.24c-.3.25.19.24.07.6,0,0,0-.16.16-.12.16.69.42.26.54,1.21.14.09.18.22.41.12-.17.61-.23.35-.34,1a3.22,3.22,0,0,1,.71-.42c-.19,1,.3.9.05,1.54,0-.06-.11-.12-.09-.28-.42.15.15.46.11.8h-.37c.11.28.4.77.13,1.15L88,45.08a3,3,0,0,1,.24,1.15,7.6,7.6,0,0,0,0,1.09l-.25.31c.08.45.15.24.25,0s.19-.51.45-.16c-.68,0,.19.48-.17,1-.31.2-.06-.52-.41-.3.33.15.06.27.12.55-.32-.11-.13.55-.48.32a9.25,9.25,0,0,1,.39,1c-.22.1-.26.38-.26.59.13-.5.44.28.73-.26,0-.44.13-1,.17-1.61s.18-1.22.27-1.76c-.45-.14,0-.69-.32-.87.15,0,.28-.1.42-.13-.13-.69-.25.17-.42,0a.42.42,0,0,1,.35-.53c0-.5-.12,0-.38-.29l.48-.35c-.26-1.58-1-3.47-1.45-5.2l-.24.25c-.19-.8-1.16-.88-.92-1.79L86.24,38c.2,0,.34-.35.63-.28-.21-.14-.22-.4-.42-.54l.08.42a.41.41,0,0,1-.25-.65c-.58-.31-.25.6-.43.84.92.4,0,1,.47,1.52C86.69,39.67,86.57,39.16,86.73,39.11Z"/><path class="cls-6" d="M87,37.8l-.14-.06Z"/><path class="cls-6" d="M87.91,50.63a1.88,1.88,0,0,0,0,.22C87.91,51,87.91,50.82,87.91,50.63Z"/><polygon class="cls-6" points="86.29 36.97 86.28 36.97 86.29 36.97 86.29 36.97"/><polygon class="cls-6" points="85.42 37.08 85.54 37.26 85.64 37.15 85.42 37.08"/><path class="cls-6" d="M86.73,52.6l.15.07A.21.21,0,0,0,86.73,52.6Z"/><path class="cls-6" d="M83.11,57.39l.11-.09A.19.19,0,0,0,83.11,57.39Z"/><path class="cls-6" d="M69.67,61.56a3.83,3.83,0,0,0-1.32.16l.07-.15c-.23,0-1,.09-.64.5l.15-.11c.59-.11.3.36.69.57s.93-.5,1.34-.3c.19,0,.13.18.06.29.44.11.67-.33,1-.35,0,.62.36.56.78.44s.88-.28,1.22.08a5.31,5.31,0,0,0,1.49-.33c-.25.35.5,0,.43.32,0-.73,1.6.08,1.48-.88.76.07,0-.06.87-.06,0,.1-.11.13-.16.16.38.11.37-.49.76-.19.64-.17,0-.28.3-.64.67-.14.54.06,1,.26-.12-.43.34-.42.54-.77-.08,0-.53.14-.33-.14.72-.29.45-.5,1-1,.55.23-.61.38.12.38-.27.46-.62.56-.69,1a4.71,4.71,0,0,0,1.7-1.25c.36-.14,0,.3.24.17.69-.23.56-1,1.12-1.17l.07.26c.05-.46,1-.75,1.3-1.32-.15,0-.24,0-.24-.17.44.44.34-.87,1.08-1-.33-.22-.16-.82,0-1.14.16,0,.28.08.37.14-.56.35,0,.74-.18,1.26.1-.46.68-.89.66-1.34l.17.29c.39-.45-.31-.81.26-1.15l.16.17c.63-1,1.56-2.22,1.4-3.31-.15-.13-.73.17-.88.13,0,.58.16,1,.11,1.46l-.32-.15c.18.19.08.73.38.55,0,.41-.4.1-.4.56-.31-.2-.24-.44-.52-.59a2.67,2.67,0,0,1,0,.4c-.07-.16-.22.11-.29-.05,0,.77-.59.68-.79,1.31a2.13,2.13,0,0,0,.26-.26c.18.12,0,.29,0,.45-.34,0-.38.08-.68.27,0,.32.17.71-.11,1-.24-.32-.6.35-.9.18.24.33-.4.66-.3.84-.1.2-.35.37-.49.21,0,0,0-.1.07-.15l-.16.13c0-.05,0-.07,0-.09-.14.11,0,.33-.26.35-.07-.08,0-.17.08-.27-.39.28-.29,1-.84,1,0,.19-.41.56-.07.83-.22,0-.35-.33-.68-.06,0,.42-.48.13-.64.5.18-.55,0-.1.09-.59-.31,0-.43.67-.92.82-.09-.06-.13-.15-.22-.2-.1.19-.18.54-.46.35l.12.22a2.66,2.66,0,0,1-1.21.14l-.24.6c-.7-.28-1.31.3-1.69.86-.22,0-.56,0-.57-.12a1.77,1.77,0,0,1,.2-.21c-.32,0-.73-.18-.85.24-.31.17-.27-.24-.51-.26-.62.58-1.9-.31-2.1.49a3.91,3.91,0,0,0,1.3.12c-.13.11,0,.27-.21.3-.53.08-.8-.25-1.33-.14l.09-.54c-.42-.31-.84-.1-1.25,0S69.94,62,69.67,61.56Z"/><path class="cls-6" d="M76.13,61.46l-.42-.18.09.22A.35.35,0,0,1,76.13,61.46Z"/><path class="cls-6" d="M75.8,61.5a1.33,1.33,0,0,0-.19.14.39.39,0,0,0,.21-.08Z"/><path class="cls-6" d="M68.22,61.3a.82.82,0,0,0-.38-.11A.37.37,0,0,0,68.22,61.3Z"/><path class="cls-6" d="M67.76,61.34l.15.14,0-.06Z"/><path class="cls-6" d="M58.83,55.09l-.61-.36c.09-.18-.45-.69-.08-.63-.53-.14-.53-1.06-.91-.53.12.2.24.41.36.64l.43.67.43.7.51.69c.17.23.34.47.53.69s.41.42.62.61a5.29,5.29,0,0,0,1.36,1l-.41-.07c1.09.42.88,1.39,2.12,1.21l-.35.31c.34.43,1.18,0,1.37.67l0-.19c.12.07.13.17.25.25v-.11a1.18,1.18,0,0,1,.87.41c0,.14-.18,0-.3,0,.09.2.48,0,.73.17s-.08.19-.14.23c.84.19,1.08.72,1.86.3.09-.1-.13-.29.17-.24-.44-.4-.94-.28-1.48-.3l.12.06c-.63.44-.21-.27-.91-.28.27-.17.52,0,.68-.14-.43-.77-1.13-.09-1.24-.91h.06c-.06-.11-.28-.1-.45-.13,0,.1.11.22.18.33-.17,0-.4.18-.51.25,0-.35-.29,0-.48-.29.06-.29.35-.08.52-.15l-.41,0c-.29-.16-.12-.41-.16-.63-.34,0,0,.22-.3.32a1.92,1.92,0,0,0-.8-.86A6.13,6.13,0,0,0,61.27,58c.21.14.26-.16.46.08,0-.12-.42-.27-.57-.13a2.15,2.15,0,0,1-1-1.27l-.07.24c-.56-.06-.42-1-1-1.37h0c-.17-.15-.7,0-.83-.46C58.53,55,58.63,55.24,58.83,55.09Z"/><path class="cls-6" d="M57.21,53.13l.36.09a.54.54,0,0,0-.68-.27c.14.14.12.4.28.36S57.29,53.22,57.21,53.13Z"/><path class="cls-6" d="M55.81,48.53c-.08-.08-.19,0-.28-.07A15.3,15.3,0,0,1,56,51.15c0,.37.47.29.71.66l-.21.28c.25.16.21.95.56.53,0,0-.28-.11-.27-.33l.17,0-.21-.41.24.07c.08-.68-.76-.2-.8-1l.41-.12c-.11-.49-.31-.71-.17-1.2,0,0-.21,0-.11.11a.25.25,0,0,1-.27.2c-.51-.68.27.06.31-.49-.38-.58-.83-1.82-.47-2.21-.24.32-.53-.12-.53-.5.14-.18.26.11.39.16,0-.17.13-.31.06-.48-.22.22-.54.09-.7-.33C55,47,55.69,47.67,55.81,48.53Z"/><path class="cls-6" d="M55.42,48.32a.19.19,0,0,0,.11.14l-.06-.36Z"/><polygon class="cls-5" points="50.99 45.93 52.24 52.08 55.63 57.39 60.89 60.9 67.09 62.06 73.28 60.85 78.46 57.29 82.1 52.15 83.23 45.93 82.01 39.75 78.52 34.5 73.25 31.07 67.09 29.81 60.87 30.91 55.67 34.5 52.12 39.73 50.99 45.93"/><polygon class="cls-12" points="70.08 97.43 70.15 98.22 70.01 99 69.94 99.79 69.73 100.54 69.6 101.32 69.36 102.08 68.93 102.75 68.6 103.46 68.22 104.15 67.72 104.75 67.23 105.37 66.72 105.97 66.1 106.46 65.5 106.97 64.83 107.38 64.13 107.73 63.43 108.1 62.72 108.44 61.97 108.67 61.19 108.78 60.42 108.91 59.65 109.11 58.85 109.13 58.09 108.99 57.32 108.95 56.55 108.86 55.82 108.62 55.09 108.39 54.33 108.22 53.65 107.85 52.97 107.5 52.29 107.12 51.64 106.71 51.1 106.15 50.54 105.62 49.92 105.15 49.49 104.5 49.03 103.89 48.55 103.28 48.23 102.58 47.8 101.93 47.59 101.18 47.34 100.46 47.17 99.71 46.94 98.97 46.88 98.2 46.77 97.43 46.84 96.65 46.82 95.86 46.97 95.08 47.05 94.29 47.27 93.53 47.64 92.83 47.92 92.09 48.23 91.37 48.68 90.72 49.12 90.06 49.62 89.45 50.18 88.9 50.82 88.43 51.38 87.87 52.07 87.48 52.74 87.07 53.48 86.8 54.17 86.4 54.93 86.19 55.7 86.03 56.47 85.89 57.26 85.84 58.04 85.74 58.81 85.78 59.58 85.91 60.33 86.07 61.11 86.13 61.83 86.42 62.55 86.69 63.23 87.05 63.93 87.38 64.59 87.77 65.19 88.24 65.8 88.71 66.38 89.22 66.97 89.72 67.4 90.36 67.89 90.96 68.35 91.58 68.72 92.26 69.07 92.95 69.4 93.65 69.58 94.4 69.81 95.14 69.98 95.89 70.11 96.66 70.08 97.43"/><polygon class="cls-12" points="70.08 97.43 70.15 98.22 70.01 99 69.94 99.79 69.73 100.54 69.6 101.32 69.36 102.08 68.93 102.75 68.6 103.46 68.22 104.15 67.72 104.75 67.23 105.37 66.72 105.97 66.1 106.46 65.5 106.97 64.83 107.38 64.13 107.73 63.43 108.1 62.72 108.44 61.97 108.67 61.19 108.78 60.42 108.91 59.65 109.11 58.85 109.13 58.09 108.99 57.32 108.95 56.55 108.86 55.82 108.62 55.09 108.39 54.33 108.22 53.65 107.85 52.97 107.5 52.29 107.12 51.64 106.71 51.1 106.15 50.54 105.62 49.92 105.15 49.49 104.5 49.03 103.89 48.55 103.28 48.23 102.58 47.8 101.93 47.59 101.18 47.34 100.46 47.17 99.71 46.94 98.97 46.88 98.2 46.77 97.43 46.84 96.65 46.82 95.86 46.97 95.08 47.05 94.29 47.27 93.53 47.64 92.83 47.92 92.09 48.23 91.37 48.68 90.72 49.12 90.06 49.62 89.45 50.18 88.9 50.82 88.43 51.38 87.87 52.07 87.48 52.74 87.07 53.48 86.8 54.17 86.4 54.93 86.19 55.7 86.03 56.47 85.89 57.26 85.84 58.04 85.74 58.81 85.78 59.58 85.91 60.33 86.07 61.11 86.13 61.83 86.42 62.55 86.69 63.23 87.05 63.93 87.38 64.59 87.77 65.19 88.24 65.8 88.71 66.38 89.22 66.97 89.72 67.4 90.36 67.89 90.96 68.35 91.58 68.72 92.26 69.07 92.95 69.4 93.65 69.58 94.4 69.81 95.14 69.98 95.89 70.11 96.66 70.08 97.43"/><polygon class="cls-12" points="65.84 97.43 65.79 98.19 65.69 98.95 65.57 99.7 65.33 100.43 64.94 101.1 64.56 101.75 64.08 102.34 63.56 102.9 63.01 103.43 62.35 103.83 61.68 104.19 60.96 104.44 60.23 104.68 59.47 104.8 58.71 104.84 57.92 104.79 57.16 104.65 56.4 104.44 55.65 104.2 54.97 103.83 54.3 103.42 53.69 102.92 53.15 102.36 52.62 101.79 52.18 101.14 51.81 100.45 51.53 99.72 51.28 98.98 51.15 98.21 51.02 97.43 51.09 96.67 51.13 95.9 51.33 95.16 51.56 94.43 51.9 93.74 52.29 93.08 52.8 92.5 53.32 91.95 53.89 91.43 54.53 91.02 55.21 90.66 55.94 90.42 56.67 90.2 57.43 90.11 58.19 90 58.98 90.05 59.74 90.21 60.51 90.38 61.24 90.67 61.93 91.03 62.57 91.49 63.2 91.95 63.79 92.46 64.26 93.1 64.72 93.73 65.06 94.43 65.42 95.13 65.66 95.88 65.73 96.66 65.84 97.43"/><polygon class="cls-12" points="65.84 97.43 65.79 98.19 65.69 98.95 65.57 99.7 65.33 100.43 64.94 101.1 64.56 101.75 64.08 102.34 63.56 102.9 63.01 103.43 62.35 103.83 61.68 104.19 60.96 104.44 60.23 104.68 59.47 104.8 58.71 104.84 57.92 104.79 57.16 104.65 56.4 104.44 55.65 104.2 54.97 103.83 54.3 103.42 53.69 102.92 53.15 102.36 52.62 101.79 52.18 101.14 51.81 100.45 51.53 99.72 51.28 98.98 51.15 98.21 51.02 97.43 51.09 96.67 51.13 95.9 51.33 95.16 51.56 94.43 51.9 93.74 52.29 93.08 52.8 92.5 53.32 91.95 53.89 91.43 54.53 91.02 55.21 90.66 55.94 90.42 56.67 90.2 57.43 90.11 58.19 90 58.98 90.05 59.74 90.21 60.51 90.38 61.24 90.67 61.93 91.03 62.57 91.49 63.2 91.95 63.79 92.46 64.26 93.1 64.72 93.73 65.06 94.43 65.42 95.13 65.66 95.88 65.73 96.66 65.84 97.43"/><polygon class="cls-12" points="62.41 97.43 62.4 98.21 62.18 98.95 61.85 99.65 61.35 100.23 60.78 100.76 60.09 101.09 59.35 101.33 58.59 101.42 57.8 101.32 57.06 101.08 56.36 100.72 55.73 100.24 55.2 99.66 54.81 98.97 54.57 98.21 54.48 97.43 54.53 96.66 54.7 95.91 55.06 95.23 55.54 94.62 56.12 94.11 56.81 93.77 57.54 93.54 58.31 93.45 59.09 93.53 59.86 93.74 60.54 94.13 61.17 94.62 61.66 95.23 62.05 95.91 62.33 96.65 62.41 97.43"/><polygon class="cls-12" points="62.41 97.43 62.4 98.21 62.18 98.95 61.85 99.65 61.35 100.23 60.78 100.76 60.09 101.09 59.35 101.33 58.59 101.42 57.8 101.32 57.06 101.08 56.36 100.72 55.73 100.24 55.2 99.66 54.81 98.97 54.57 98.21 54.48 97.43 54.53 96.66 54.7 95.91 55.06 95.23 55.54 94.62 56.12 94.11 56.81 93.77 57.54 93.54 58.31 93.45 59.09 93.53 59.86 93.74 60.54 94.13 61.17 94.62 61.66 95.23 62.05 95.91 62.33 96.65 62.41 97.43"/><polygon class="cls-12" points="70.08 97.43 70.15 98.22 70.01 99 69.94 99.79 69.73 100.54 69.6 101.32 69.36 102.08 68.93 102.75 68.6 103.46 68.22 104.15 67.72 104.75 67.23 105.37 66.72 105.97 66.1 106.46 65.5 106.97 64.83 107.38 64.13 107.73 63.43 108.1 62.72 108.44 61.97 108.67 61.19 108.78 60.42 108.91 59.65 109.11 58.85 109.13 58.09 108.99 57.32 108.95 56.55 108.86 55.82 108.62 55.09 108.39 54.33 108.22 53.65 107.85 52.97 107.5 52.29 107.12 51.64 106.71 51.1 106.15 50.54 105.62 49.92 105.15 49.49 104.5 49.03 103.89 48.55 103.28 48.23 102.58 47.8 101.93 47.59 101.18 47.34 100.46 47.17 99.71 46.94 98.97 46.88 98.2 46.77 97.43 46.84 96.65 46.82 95.86 46.97 95.08 47.05 94.29 47.27 93.53 47.64 92.83 47.92 92.09 48.23 91.37 48.68 90.72 49.12 90.06 49.62 89.45 50.18 88.9 50.82 88.43 51.38 87.87 52.07 87.48 52.74 87.07 53.48 86.8 54.17 86.4 54.93 86.19 55.7 86.03 56.47 85.89 57.26 85.84 58.04 85.74 58.81 85.78 59.58 85.91 60.33 86.07 61.11 86.13 61.83 86.42 62.55 86.69 63.23 87.05 63.93 87.38 64.59 87.77 65.19 88.24 65.8 88.71 66.38 89.22 66.97 89.72 67.4 90.36 67.89 90.96 68.35 91.58 68.72 92.26 69.07 92.95 69.4 93.65 69.58 94.4 69.81 95.14 69.98 95.89 70.11 96.66 70.08 97.43"/><polygon class="cls-5" points="70.08 97.43 70.15 98.22 70.01 99 69.94 99.79 69.73 100.54 69.6 101.32 69.36 102.08 68.93 102.75 68.6 103.46 68.22 104.15 67.72 104.75 67.23 105.37 66.72 105.97 66.1 106.46 65.5 106.97 64.83 107.38 64.13 107.73 63.43 108.1 62.72 108.44 61.97 108.67 61.19 108.78 60.42 108.91 59.65 109.11 58.85 109.13 58.09 108.99 57.32 108.95 56.55 108.86 55.82 108.62 55.09 108.39 54.33 108.22 53.65 107.85 52.97 107.5 52.29 107.12 51.64 106.71 51.1 106.15 50.54 105.62 49.92 105.15 49.49 104.5 49.03 103.89 48.55 103.28 48.23 102.58 47.8 101.93 47.59 101.18 47.34 100.46 47.17 99.71 46.94 98.97 46.88 98.2 46.77 97.43 46.84 96.65 46.82 95.86 46.97 95.08 47.05 94.29 47.27 93.53 47.64 92.83 47.92 92.09 48.23 91.37 48.68 90.72 49.12 90.06 49.62 89.45 50.18 88.9 50.82 88.43 51.38 87.87 52.07 87.48 52.74 87.07 53.48 86.8 54.17 86.4 54.93 86.19 55.7 86.03 56.47 85.89 57.26 85.84 58.04 85.74 58.81 85.78 59.58 85.91 60.33 86.07 61.11 86.13 61.83 86.42 62.55 86.69 63.23 87.05 63.93 87.38 64.59 87.77 65.19 88.24 65.8 88.71 66.38 89.22 66.97 89.72 67.4 90.36 67.89 90.96 68.35 91.58 68.72 92.26 69.07 92.95 69.4 93.65 69.58 94.4 69.81 95.14 69.98 95.89 70.11 96.66 70.08 97.43"/><polygon class="cls-12" points="65.84 97.43 65.79 98.19 65.69 98.95 65.57 99.7 65.33 100.43 64.94 101.1 64.56 101.75 64.08 102.34 63.56 102.9 63.01 103.43 62.35 103.83 61.68 104.19 60.96 104.44 60.23 104.68 59.47 104.8 58.71 104.84 57.92 104.79 57.16 104.65 56.4 104.44 55.65 104.2 54.97 103.83 54.3 103.42 53.69 102.92 53.15 102.36 52.62 101.79 52.18 101.14 51.81 100.45 51.53 99.72 51.28 98.98 51.15 98.21 51.02 97.43 51.09 96.67 51.13 95.9 51.33 95.16 51.56 94.43 51.9 93.74 52.29 93.08 52.8 92.5 53.32 91.95 53.89 91.43 54.53 91.02 55.21 90.66 55.94 90.42 56.67 90.2 57.43 90.11 58.19 90 58.98 90.05 59.74 90.21 60.51 90.38 61.24 90.67 61.93 91.03 62.57 91.49 63.2 91.95 63.79 92.46 64.26 93.1 64.72 93.73 65.06 94.43 65.42 95.13 65.66 95.88 65.73 96.66 65.84 97.43"/><polygon class="cls-5" points="65.84 97.43 65.79 98.19 65.69 98.95 65.57 99.7 65.33 100.43 64.94 101.1 64.56 101.75 64.08 102.34 63.56 102.9 63.01 103.43 62.35 103.83 61.68 104.19 60.96 104.44 60.23 104.68 59.47 104.8 58.71 104.84 57.92 104.79 57.16 104.65 56.4 104.44 55.65 104.2 54.97 103.83 54.3 103.42 53.69 102.92 53.15 102.36 52.62 101.79 52.18 101.14 51.81 100.45 51.53 99.72 51.28 98.98 51.15 98.21 51.02 97.43 51.09 96.67 51.13 95.9 51.33 95.16 51.56 94.43 51.9 93.74 52.29 93.08 52.8 92.5 53.32 91.95 53.89 91.43 54.53 91.02 55.21 90.66 55.94 90.42 56.67 90.2 57.43 90.11 58.19 90 58.98 90.05 59.74 90.21 60.51 90.38 61.24 90.67 61.93 91.03 62.57 91.49 63.2 91.95 63.79 92.46 64.26 93.1 64.72 93.73 65.06 94.43 65.42 95.13 65.66 95.88 65.73 96.66 65.84 97.43"/><polygon class="cls-12" points="62.41 97.43 62.4 98.21 62.18 98.95 61.85 99.65 61.35 100.23 60.78 100.76 60.09 101.09 59.35 101.33 58.59 101.42 57.8 101.32 57.06 101.08 56.36 100.72 55.73 100.24 55.2 99.66 54.81 98.97 54.57 98.21 54.48 97.43 54.53 96.66 54.7 95.91 55.06 95.23 55.54 94.62 56.12 94.11 56.81 93.77 57.54 93.54 58.31 93.45 59.09 93.53 59.86 93.74 60.54 94.13 61.17 94.62 61.66 95.23 62.05 95.91 62.33 96.65 62.41 97.43"/><polygon class="cls-5" points="62.41 97.43 62.4 98.21 62.18 98.95 61.85 99.65 61.35 100.23 60.78 100.76 60.09 101.09 59.35 101.33 58.59 101.42 57.8 101.32 57.06 101.08 56.36 100.72 55.73 100.24 55.2 99.66 54.81 98.97 54.57 98.21 54.48 97.43 54.53 96.66 54.7 95.91 55.06 95.23 55.54 94.62 56.12 94.11 56.81 93.77 57.54 93.54 58.31 93.45 59.09 93.53 59.86 93.74 60.54 94.13 61.17 94.62 61.66 95.23 62.05 95.91 62.33 96.65 62.41 97.43"/><polyline class="cls-5" points="45.53 86.16 45.54 86.93 45.54 87.69 45.53 88.46 45.51 89.22 45.52 89.99 45.52 90.75 45.54 91.52 45.51 92.29"/><polyline class="cls-14" points="156.59 94.55 157.18 93.82 158.03 93.91 158.82 94.13 159.63 93.84 160.44 93.92 161.25 94.08 161.77 94.87 162.7 94.83 163.2 95.52 163.75 96.1 164.49 96.45 165.1 96.98 165.58 97.63 166.02 98.3 166.57 98.9 166.99 99.6 166.97 100.51 167.72 101.03 167.88 101.83 168.09 102.62 168.6 103.27 168.66 104.11 169.36 104.68 169.63 105.44 169.74 106.26 170.1 106.98 170.79 107.51 170.75 108.46 171.2 109.14 171.65 109.82 172.18 110.44 172.93 110.85 173.48 111.43 174.11 111.93 174.83 112.3 175.65 112.42 176.3 112.88 177.06 113.04 177.78 113.53 178.6 113.3 179.38 113.63 180.18 113.72 180.95 113.36 181.71 113.05 182.52 113.23 183.31 113.16 184.12 113.28 184.84 112.77 185.65 112.81 186.43 112.68 187.22 112.71 188.01 112.78 188.79 112.64 189.58 112.29 190.33 112.87 191.19 112.38 191.93 112.78 192.58 113.31 193.49 113.16 194.23 113.47 194.6 114.33 195.18 114.81 195.82 115.24 196.38 115.77 196.94 116.32 197.32 117 197.61 117.73 198.14 118.32 198.46 119.03 199.05 119.61 198.95 120.5 199.33 121.18 199.75 121.84 200.05 122.56 200.17 123.36 200.69 123.97 201.23 124.58 201.21 125.46 201.87 125.99 201.96 126.83 202.57 127.37 203.05 127.98 203.29 128.78 203.84 129.34 204.72 129.55 205.01 130.38 205.88 130.51 206.44 131.04 207.14 131.36 207.78 131.78 208.37 132.31 208.98 132.84 209.74 133.03 210.5 133.21 211.32 133.15 211.89 133.91 212.78 133.6 213.44 134.13 214.25 134.07 214.9 134.64 215.74 134.42 216.4 135.05 217.19 135.04 217.99 134.93"/><polyline class="cls-14" points="161.53 87.54 162.11 86.82 162.96 86.91 163.75 87.12 164.56 86.84 165.37 86.91 166.18 87.08 166.7 87.87 167.63 87.82 168.13 88.52 168.68 89.09 169.42 89.45 170.03 89.97 170.51 90.62 170.95 91.29 171.5 91.9 171.91 92.59 171.9 93.5 172.65 94.02 172.81 94.83 173.02 95.61 173.53 96.27 173.59 97.11 174.29 97.68 174.56 98.43 174.67 99.26 175.03 99.97 175.72 100.5 175.68 101.46 176.13 102.13 176.58 102.81 177.11 103.44 177.85 103.84 178.41 104.42 179.04 104.92 179.76 105.3 180.58 105.42 181.23 105.87 181.99 106.04 182.71 106.53 183.53 106.3 184.31 106.63 185.1 106.72 185.88 106.36 186.64 106.04 187.45 106.23 188.24 106.16 189.05 106.27 189.77 105.76 190.58 105.81 191.35 105.67 192.15 105.7 192.94 105.78 193.72 105.63 194.51 105.28 195.26 105.87 196.12 105.37 196.85 105.77 197.51 106.3 198.42 106.15 199.16 106.46 199.53 107.33 200.11 107.8 200.75 108.23 201.31 108.77 201.87 109.31 202.25 110 202.54 110.73 203.07 111.31 203.39 112.02 203.98 112.6 203.88 113.5 204.26 114.17 204.68 114.84 204.98 115.55 205.1 116.35 205.62 116.97 206.16 117.57 206.14 118.45 206.8 118.98 206.89 119.83 207.5 120.36 207.98 120.97 208.22 121.78 208.77 122.34 209.64 122.55 209.94 123.38 210.81 123.5 211.37 124.04 212.07 124.35 212.71 124.77 213.29 125.3 213.91 125.83 214.67 126.02 215.43 126.2 216.25 126.15 216.82 126.91 217.71 126.6 218.37 127.13 219.17 127.06 219.83 127.63 220.67 127.41 221.33 128.04 222.12 128.03 222.92 127.92"/><polyline class="cls-5" points="128.96 38.26 129.74 38.08 130.53 37.95 131.33 37.95 132.12 38.07 132.91 38.17 133.67 38.42 134.39 38.75 135.08 39.16 135.75 39.58 136.35 40.12 136.97 40.63 137.39 41.31 137.89 41.94 138.2 42.68 138.49 43.43 138.63 44.22 138.75 44.93 138.79 45.66 138.97 46.37 139.3 47.01 139.75 47.56 140.38 47.82 140.19 47.07 140.02 46.29 140.01 45.49 139.96 44.69 140.09 43.89 140.37 43.14 140.63 42.38 141.02 41.67 141.5 41.03 142.08 40.48 142.66 39.93 143.29 39.44 144.04 39.15 144.78 38.84 145.57 38.7 146.35 38.52 147.15 38.48 147.94 38.66 148.72 38.8 149.5 39.02"/><polyline class="cls-5" points="147.06 52.06 147.77 51.78 148.51 51.6 149.28 51.51 150.06 51.52 150.81 51.7 151.53 52 152.21 52.37 152.85 52.8 153.48 53.26 153.96 53.87 154.42 54.49 154.85 55.15 155.13 55.87 155.42 56.59 155.7 57.31 155.86 58.07 156.06 58.83 156.14 59.62 156.17 58.82 156.34 58.06 156.54 57.31 156.76 56.56 157.09 55.85 157.56 55.22 158 54.58 158.53 54.01 159.07 53.45 159.63 52.9 160.29 52.48 160.95 52.07 161.67 51.76 162.38 51.43 163.14 51.22 163.91 51.08 164.69 51.02 165.47 51.07 166.24 51.18"/></g></g></svg>
