<?xml version="1.0" encoding="utf-8"?>
<!-- Generator: Adobe Illustrator 17.1.0, SVG Export Plug-In . SVG Version: 6.00 Build 0)  -->
<!DOCTYPE svg PUBLIC "-//W3C//DTD SVG 1.1//EN" "http://www.w3.org/Graphics/SVG/1.1/DTD/svg11.dtd">
<svg version="1.1" id="Layer_1" xmlns="http://www.w3.org/2000/svg" xmlns:xlink="http://www.w3.org/1999/xlink" x="0px" y="0px"
	 viewBox="0 0 328.6 66.3" enable-background="new 0 0 328.6 66.3" xml:space="preserve">
<g>
	<g>
		<g>
			<path fill="#68B044" d="M138.8,28.3h11.9c7.6,0,13.3,2.3,13.3,9.2c0,3.5-2,7-6.4,8.1v0.2c5.4,0.9,8.4,3.8,8.4,8.8
				c0,7.5-6.1,10.9-14.3,10.9h-12.9V28.3z M150.1,43.7c5.2,0,7.4-2,7.4-5.5c0-3.4-2.4-4.8-7.2-4.8h-4.8v10.3H150.1z M151,60.4
				c5.5,0,8.5-2.1,8.5-6.3c0-3.9-3-5.7-8.5-5.7h-5.6v12H151z"/>
		</g>
		<g>
			<path fill="#68B044" d="M170.7,37.6h5.4l0.5,5h0.2c2-3.6,5-5.6,7.9-5.6c1.4,0,2.3,0.2,3.2,0.6l-1.1,5.7c-1-0.3-1.7-0.5-2.9-0.5
				c-2.2,0-4.9,1.5-6.6,5.8v17.1h-6.6V37.6z"/>
		</g>
		<g>
			<path fill="#68B044" d="M201.4,36.9c7,0,13.3,5.4,13.3,14.7c0,9.3-6.3,14.7-13.3,14.7c-7,0-13.3-5.4-13.3-14.7
				C188.1,42.2,194.5,36.9,201.4,36.9z M201.4,60.9c4.1,0,6.6-3.7,6.6-9.3c0-5.6-2.5-9.4-6.6-9.4s-6.6,3.7-6.6,9.4
				C194.9,57.2,197.3,60.9,201.4,60.9z"/>
		</g>
		<g>
			<path fill="#68B044" d="M216.7,37.6h6.6l3.4,14.5c0.6,2.7,1,5.3,1.5,8h0.2c0.5-2.7,1.1-5.4,1.8-8l3.6-14.5h6l3.7,14.5
				c0.7,2.7,1.3,5.3,1.9,8h0.2c0.5-2.7,1-5.4,1.5-8l3.4-14.5h6.2l-7.1,28h-7.8l-3.3-13.1c-0.6-2.6-1.1-5.2-1.7-8.2h-0.2
				c-0.5,3-1,5.6-1.7,8.2l-3.2,13h-7.5L216.7,37.6z"/>
		</g>
		<g>
			<path fill="#68B044" d="M261,58.2c2.5,1.9,4.9,3.1,7.8,3.1c3,0,4.4-1.4,4.4-3.4c0-2.3-3-3.4-6-4.5c-3.7-1.4-7.9-3.5-7.9-8.2
				c0-4.9,3.9-8.4,10.2-8.4c3.9,0,7,1.6,9.3,3.4l-3,4c-1.9-1.4-3.9-2.4-6.2-2.4c-2.8,0-4.1,1.3-4.1,3.1c0,2.2,2.8,3.1,5.8,4.2
				c3.8,1.4,8,3.3,8,8.5c0,4.8-3.8,8.7-10.9,8.7c-3.8,0-7.9-1.7-10.6-3.9L261,58.2z"/>
		</g>
		<g>
			<path fill="#68B044" d="M294.9,36.9c7.6,0,11.6,5.5,11.6,13.3c0,1.3-0.1,2.4-0.3,3.1h-17.8c0.6,5.1,3.8,7.9,8.3,7.9
				c2.4,0,4.4-0.7,6.5-2.1l2.2,4.1c-2.7,1.8-6,3-9.6,3c-7.8,0-13.8-5.4-13.8-14.7C282,42.5,288.4,36.9,294.9,36.9z M300.8,49.1
				c0-4.4-1.9-7.1-5.7-7.1c-3.3,0-6.2,2.5-6.7,7.1H300.8z"/>
		</g>
		<g>
			<path fill="#68B044" d="M311.4,37.6h5.4l0.5,5h0.2c2-3.6,5-5.6,7.9-5.6c1.4,0,2.3,0.2,3.2,0.6l-1.1,5.7c-1-0.3-1.7-0.5-2.9-0.5
				c-2.2,0-4.9,1.5-6.6,5.8v17.1h-6.6V37.6z"/>
		</g>
	</g>
	<g>
		<g>
			<rect x="120.4" y="6.2" fill="#494949" width="3" height="58"/>
		</g>
	</g>
	<g>
		<g>
			<g id="layer3_17_" transform="translate(-92,-63.999774)">
				<g id="layer5_17_">
					<g id="path2554_28_">
						<g>
							<path fill="#68B044" d="M152.1,68.8l-1.7,6.8c2.4-4.8,6.3-8.4,10.7-11.6c-3.2,3.8-6.2,7.5-8,11.3c3.1-4.3,7.2-6.7,11.8-8.2
								c-6.2,5.5-11,11.4-14.8,17.3l-3-1.3C147.7,78.3,149.5,73.5,152.1,68.8L152.1,68.8z"/>
						</g>
					</g>
					<g id="path2534_7_">
						<g>
							<path fill="#F5F8DE" d="M144.2,81.8l5.6,2.3c0,1.4-0.1,5.8,0.8,7.1c9.4,12.1,7.8,36.2-1.9,36.8c-14.7,0-20.4-10-20.4-19.2
								c0-8.4,10.1-14,16.1-18.9C146,88.6,145.7,85.6,144.2,81.8L144.2,81.8z"/>
						</g>
					</g>
					<g id="path2536_18_">
						<g>
							<path fill="#7E4798" d="M149.9,84l2,1c-0.2,1.3,0.1,4.3,1.4,5.1c5.9,3.7,11.5,7.7,13.7,11.7c7.8,14.1-5.5,27.2-17,25.9
								c6.2-4.6,8.1-14.1,5.7-24.5c-1-4.1-2.4-7.7-5.1-11.9C149.6,89.4,150,86.9,149.9,84L149.9,84z"/>
						</g>
					</g>
				</g>
				<g id="layer4_17_">
					<g id="path2540_18_">
						<g>
							<path fill="#010101" d="M147.6,90.8c-0.4,2.2-0.9,6.2-2.8,7.6c-0.8,0.6-1.6,1.1-2.5,1.7c-3.4,2.3-6.9,4.5-8.4,10.2
								c-0.3,1.2,0,2.5,0.2,3.7c0.9,3.4,3.3,7.2,5.2,9.3c0,0.1,0.4,0.3,0.4,0.4c1.6,1.9,2.1,2.4,8,3.7l-0.1,0.7
								c-3.6-1-6.5-1.8-8.4-4c0,0-0.3-0.4-0.3-0.4c-2-2.3-4.4-6.1-5.3-9.7c-0.3-1.4-0.6-2.5-0.2-4c1.6-5.8,5.2-8.1,8.7-10.5
								c0.8-0.5,1.8-1,2.5-1.6C146,96.8,146.8,93.5,147.6,90.8L147.6,90.8z"/>
						</g>
					</g>
					<g id="path2542_18_">
						<g>
							<path fill="#010101" d="M149.1,99.9c0,2.5-0.2,3.7,0.4,5.5c0.4,1,1.7,2.5,2.1,3.9c0.5,1.9,1.1,3.9,1,5.2c0,1.4-0.1,4.1-0.7,7
								c-0.5,2.4-1.6,4.4-3.4,5.5c-1.9-0.4-4.1-1-5.4-2.2c-2.5-2.2-4.8-5.9-5.1-9.1c-0.2-2.6,2.2-6.5,5.6-8.4
								c2.9-1.7,3.5-3.6,4.1-6.6c-0.9,2.7-1.7,4.9-4.4,6.3c-4,2.1-6.1,5.6-5.9,9c0.3,4.3,2,7.2,5.4,9.5c1.4,1,4.1,2.1,5.8,2.3v-0.2
								c1.3-0.2,2.9-2.3,3.7-5.1c0.7-2.5,1-5.8,0.9-7.8c0-1.2-0.6-3.8-1.5-6.1c-0.5-1.3-1.3-2.6-1.9-3.5
								C149.4,104.2,149.4,102.2,149.1,99.9z"/>
						</g>
					</g>
					<g id="path2544_18_">
						<g>
							<path fill="#010101" d="M148.7,109.7c0,1.7,0.7,3.8,1,6c0.2,1.6,0.1,3.3,0.1,4.7c0,1.7-0.6,4.6-1.4,6.1
								c-0.7-0.3-1-0.7-1.5-1.3c-0.6-0.8-1-1.6-1.3-2.6c-0.3-0.7-0.6-1.5-0.8-2.5c-0.2-1.4-0.1-3.7,1.5-6c1.2-1.8,1.5-2,2-4
								c-0.6,1.9-1,2-2.3,3.6c-1.5,1.7-1.7,4.2-1.7,6.3c0,0.9,0.3,1.8,0.7,2.7c0.4,1,0.7,1.9,1.2,2.6c0.8,1.2,1.8,1.8,2.3,1.9
								c0,0,0,0,0,0c0,0,0,0,0,0v-0.1c0.9-1,1.5-2.1,1.7-3.1c0.2-1.2,0.3-2.5,0.4-4c0.1-1.2,0-2.9-0.3-4.6
								C149.8,113.4,149,111.2,148.7,109.7L148.7,109.7z"/>
						</g>
					</g>
					<g id="path2550_18_">
						<g>
							<path fill="#010101" d="M149,88.7c0,2.5,0.2,7.1,0.9,8.9c0.2,0.6,2,3.3,3.2,6.6c0.9,2.3,1,4.4,1.2,5
								c0.6,2.7-0.1,7.3-1.1,11.6c-0.5,2.3-2.1,5.2-4,6.4l-0.4,0.7c1,0,3.6-2.6,4.5-5.7c1.5-5.3,2.1-7.8,1.4-13.7
								c-0.1-0.6-0.3-2.5-1.2-4.6c-1.3-3.2-3.2-6.2-3.5-6.9C149.7,96,149.1,91.7,149,88.7L149,88.7z"/>
						</g>
					</g>
					<g id="path2552_18_">
						<g>
							<path fill="#010101" d="M149.9,84.3c-0.1,2.5-0.2,4.6,0.3,6.4c0.5,2.1,3.2,5,4.3,8.4c2.1,6.5,1.6,15,0,21.6
								c-0.6,2.3-3.3,5.7-6,6.8l2,0.5c1.1,0,3.9-2.7,5-5.7c1.8-4.7,2.1-10.3,1.4-16.3c0-0.6-1-5.7-1.9-7.8c-1.3-3.2-3.3-5.4-4.1-7.4
								c-0.6-1.5-0.8-5.4-0.4-6.3L149.9,84.3z"/>
						</g>
					</g>
				</g>
			</g>
			<g id="path2528_14_">
				<g>
					<path fill="#7E4798" d="M2.7,6.2H41c1.4,0,2.7,1.2,2.7,2.7v11.3c0,1.5-1.2,2.7-2.7,2.7h-7.9c-1.8,0-2.5,1-2.5,2.1v37
						c0,1.2-1,2.2-2.2,2.2h-13c-1.2,0-2.1-1-2.1-2.2V24.7c0-1.1-1-1.8-1.9-1.8H2.7c-1.5,0-2.7-1.2-2.7-2.7V8.9
						C0,7.4,1.2,6.2,2.7,6.2z"/>
				</g>
			</g>
			<g id="path2532_14_">
				<g>
					<path fill="#7E4798" d="M100.9,21.2h3.4c1.2,0,2.2,1,2.2,2.2v12.1c0,1.6,0.1,2.2-1.8,2.2c-3.8,0-5.5,2-5.5,4.2v20.5
						c0,1-0.9,1.8-2,1.8H85.1c-1.1,0-2-0.8-2-1.8V39.1c0-0.4,0-1,0-1.3c0.7-8.6,7.4-15.5,16-16.4C99.4,21.3,100.5,21.2,100.9,21.2
						L100.9,21.2z"/>
				</g>
			</g>
		</g>
		<g>
			<g>
				<path fill="#010101" d="M72,32.8c-2.1-1.9-4.6-3.4-7.3-4.9c-1.2-0.7-4.9-3.5-3.6-7.6l-9.3-3.8l-0.6,0.5c3.1,5.6,1.5,8.5,0,9.6
					c-3.1,2.1-7.6,4.8-9.9,7.2c-4.3,4.4-5.6,8.7-5.2,14.3c0.4,7.2,5.6,13.1,12.6,15.5c3.1,1,5.9,1.1,9,1.1c5.1,0,10.3-1.3,14-4.5
					c4-3.3,6.4-8.3,6.4-13.5C78.1,41.2,75.9,36.3,72,32.8z M70.6,58.9c-3.4,2.9-9.7,4.8-13,4.7c-3.7-0.2-7.3-0.8-10.4-2.3
					c-5.6-2.7-9.3-8.5-9.5-13.3c-0.5-9.7,4.1-12.5,8.4-16c2.4-2,5.8-3,7.7-6.5c0.4-0.8,0.6-2.5,0.1-4.2c-0.2-0.6-1.1-2.8-1.4-3.2
					l7,3.1c-0.9,3.2,1.8,6.5,3.9,7.7c2.1,1.2,5.5,3.4,7.5,5.3c3.6,3.2,5.5,7.7,5.5,12.5C76.3,51.2,74.3,55.8,70.6,58.9z"/>
			</g>
		</g>
	</g>
</g>
</svg>
