<?xml version="1.0" encoding="utf-8"?>
<!-- Generator: Adobe Illustrator 17.1.0, SVG Export Plug-In . SVG Version: 6.00 Build 0)  -->
<!DOCTYPE svg PUBLIC "-//W3C//DTD SVG 1.1//EN" "http://www.w3.org/Graphics/SVG/1.1/DTD/svg11.dtd">
<svg version="1.1" id="Layer_1" xmlns="http://www.w3.org/2000/svg" xmlns:xlink="http://www.w3.org/1999/xlink" x="0px" y="0px"
	 viewBox="0 0 151.7 47.2" enable-background="new 0 0 151.7 47.2" xml:space="preserve">
<g>
	<g>
		<path fill="#68B044" d="M134.5,0H17.3C7.7,0,0,7.4,0,16.6v13.9c0,9.2,7.7,16.5,17.3,16.6h117.2c9.6,0,17.3-7.4,17.3-16.6V16.6
			C151.7,7.4,144,0,134.5,0z"/>
	</g>
	<g>
		<path fill="#FFFFFF" d="M18.3,18.3h1.5v11.8h-1.5V18.3z"/>
		<path fill="#FFFFFF" d="M26.6,27.5c0.8,0.9,2,1.5,3.3,1.5c1.5,0,2.5-0.8,2.5-1.9c0-1.2-0.9-1.6-2-2.1l-1.7-0.7
			c-1.1-0.5-2.4-1.3-2.4-3c0-1.8,1.6-3.1,3.7-3.1c1.4,0,2.6,0.6,3.5,1.5l-0.8,1c-0.7-0.7-1.6-1.1-2.7-1.1c-1.3,0-2.2,0.7-2.2,1.7
			c0,1.1,1,1.6,2,2l1.7,0.7c1.4,0.6,2.4,1.4,2.4,3.2c0,1.9-1.5,3.4-4,3.4c-1.7,0-3.1-0.7-4.1-1.7L26.6,27.5z"/>
		<path fill="#FFFFFF" d="M36,18.3h1.5v7c0,2.8,1.2,3.7,2.7,3.7c1.6,0,2.8-0.9,2.8-3.7v-7h1.4v6.9c0,3.8-1.8,5.1-4.2,5.1
			S36,29,36,25.2V18.3z"/>
		<path fill="#FFFFFF" d="M47.6,18.3h3.6c2.6,0,4.4,0.9,4.4,3.5c0,2.5-1.8,3.7-4.4,3.7h-2.1v4.7h-1.5V18.3z M51,24.2
			c2.1,0,3.1-0.8,3.1-2.4c0-1.7-1-2.3-3.1-2.3h-1.9v4.7H51z"/>
		<path fill="#FFFFFF" d="M57.9,18.3h3.6c2.6,0,4.4,0.9,4.4,3.5c0,2.5-1.8,3.7-4.4,3.7h-2.1v4.7h-1.5V18.3z M61.3,24.2
			c2.1,0,3.1-0.8,3.1-2.4c0-1.7-1-2.3-3.1-2.3h-1.9v4.7H61.3z"/>
		<path fill="#FFFFFF" d="M67.5,24.1c0-3.8,2.1-6.1,5.1-6.1c3,0,5,2.3,5,6.1c0,3.8-2.1,6.2-5,6.2C69.5,30.3,67.5,27.9,67.5,24.1z
			 M76,24.1c0-2.9-1.4-4.8-3.5-4.8c-2.1,0-3.5,1.8-3.5,4.8c0,3,1.4,4.9,3.5,4.9C74.6,29,76,27.1,76,24.1z"/>
		<path fill="#FFFFFF" d="M86.5,30.1l-2.8-5h-2.1v5H80V18.3h3.7c2.4,0,4.1,0.9,4.1,3.3c0,1.8-1,2.9-2.6,3.3l3,5.1H86.5z M81.5,23.9
			h2c1.8,0,2.8-0.8,2.8-2.3c0-1.5-1-2.1-2.8-2.1h-2V23.9z"/>
		<path fill="#FFFFFF" d="M92.5,19.5h-3.6v-1.3h8.7v1.3H94v10.6h-1.5V19.5z"/>
		<path fill="#FFFFFF" d="M105.2,21h-3.1v-2.6h9.3V21h-3.1v9.1h-3.1V21z"/>
		<path fill="#FFFFFF" d="M112,24.2c0-3.9,2.2-6,5.4-6c3.2,0,5.4,2.2,5.4,6c0,3.9-2.2,6.1-5.4,6.1C114.2,30.3,112,28,112,24.2z
			 M119.8,24.2c0-2.1-0.9-3.3-2.3-3.3s-2.3,1.2-2.3,3.3c0,2.1,0.9,3.5,2.3,3.5S119.8,26.3,119.8,24.2z"/>
		<path fill="#FFFFFF" d="M131.3,30.1l-2-3.9h-1.2v3.9H125V18.4h4.4c2.5,0,4.7,0.9,4.7,3.8c0,1.7-0.8,2.8-1.9,3.4l2.5,4.5H131.3z
			 M128.1,23.7h1.1c1.2,0,1.9-0.5,1.9-1.5c0-1-0.6-1.3-1.9-1.3h-1.1V23.7z"/>
	</g>
</g>
</svg>
