<?xml version="1.0" encoding="utf-8"?>
<!-- Generator: Adobe Illustrator 17.1.0, SVG Export Plug-In . SVG Version: 6.00 Build 0)  -->
<!DOCTYPE svg PUBLIC "-//W3C//DTD SVG 1.1//EN" "http://www.w3.org/Graphics/SVG/1.1/DTD/svg11.dtd">
<svg version="1.1" id="Layer_1" xmlns="http://www.w3.org/2000/svg" xmlns:xlink="http://www.w3.org/1999/xlink" x="0px" y="0px"
	 viewBox="0 0 148.8 126.4" enable-background="new 0 0 148.8 126.4" xml:space="preserve">
<g>
	<g>
		<g>
			<path fill="#68B044" d="M11.4,102.5h8c4.9,0,8.7,1.3,8.7,5.8c0,2.1-1.2,4.4-4,5.1v0.1c3.3,0.6,5.1,2.4,5.1,5.5
				c0,4.8-4,6.9-9.1,6.9h-8.7V102.5z M19.1,112c2.6,0,3.7-1.1,3.7-2.9s-1.2-2.5-3.7-2.5h-2.5v5.4H19.1z M19.6,121.9
				c2.9,0,4.4-1.1,4.4-3.2c0-2.1-1.5-3-4.4-3h-3v6.2H19.6z"/>
		</g>
		<g>
			<path fill="#68B044" d="M32.7,108.1H37l0.4,3.1h0.1c1.3-2.4,3.2-3.6,5.1-3.6c1,0,1.6,0.1,2.1,0.4l-0.9,4.6
				c-0.6-0.2-1.2-0.3-1.9-0.3c-1.3,0-3,0.9-3.9,3.3V126h-5.3V108.1z"/>
		</g>
		<g>
			<path fill="#68B044" d="M54.3,107.7c4.5,0,8.7,3.4,8.7,9.4c0,5.9-4.2,9.4-8.7,9.4c-4.5,0-8.7-3.4-8.7-9.4
				C45.6,111.1,49.8,107.7,54.3,107.7z M54.3,122.1c2.2,0,3.3-2,3.3-5.1s-1.1-5.1-3.3-5.1c-2.2,0-3.3,2-3.3,5.1
				S52.2,122.1,54.3,122.1z"/>
		</g>
		<g>
			<path fill="#68B044" d="M64.9,108.1h5.3l1.7,8.3c0.3,1.8,0.5,3.5,0.8,5.3h0.1c0.3-1.8,0.6-3.6,1-5.3l2-8.3h4.6l2,8.3
				c0.4,1.8,0.8,3.5,1.1,5.3h0.1c0.3-1.8,0.5-3.5,0.8-5.3l1.7-8.3h4.9L86.8,126h-6.2l-1.6-7.1c-0.4-1.7-0.6-3.3-1-5.2h-0.1
				c-0.3,1.9-0.6,3.6-0.9,5.2l-1.6,7.1h-6L64.9,108.1z"/>
		</g>
		<g>
			<path fill="#68B044" d="M95.1,120.6c1.6,1.2,3.1,1.9,4.6,1.9c1.6,0,2.3-0.6,2.3-1.5c0-1.2-1.8-1.7-3.6-2.4
				c-2.2-0.8-4.7-2.3-4.7-5.3c0-3.3,2.7-5.6,6.8-5.6c2.7,0,4.8,1.1,6.3,2.3l-2.4,3.2c-1.3-0.9-2.5-1.5-3.8-1.5c-1.4,0-2,0.5-2,1.4
				c0,1.2,1.7,1.6,3.5,2.3c2.3,0.8,4.8,2.1,4.8,5.4c0,3.2-2.6,5.8-7.3,5.8c-2.3,0-5-1-6.8-2.5L95.1,120.6z"/>
		</g>
		<g>
			<path fill="#68B044" d="M117.6,107.7c5.1,0,7.6,3.7,7.6,8.6c0,0.9-0.1,1.8-0.2,2.2h-10.7c0.5,2.7,2.3,3.9,4.6,3.9
				c1.3,0,2.6-0.4,3.9-1.2l1.8,3.2c-1.8,1.3-4.2,2-6.3,2c-5.1,0-9-3.5-9-9.4C109.2,111.3,113.4,107.7,117.6,107.7z M120.7,115.2
				c0-2.1-0.9-3.5-3-3.5c-1.7,0-3.1,1.1-3.5,3.5H120.7z"/>
		</g>
		<g>
			<path fill="#68B044" d="M128.9,108.1h4.3l0.4,3.1h0.1c1.3-2.4,3.2-3.6,5.1-3.6c1,0,1.6,0.1,2.1,0.4l-0.9,4.6
				c-0.6-0.2-1.2-0.3-1.9-0.3c-1.3,0-3,0.9-3.9,3.3V126h-5.3V108.1z"/>
		</g>
	</g>
	<g>
		<g>
			<g id="layer3_18_" transform="translate(-92,-63.999774)">
				<g id="layer5_18_">
					<g id="path2554_30_">
						<g>
							<path fill="#68B044" d="M176,70.7l-2.4,9.5c3.4-6.7,8.8-11.8,15-16.3c-4.5,5.3-8.7,10.5-11.2,15.8c4.3-6,10-9.3,16.5-11.5
								c-8.6,7.7-15.4,15.9-20.6,24.1l-4.1-1.8C169.8,84,172.3,77.3,176,70.7L176,70.7z"/>
						</g>
					</g>
					<g id="path2534_9_">
						<g>
							<path fill="#F5F8DE" d="M165,88.9l7.9,3.3c0,2-0.2,8.1,1.1,9.9c13.1,16.8,10.9,50.6-2.6,51.4c-20.6,0-28.4-14-28.4-26.8
								c0-11.7,14.1-19.5,22.4-26.4C167.4,98.3,167,94.2,165,88.9L165,88.9z"/>
						</g>
					</g>
					<g id="path2536_19_">
						<g>
							<path fill="#7E4798" d="M172.8,92l2.8,1.4c-0.3,1.9,0.1,6,2,7.1c8.3,5.1,16.1,10.7,19.1,16.3c10.9,19.7-7.7,38-23.7,36.2
								c8.7-6.5,11.3-19.7,8-34.2c-1.3-5.7-3.4-10.8-7.1-16.6C172.4,99.5,173,95.9,172.8,92L172.8,92z"/>
						</g>
					</g>
				</g>
				<g id="layer4_18_">
					<g id="path2540_19_">
						<g>
							<path fill="#010101" d="M169.7,101.4c-0.6,3.1-1.3,8.6-3.9,10.7c-1.1,0.8-2.3,1.6-3.5,2.4c-4.8,3.3-9.6,6.3-11.8,14.2
								c-0.5,1.7-0.1,3.5,0.3,5.1c1.2,4.8,4.6,10,7.3,13.1c0,0.1,0.5,0.5,0.5,0.6c2.2,2.6,2.9,3.3,11.2,5.2l-0.2,0.9
								c-5-1.3-9.1-2.5-11.7-5.5c0-0.1-0.5-0.5-0.5-0.5c-2.8-3.2-6.2-8.5-7.5-13.5c-0.5-2-0.9-3.5-0.3-5.6
								c2.3-8.1,7.2-11.3,12.2-14.7c1.1-0.7,2.5-1.4,3.5-2.3C167.4,109.8,168.5,105.2,169.7,101.4L169.7,101.4z"/>
						</g>
					</g>
					<g id="path2542_19_">
						<g>
							<path fill="#010101" d="M171.8,114.2c0.1,3.5-0.3,5.2,0.6,7.7c0.5,1.5,2.3,3.5,2.9,5.4c0.7,2.6,1.5,5.5,1.5,7.2
								c0,2-0.1,5.7-1,9.7c-0.7,3.3-2.2,6.1-4.7,7.7c-2.6-0.5-5.7-1.5-7.5-3c-3.5-3.1-6.7-8.2-7.1-12.6c-0.3-3.7,3.1-9.1,7.8-11.8
								c4-2.3,4.9-5,5.8-9.3c-1.2,3.7-2.3,6.9-6.2,8.9c-5.6,2.9-8.5,7.8-8.2,12.5c0.4,6,2.8,10.1,7.5,13.3c2,1.4,5.7,2.9,8.1,3.3
								v-0.3c1.8-0.3,4.1-3.2,5.2-7.2c1-3.5,1.4-8,1.3-10.9c-0.1-1.7-0.8-5.3-2.1-8.5c-0.7-1.8-1.9-3.6-2.6-4.9
								C172.2,120.1,172.2,117.4,171.8,114.2z"/>
						</g>
					</g>
					<g id="path2544_19_">
						<g>
							<path fill="#010101" d="M171.2,127.8c0.1,2.3,1,5.3,1.4,8.4c0.3,2.3,0.2,4.5,0.1,6.5c-0.1,2.3-0.8,6.5-1.9,8.5
								c-1-0.5-1.4-1-2-1.8c-0.8-1.1-1.3-2.3-1.9-3.6c-0.4-1-0.9-2.1-1.1-3.5c-0.3-2-0.2-5.1,2.1-8.3c1.7-2.5,2.1-2.7,2.7-5.7
								c-0.8,2.6-1.4,2.9-3.3,5.1c-2.1,2.4-2.4,5.9-2.4,8.8c0,1.2,0.5,2.5,0.9,3.8c0.5,1.3,1,2.7,1.7,3.7c1.1,1.6,2.5,2.5,3.2,2.7
								c0,0,0,0,0,0c0,0,0,0,0,0v-0.1c1.3-1.4,2.1-2.9,2.3-4.3c0.3-1.7,0.4-3.5,0.6-5.5c0.2-1.7,0.1-4.1-0.4-6.5
								C172.8,133,171.6,130,171.2,127.8L171.2,127.8z"/>
						</g>
					</g>
					<g id="path2550_19_">
						<g>
							<path fill="#010101" d="M171.6,98.6c0.1,3.5,0.3,9.9,1.3,12.5c0.3,0.9,2.7,4.7,4.5,9.3c1.2,3.2,1.5,6.1,1.7,7
								c0.8,3.8-0.2,10.2-1.5,16.3c-0.7,3.3-2.9,7.3-5.5,8.9l-0.5,0.9c1.5-0.1,5.1-3.6,6.3-8c2.1-7.5,3-10.9,2-19.2
								c-0.1-0.8-0.5-3.5-1.7-6.5c-1.9-4.5-4.5-8.7-4.9-9.6C172.5,108.8,171.7,102.7,171.6,98.6L171.6,98.6z"/>
						</g>
					</g>
					<g id="path2552_19_">
						<g>
							<path fill="#010101" d="M172.8,92.3c-0.2,3.6-0.2,6.4,0.4,9c0.7,2.9,4.5,7,6,11.7c2.9,9.1,2.2,20.9,0.1,30.2
								c-0.8,3.3-4.6,8-8.4,9.5l2.8,0.7c1.5-0.1,5.5-3.7,7-7.9c2.5-6.6,2.9-14.5,1.9-22.7c-0.1-0.8-1.4-7.9-2.7-10.9
								c-1.8-4.5-4.6-7.6-5.7-10.4c-0.8-2-1.1-7.6-0.6-8.7L172.8,92.3z"/>
						</g>
					</g>
				</g>
			</g>
			<g id="path2528_15_">
				<g>
					<path fill="#7E4798" d="M3.7,8.7h53.5c2,0,3.7,1.7,3.7,3.7v15.8c0,2.1-1.7,3.7-3.7,3.7h-11c-2.5,0-3.5,1.4-3.5,3v51.7
						c0,1.7-1.4,3.1-3.1,3.1H21.4c-1.7,0-3-1.3-3-3.1V34.5c0-1.6-1.5-2.5-2.6-2.5H3.7C1.7,32,0,30.3,0,28.2V12.5
						C0,10.4,1.7,8.7,3.7,8.7z"/>
				</g>
			</g>
			<g id="path2532_15_">
				<g>
					<path fill="#7E4798" d="M140.9,29.6h4.7c1.7,0,3.1,1.4,3.1,3.1v16.9c0,2.2,0.1,3.1-2.5,3.1c-5.3,0-7.7,2.8-7.7,5.9v28.6
						c0,1.3-1.3,2.5-2.8,2.5h-17c-1.5,0-2.8-1.1-2.8-2.5V54.5c0-0.6,0-1.4,0.1-1.9c0.9-12.1,10.4-21.7,22.4-22.9
						C138.9,29.7,140.3,29.6,140.9,29.6L140.9,29.6z"/>
				</g>
			</g>
		</g>
		<g>
			<g>
				<path fill="#010101" d="M100.6,45.8c-2.9-2.6-6.5-4.7-10.2-6.8c-1.7-0.9-6.8-4.9-5.1-10.7l-13-5.3l-0.9,0.7
					c4.3,7.8,2.1,11.9-0.1,13.4c-4.3,3-10.7,6.7-13.8,10c-6.1,6.2-7.8,12.1-7.3,19.9c0.6,10,7.9,18.3,17.6,21.6
					c4.3,1.4,8.2,1.6,12.6,1.6c7.1,0,14.3-1.9,19.6-6.3c5.6-4.7,8.9-11.7,8.9-18.9C109,57.6,106,50.7,100.6,45.8z M98.6,82.3
					c-4.8,4-13.6,6.7-18.2,6.5c-5.1-0.3-10.2-1.1-14.6-3.3c-7.8-3.8-13-11.9-13.3-18.6c-0.7-13.5,5.8-17.4,11.8-22.4
					c3.4-2.8,8.1-4.1,10.8-9.1c0.5-1.1,0.8-3.5,0.2-5.9c-0.3-0.9-1.5-3.9-2-4.5l9.7,4.3c-1.2,4.5,2.5,9.1,5.4,10.8
					c2.9,1.7,7.7,4.8,10.5,7.4c5,4.5,7.7,10.8,7.7,17.5C106.6,71.5,103.8,78,98.6,82.3z"/>
			</g>
		</g>
	</g>
</g>
</svg>
